<?xml version="1.0" encoding="UTF-8" standalone="no"?>
<!DOCTYPE svg PUBLIC "-//W3C//DTD SVG 1.1//EN" "http://www.w3.org/Graphics/SVG/1.1/DTD/svg11.dtd">
<svg width="100%" height="100%" viewBox="0 0 285 285" version="1.1" xmlns="http://www.w3.org/2000/svg" xmlns:xlink="http://www.w3.org/1999/xlink" xml:space="preserve" xmlns:serif="http://www.serif.com/" style="fill-rule:evenodd;clip-rule:evenodd;stroke-linejoin:round;stroke-miterlimit:2;">
    <g transform="matrix(4.16667,0,0,4.16667,-204.001,-1933.14)">
        <g transform="matrix(1,0,0,1,97.5645,482.139)">
            <path d="M0,31.204C-1.226,32.087 -3.034,31.869 -4.207,30.696L-6.984,27.919L-10.371,23.804L-6.844,20.277L-2.506,23.48L0.411,26.397C1.744,27.73 1.658,30.01 0,31.204M-13.791,19.656L-11.197,17.063L-8.554,19.015L-11.712,22.173C-13.859,19.563 -13.725,19.721 -13.791,19.656M-20.142,23.035C-20.457,23.35 -20.539,23.829 -20.347,24.231C-19.389,26.236 -19.802,28.64 -21.374,30.212C-22.381,31.219 -23.729,31.75 -25.096,31.75C-25.342,31.75 -25.588,31.733 -25.833,31.698L-24.346,30.212C-23.114,28.979 -23.114,26.985 -24.346,25.753C-25.575,24.524 -27.575,24.524 -28.804,25.753L-30.291,27.24C-30.519,25.633 -29.993,23.97 -28.804,22.781C-27.232,21.209 -24.829,20.796 -22.824,21.754C-22.422,21.946 -21.943,21.864 -21.627,21.549L-8.873,8.795C-8.558,8.48 -8.476,8.001 -8.667,7.599C-9.625,5.594 -9.213,3.19 -7.641,1.618C-6.452,0.43 -4.789,-0.096 -3.182,0.132L-4.668,1.618C-5.264,2.214 -5.592,3.006 -5.592,3.848C-5.592,4.689 -5.264,5.481 -4.668,6.076C-3.439,7.306 -1.439,7.306 -0.21,6.076L1.276,4.59C1.504,6.197 0.978,7.86 -0.21,9.049C-1.782,10.621 -4.186,11.034 -6.191,10.076C-6.593,9.884 -7.072,9.966 -7.387,10.281L-20.142,23.035ZM-25.375,6.531C-25.783,6.1 -26.466,6.092 -26.883,6.509L-27.417,7.044L-30.102,2.569C-30.49,1.923 -30.389,1.099 -29.855,0.564C-29.322,0.031 -28.498,-0.07 -27.851,0.318L-23.376,3.003L-23.911,3.537C-24.313,3.938 -24.322,4.588 -23.933,5.001C-15.553,13.886 -16.871,12.549 -16.156,13.105L-17.75,14.7C-18.302,13.991 -17.022,15.389 -25.375,6.531M1.897,24.911C-1.314,21.7 -1.104,21.903 -1.194,21.837L-9.694,15.56L-6.397,12.264C-3.746,13.208 -0.744,12.555 1.276,10.535C3.477,8.334 4.055,4.97 2.713,2.162C2.401,1.508 1.534,1.36 1.022,1.872L-1.696,4.591C-2.106,5 -2.772,5 -3.182,4.591C-3.593,4.18 -3.593,3.516 -3.182,3.104L-0.464,0.386C0.049,-0.127 -0.1,-0.993 -0.754,-1.305C-3.561,-2.647 -6.926,-2.068 -9.126,0.133C-11.147,2.153 -11.799,5.154 -10.855,7.805L-14.658,11.607C-15.432,11.006 -14.411,12.034 -21.703,4.302L-20.939,3.537C-20.455,3.054 -20.556,2.244 -21.141,1.892L-26.77,-1.484C-28.245,-2.369 -30.125,-2.138 -31.341,-0.921C-32.558,0.295 -32.789,2.176 -31.904,3.65L-28.527,9.279C-28.175,9.865 -27.366,9.964 -26.883,9.481L-26.162,8.761C-18.907,16.453 -19.862,15.408 -19.289,16.145C-19.275,16.163 -19.26,16.179 -19.246,16.194L-22.618,19.566C-25.268,18.622 -28.27,19.274 -30.291,21.295C-32.491,23.496 -33.069,26.86 -31.728,29.668C-31.415,30.322 -30.549,30.47 -30.037,29.958L-27.318,27.239C-26.908,26.83 -26.242,26.83 -25.832,27.239C-25.421,27.65 -25.421,28.315 -25.832,28.725L-28.551,31.444C-29.063,31.957 -28.914,32.823 -28.261,33.136C-27.251,33.617 -26.171,33.851 -25.098,33.851C-23.185,33.851 -21.298,33.107 -19.888,31.698C-17.867,29.678 -17.215,26.676 -18.159,24.025L-15.279,21.145L-8.574,29.294C-8.523,29.355 -8.691,29.183 -5.692,32.183C-4.601,33.274 -3.149,33.84 -1.722,33.84C-0.675,33.84 0.359,33.535 1.228,32.909C3.879,31 4.192,27.206 1.897,24.911" style="fill:rgb(0,163,172);fill-rule:nonzero;"/>
        </g>
        <g transform="matrix(1,0,0,1,96.4712,507.124)">
            <path d="M0,2.717L-4.204,-1.486C-4.614,-1.896 -5.279,-1.896 -5.689,-1.486C-6.1,-1.076 -6.1,-0.411 -5.689,-0L-1.486,4.203C-1.076,4.613 -0.411,4.613 0,4.203C0.41,3.792 0.41,3.127 0,2.717" style="fill:rgb(0,163,172);fill-rule:nonzero;"/>
        </g>
    </g>
</svg>
