<?xml version="1.0" encoding="UTF-8" standalone="no"?>
<!DOCTYPE svg PUBLIC "-//W3C//DTD SVG 1.1//EN" "http://www.w3.org/Graphics/SVG/1.1/DTD/svg11.dtd">
<svg width="100%" height="100%" viewBox="0 0 285 285" version="1.1" xmlns="http://www.w3.org/2000/svg" xmlns:xlink="http://www.w3.org/1999/xlink" xml:space="preserve" xmlns:serif="http://www.serif.com/" style="fill-rule:evenodd;clip-rule:evenodd;stroke-linejoin:round;stroke-miterlimit:2;">
    <g transform="matrix(4.16667,0,0,4.16667,-1111.84,-1927.28)">
        <g transform="matrix(1,0,0,1,309.67,500.703)">
            <path d="M0,3.975C0,4.365 -0.319,4.676 -0.701,4.676L-5.883,4.676C-6.273,4.676 -6.584,4.357 -6.584,3.975L-6.584,0.001C-6.584,-0.388 -6.265,-0.701 -5.883,-0.701L-0.701,-0.701C-0.312,-0.701 0,-0.38 0,0.001L0,3.975ZM-0.701,-2.571L-5.883,-2.571C-7.301,-2.571 -8.455,-1.418 -8.455,0.001L-8.455,3.975C-8.455,5.393 -7.301,6.546 -5.883,6.546L-0.701,6.546C0.717,6.546 1.87,5.393 1.87,3.975L1.87,0.001C1.87,-1.418 0.717,-2.571 -0.701,-2.571" style="fill:rgb(0,163,172);fill-rule:nonzero;"/>
        </g>
        <g transform="matrix(1,0,0,1,314.54,498.787)">
            <path d="M0,-4.278C-1.769,-4.278 -3.242,-5.555 -3.538,-7.239L3.545,-7.239C3.241,-5.563 1.769,-4.278 0,-4.278M0.319,12.639L-15.085,12.639L-15.085,2.548C-15.085,0.787 -16.52,-0.655 -18.288,-0.655L-21.008,-0.655C-22.769,-0.655 -24.21,0.78 -24.21,2.548L-24.21,12.647L-27.522,12.647L-27.522,-2.416C-27.413,-2.408 -27.304,-2.408 -27.195,-2.408C-25.309,-2.408 -23.642,-3.366 -22.66,-4.823C-21.678,-3.366 -20.01,-2.408 -18.125,-2.408C-16.239,-2.408 -14.579,-3.366 -13.589,-4.823C-12.608,-3.366 -10.94,-2.408 -9.063,-2.408C-7.177,-2.408 -5.517,-3.366 -4.535,-4.823C-3.553,-3.366 -1.886,-2.408 0,-2.408C0.109,-2.408 0.21,-2.416 0.319,-2.416L0.319,12.639ZM-16.948,12.639L-22.333,12.639L-22.333,2.548C-22.333,1.816 -21.74,1.215 -21,1.215L-18.28,1.215C-17.548,1.215 -16.948,1.808 -16.948,2.548L-16.948,12.639ZM-30.732,-7.247L-23.649,-7.247C-23.945,-5.563 -25.426,-4.286 -27.195,-4.286C-28.963,-4.278 -30.436,-5.563 -30.732,-7.247M-14.587,-7.247C-14.883,-5.563 -16.356,-4.286 -18.125,-4.286C-19.894,-4.286 -21.366,-5.563 -21.67,-7.247L-14.587,-7.247ZM-5.525,-7.247C-5.821,-5.563 -7.293,-4.286 -9.063,-4.286C-10.831,-4.286 -12.304,-5.563 -12.6,-7.247L-5.525,-7.247ZM-25.52,-16.909L-1.683,-16.909L2.75,-9.109L-29.945,-9.109L-25.52,-16.909ZM5.47,-7.878C5.47,-8.042 5.431,-8.197 5.345,-8.338L-0.328,-18.311C-0.491,-18.6 -0.803,-18.787 -1.138,-18.787L-26.065,-18.787C-26.4,-18.787 -26.711,-18.607 -26.875,-18.311L-32.54,-8.338C-32.618,-8.197 -32.665,-8.042 -32.665,-7.878C-32.665,-5.641 -31.316,-3.724 -29.392,-2.876L-29.392,13.574C-29.392,14.088 -28.971,14.509 -28.457,14.509L1.254,14.509C1.769,14.509 2.189,14.088 2.189,13.574L2.189,-2.758C2.189,-2.798 2.189,-2.829 2.182,-2.86C4.114,-3.709 5.47,-5.633 5.47,-7.878" style="fill:rgb(0,163,172);fill-rule:nonzero;"/>
        </g>
    </g>
</svg>
