<?xml version="1.0" encoding="UTF-8" standalone="no"?>
<!DOCTYPE svg PUBLIC "-//W3C//DTD SVG 1.1//EN" "http://www.w3.org/Graphics/SVG/1.1/DTD/svg11.dtd">
<svg width="100%" height="100%" viewBox="0 0 285 285" version="1.1" xmlns="http://www.w3.org/2000/svg" xmlns:xlink="http://www.w3.org/1999/xlink" xml:space="preserve" xmlns:serif="http://www.serif.com/" style="fill-rule:evenodd;clip-rule:evenodd;stroke-linejoin:round;stroke-miterlimit:2;">
    <g>
        <g transform="matrix(4.16667,0,0,4.16667,161.037,148.795)">
            <path d="M0,-19.571L-4.549,-19.571L-4.549,-16.728L-1.421,-16.728L-1.421,-11.373C-1.421,-6.67 -5.248,-2.843 -9.951,-2.843C-14.655,-2.843 -18.481,-6.67 -18.481,-11.373L-18.481,-16.728L-15.448,-16.728L-15.448,-19.571L-19.903,-19.571C-20.688,-19.571 -21.324,-18.934 -21.324,-18.149L-21.324,-11.373C-21.324,-5.101 -16.223,0 -9.951,0C-3.68,0 1.422,-5.101 1.422,-11.373L1.422,-18.149C1.422,-18.934 0.785,-19.571 0,-19.571" style="fill:rgb(0,163,172);fill-rule:nonzero;"/>
        </g>
        <g transform="matrix(4.16667,0,0,4.16667,184.139,212.574)">
            <path d="M0,-14.122L0,-7.393C0,-3.474 -3.188,-0.285 -7.108,-0.285C-11.028,-0.285 -14.216,-3.474 -14.216,-7.393L-14.216,-16.681L-17.06,-16.681L-17.06,-7.393C-17.06,-1.906 -12.596,2.559 -7.108,2.559C-1.621,2.559 2.843,-1.906 2.843,-7.393L2.843,-14.122L0,-14.122Z" style="fill:rgb(0,163,172);fill-rule:nonzero;"/>
        </g>
        <g transform="matrix(4.16667,0,0,4.16667,190.063,127.276)">
            <path d="M0,4.833C-1.333,4.833 -2.417,3.749 -2.417,2.416C-2.417,1.084 -1.333,-0 0,-0C1.333,-0 2.417,1.084 2.417,2.416C2.417,3.749 1.333,4.833 0,4.833M0,-2.844C-2.901,-2.844 -5.26,-0.484 -5.26,2.416C-5.26,5.316 -2.901,7.677 0,7.677C2.9,7.677 5.26,5.316 5.26,2.416C5.26,-0.484 2.9,-2.844 0,-2.844" style="fill:rgb(0,163,172);fill-rule:nonzero;"/>
        </g>
        <g transform="matrix(4.16667,0,0,4.16667,96.4719,85.4135)">
            <path d="M0,-5.876C-0.785,-5.876 -1.422,-5.239 -1.422,-4.454L-1.422,-1.422C-1.422,-0.637 -0.785,0 0,0C0.785,0 1.421,-0.637 1.421,-1.422L1.421,-4.454C1.421,-5.239 0.785,-5.876 0,-5.876" style="fill:rgb(0,163,172);fill-rule:nonzero;"/>
        </g>
        <g transform="matrix(4.16667,0,0,4.16667,142.279,85.4135)">
            <path d="M0,-5.876C-0.785,-5.876 -1.421,-5.239 -1.421,-4.454L-1.421,-1.422C-1.421,-0.637 -0.785,0 0,0C0.786,0 1.422,-0.637 1.422,-1.422L1.422,-4.454C1.422,-5.239 0.786,-5.876 0,-5.876" style="fill:rgb(0,163,172);fill-rule:nonzero;"/>
        </g>
        <g transform="matrix(4.16667,0,0,4.16667,161.037,148.795)">
            <path d="M0,-19.571L-4.549,-19.571L-4.549,-16.728L-1.421,-16.728L-1.421,-11.373C-1.421,-6.67 -5.248,-2.843 -9.951,-2.843C-14.655,-2.843 -18.481,-6.67 -18.481,-11.373L-18.481,-16.728L-15.448,-16.728L-15.448,-19.571L-19.903,-19.571C-20.688,-19.571 -21.324,-18.934 -21.324,-18.149L-21.324,-11.373C-21.324,-5.101 -16.223,0 -9.951,0C-3.68,0 1.422,-5.101 1.422,-11.373L1.422,-18.149C1.422,-18.934 0.785,-19.571 0,-19.571" style="fill:rgb(0,163,172);fill-rule:nonzero;"/>
        </g>
        <g transform="matrix(4.16667,0,0,4.16667,184.139,212.574)">
            <path d="M0,-14.122L0,-7.393C0,-3.474 -3.188,-0.285 -7.108,-0.285C-11.028,-0.285 -14.216,-3.474 -14.216,-7.393L-14.216,-16.681L-17.06,-16.681L-17.06,-7.393C-17.06,-1.906 -12.596,2.559 -7.108,2.559C-1.621,2.559 2.843,-1.906 2.843,-7.393L2.843,-14.122L0,-14.122Z" style="fill:rgb(0,163,172);fill-rule:nonzero;"/>
        </g>
        <g transform="matrix(4.16667,0,0,4.16667,190.063,127.276)">
            <path d="M0,4.833C-1.333,4.833 -2.417,3.749 -2.417,2.416C-2.417,1.084 -1.333,-0 0,-0C1.333,-0 2.417,1.084 2.417,2.416C2.417,3.749 1.333,4.833 0,4.833M0,-2.844C-2.901,-2.844 -5.26,-0.484 -5.26,2.416C-5.26,5.316 -2.901,7.677 0,7.677C2.9,7.677 5.26,5.316 5.26,2.416C5.26,-0.484 2.9,-2.844 0,-2.844" style="fill:rgb(0,163,172);fill-rule:nonzero;"/>
        </g>
        <g transform="matrix(4.16667,0,0,4.16667,96.4719,85.4135)">
            <path d="M0,-5.876C-0.785,-5.876 -1.422,-5.239 -1.422,-4.454L-1.422,-1.422C-1.422,-0.637 -0.785,0 0,0C0.785,0 1.421,-0.637 1.421,-1.422L1.421,-4.454C1.421,-5.239 0.785,-5.876 0,-5.876" style="fill:rgb(0,163,172);fill-rule:nonzero;"/>
        </g>
        <g transform="matrix(4.16667,0,0,4.16667,142.279,85.4135)">
            <path d="M0,-5.876C-0.785,-5.876 -1.421,-5.239 -1.421,-4.454L-1.421,-1.422C-1.421,-0.637 -0.785,0 0,0C0.786,0 1.422,-0.637 1.422,-1.422L1.422,-4.454C1.422,-5.239 0.786,-5.876 0,-5.876" style="fill:rgb(0,163,172);fill-rule:nonzero;"/>
        </g>
    </g>
</svg>
