<?xml version="1.0" encoding="UTF-8" standalone="no"?>
<!DOCTYPE svg PUBLIC "-//W3C//DTD SVG 1.1//EN" "http://www.w3.org/Graphics/SVG/1.1/DTD/svg11.dtd">
<svg width="100%" height="100%" viewBox="0 0 285 285" version="1.1" xmlns="http://www.w3.org/2000/svg" xmlns:xlink="http://www.w3.org/1999/xlink" xml:space="preserve" xmlns:serif="http://www.serif.com/" style="fill-rule:evenodd;clip-rule:evenodd;stroke-linejoin:round;stroke-miterlimit:2;">
    <g transform="matrix(4.16667,0,0,4.16667,185.36,131.153)">
        <path d="M0,5.222C-0.248,5.471 -1.134,6.07 -3.136,6.641C-5.271,7.249 -7.846,7.585 -10.387,7.585C-12.928,7.585 -15.503,7.249 -17.638,6.641C-19.639,6.07 -20.526,5.472 -20.774,5.222L-20.774,-2.095L-10.82,1.444C-10.68,1.493 -10.533,1.519 -10.387,1.519C-10.24,1.519 -10.094,1.493 -9.954,1.444L0,-2.095L0,5.222ZM-10.387,-13.111L6.506,-7.151L-10.387,-1.145L-27.28,-7.151L-10.387,-13.111ZM7.273,12.43C6.555,12.43 5.97,11.845 5.97,11.126C5.97,10.409 6.555,9.824 7.273,9.824C7.992,9.824 8.577,10.409 8.577,11.126C8.577,11.845 7.992,12.43 7.273,12.43M10.811,-5.938C11.326,-6.122 11.67,-6.61 11.67,-7.157C11.669,-7.705 11.324,-8.192 10.808,-8.375L-9.957,-15.701C-10.235,-15.799 -10.539,-15.799 -10.817,-15.701L-31.581,-8.375C-32.097,-8.192 -32.443,-7.705 -32.443,-7.157C-32.444,-6.61 -32.1,-6.122 -31.584,-5.938L-23.358,-3.013L-23.358,5.416C-23.358,6.808 -21.907,7.985 -19.044,8.913C-16.549,9.724 -13.474,10.169 -10.387,10.169C-7.299,10.169 -4.225,9.724 -1.729,8.913C1.134,7.985 2.585,6.808 2.585,5.416L2.585,-3.013L5.981,-4.221L5.981,7.46C4.471,7.994 3.386,9.436 3.386,11.127C3.386,12.818 4.471,14.259 5.981,14.793L5.981,19.729C5.981,20.443 6.56,21.021 7.273,21.021C7.987,21.021 8.566,20.443 8.566,19.729L8.566,14.793C10.076,14.259 11.162,12.818 11.162,11.127C11.162,9.436 10.076,7.994 8.566,7.46L8.566,-5.14L10.811,-5.938Z" style="fill:rgb(0,163,172);fill-rule:nonzero;"/>
    </g>
</svg>
