<?xml version="1.0" encoding="UTF-8" standalone="no"?>
<!DOCTYPE svg PUBLIC "-//W3C//DTD SVG 1.1//EN" "http://www.w3.org/Graphics/SVG/1.1/DTD/svg11.dtd">
<svg width="100%" height="100%" viewBox="0 0 285 285" version="1.1" xmlns="http://www.w3.org/2000/svg" xmlns:xlink="http://www.w3.org/1999/xlink" xml:space="preserve" xmlns:serif="http://www.serif.com/" style="fill-rule:evenodd;clip-rule:evenodd;stroke-linejoin:round;stroke-miterlimit:2;">
    <g transform="matrix(4.16667,0,0,4.16667,-659.104,-1345.81)">
        <g transform="matrix(1,0,0,1,178.068,353.923)">
            <path d="M0,0.063L14.217,-12.123L28.434,0.063L27.426,0.063C26.997,0.063 26.649,0.411 26.649,0.84L26.649,12.461C26.479,12.475 26.323,12.496 26.124,12.496C24.824,12.496 24.21,12.176 23.501,11.806C22.771,11.426 21.923,11.011 20.433,10.96L20.433,3.949C20.433,3.519 20.085,3.171 19.656,3.171L8.778,3.171C8.349,3.171 8.001,3.519 8.001,3.949L8.001,10.959C6.499,11.006 5.65,11.424 4.917,11.806C4.208,12.176 3.598,12.496 2.3,12.496C2.105,12.496 1.952,12.475 1.785,12.462L1.785,0.84C1.785,0.411 1.437,0.063 1.008,0.063L0,0.063ZM18.879,11.056C17.985,11.216 17.371,11.521 16.823,11.806C16.115,12.176 15.503,12.496 14.205,12.496C12.907,12.496 12.296,12.176 11.588,11.806C11.046,11.523 10.436,11.222 9.555,11.061L9.555,4.725L18.879,4.725L18.879,11.056ZM-3.654,12.496C-2.356,12.496 -1.745,12.815 -1.037,13.184C-0.26,13.589 0.621,14.049 2.3,14.049C3.979,14.049 4.859,13.589 5.636,13.184C6.344,12.815 6.955,12.496 8.252,12.496C9.55,12.496 10.162,12.815 10.869,13.184C11.646,13.589 12.526,14.049 14.205,14.049C15.884,14.049 16.765,13.589 17.542,13.184C18.25,12.815 18.862,12.496 20.16,12.496C21.461,12.496 22.074,12.815 22.783,13.184C23.561,13.589 24.443,14.049 26.125,14.049C27.806,14.049 28.687,13.589 29.465,13.184C30.175,12.815 30.788,12.496 32.088,12.496C32.518,12.496 32.866,12.148 32.866,11.718C32.866,11.289 32.518,10.941 32.088,10.941C30.407,10.941 29.525,11.401 28.748,11.806C28.564,11.902 28.387,11.993 28.204,12.077L28.204,1.618L30.534,1.618C30.86,1.618 31.15,1.415 31.263,1.11C31.376,0.804 31.287,0.461 31.04,0.25L14.723,-13.736C14.433,-13.986 14.001,-13.986 13.712,-13.736L-2.605,0.25C-2.853,0.461 -2.941,0.804 -2.829,1.11C-2.716,1.415 -2.426,1.618 -2.1,1.618L0.231,1.618L0.231,12.08C0.046,11.995 -0.133,11.903 -0.317,11.806C-1.095,11.401 -1.975,10.942 -3.654,10.942C-4.083,10.941 -4.431,11.289 -4.431,11.718C-4.431,12.148 -4.083,12.496 -3.654,12.496" style="fill:rgb(0,163,172);fill-rule:nonzero;"/>
        </g>
        <g transform="matrix(1,0,0,1,210.156,374.188)">
            <path d="M0,-3.107C-1.682,-3.107 -2.563,-2.647 -3.341,-2.242C-4.051,-1.873 -4.664,-1.553 -5.964,-1.553C-7.265,-1.553 -7.878,-1.873 -8.587,-2.242C-9.365,-2.647 -10.247,-3.107 -11.928,-3.107C-13.607,-3.107 -14.489,-2.647 -15.266,-2.242C-15.974,-1.873 -16.585,-1.553 -17.883,-1.553C-19.181,-1.553 -19.792,-1.873 -20.5,-2.242C-21.277,-2.647 -22.157,-3.107 -23.836,-3.107C-25.515,-3.107 -26.395,-2.647 -27.172,-2.242C-27.88,-1.873 -28.491,-1.553 -29.789,-1.553C-31.087,-1.553 -31.698,-1.873 -32.406,-2.242C-33.183,-2.647 -34.063,-3.107 -35.743,-3.107C-36.172,-3.107 -36.52,-2.759 -36.52,-2.331C-36.52,-1.901 -36.172,-1.553 -35.743,-1.553C-34.445,-1.553 -33.833,-1.234 -33.125,-0.864C-32.348,-0.459 -31.467,0 -29.788,0C-28.11,0 -27.229,-0.46 -26.453,-0.864C-25.745,-1.234 -25.134,-1.553 -23.836,-1.553C-22.539,-1.553 -21.927,-1.234 -21.219,-0.864C-20.442,-0.459 -19.562,0 -17.883,0C-16.204,0 -15.323,-0.46 -14.546,-0.864C-13.838,-1.234 -13.227,-1.553 -11.928,-1.553C-10.627,-1.553 -10.015,-1.234 -9.305,-0.864C-8.527,-0.459 -7.646,0 -5.964,0C-4.283,0 -3.401,-0.46 -2.623,-0.864C-1.914,-1.234 -1.3,-1.553 0,-1.553C0.43,-1.553 0.777,-1.901 0.777,-2.331C0.777,-2.759 0.429,-3.107 0,-3.107" style="fill:rgb(0,163,172);fill-rule:nonzero;"/>
        </g>
    </g>
</svg>
