<?xml version="1.0" encoding="UTF-8" standalone="no"?>
<!DOCTYPE svg PUBLIC "-//W3C//DTD SVG 1.1//EN" "http://www.w3.org/Graphics/SVG/1.1/DTD/svg11.dtd"
[
<!ATTLIST g
  xmlns:vectornator CDATA #FIXED "http://vectornator.io"
  vectornator:layerName CDATA #IMPLIED >
<!ATTLIST g
  xmlns:vectornator CDATA #FIXED "http://vectornator.io"
  vectornator:mask CDATA #IMPLIED >
<!ATTLIST text
  xmlns:vectornator CDATA #FIXED "http://vectornator.io"
  vectornator:width CDATA #IMPLIED >

<!ATTLIST path
  xmlns:vectornator CDATA #FIXED "http://vectornator.io"
  vectornator:blendMode CDATA #IMPLIED >
<!ATTLIST path
  xmlns:vectornator CDATA #FIXED "http://vectornator.io"
  vectornator:shadowColor CDATA #IMPLIED >
<!ATTLIST path
  xmlns:vectornator CDATA #FIXED "http://vectornator.io"
  vectornator:shadowOpacity CDATA #IMPLIED >
<!ATTLIST path
  xmlns:vectornator CDATA #FIXED "http://vectornator.io"
  vectornator:shadowRadius CDATA #IMPLIED >
<!ATTLIST path
  xmlns:vectornator CDATA #FIXED "http://vectornator.io"
  vectornator:shadowOffset CDATA #IMPLIED >
<!ATTLIST path
  xmlns:vectornator CDATA #FIXED "http://vectornator.io"
  vectornator:shadowAngle CDATA #IMPLIED >

<!ATTLIST image
  xmlns:vectornator CDATA #FIXED "http://vectornator.io"
  vectornator:blendMode CDATA #IMPLIED >
<!ATTLIST image
  xmlns:vectornator CDATA #FIXED "http://vectornator.io"
  vectornator:shadowColor CDATA #IMPLIED >
<!ATTLIST image
  xmlns:vectornator CDATA #FIXED "http://vectornator.io"
  vectornator:shadowOpacity CDATA #IMPLIED >
<!ATTLIST image
  xmlns:vectornator CDATA #FIXED "http://vectornator.io"
  vectornator:shadowRadius CDATA #IMPLIED >
<!ATTLIST image
  xmlns:vectornator CDATA #FIXED "http://vectornator.io"
  vectornator:shadowOffset CDATA #IMPLIED >
<!ATTLIST image
  xmlns:vectornator CDATA #FIXED "http://vectornator.io"
  vectornator:shadowAngle CDATA #IMPLIED >

<!ATTLIST g
  xmlns:vectornator CDATA #FIXED "http://vectornator.io"
  vectornator:blendMode CDATA #IMPLIED >
<!ATTLIST g
  xmlns:vectornator CDATA #FIXED "http://vectornator.io"
  vectornator:shadowColor CDATA #IMPLIED >
<!ATTLIST g
  xmlns:vectornator CDATA #FIXED "http://vectornator.io"
  vectornator:shadowOpacity CDATA #IMPLIED >
<!ATTLIST g
  xmlns:vectornator CDATA #FIXED "http://vectornator.io"
  vectornator:shadowRadius CDATA #IMPLIED >
<!ATTLIST g
  xmlns:vectornator CDATA #FIXED "http://vectornator.io"
  vectornator:shadowOffset CDATA #IMPLIED >
<!ATTLIST g
  xmlns:vectornator CDATA #FIXED "http://vectornator.io"
  vectornator:shadowAngle CDATA #IMPLIED >

<!ENTITY % SVG.filter.extra.content  "| feDropShadow" >
<!ELEMENT feDropShadow EMPTY>
<!ATTLIST feDropShadow
  xmlns:svg CDATA #FIXED "http://www.w3.org/Graphics/SVG/1.1/DTD/svg11.dtd"
  dx CDATA #IMPLIED>
<!ATTLIST feDropShadow
  xmlns:svg CDATA #FIXED "http://www.w3.org/Graphics/SVG/1.1/DTD/svg11.dtd"
  dy CDATA #IMPLIED>
<!ATTLIST feDropShadow
  xmlns:svg CDATA #FIXED "http://www.w3.org/Graphics/SVG/1.1/DTD/svg11.dtd"
  stdDeviation CDATA #IMPLIED>
<!ATTLIST feDropShadow
  xmlns:svg CDATA #FIXED "http://www.w3.org/Graphics/SVG/1.1/DTD/svg11.dtd"
  flood-opacity CDATA #IMPLIED>
<!ATTLIST feDropShadow
  xmlns:svg CDATA #FIXED "http://www.w3.org/Graphics/SVG/1.1/DTD/svg11.dtd"
  in CDATA #IMPLIED>
<!ATTLIST feDropShadow
  xmlns:svg CDATA #FIXED "http://www.w3.org/Graphics/SVG/1.1/DTD/svg11.dtd"
  result CDATA #IMPLIED>
<!ATTLIST feDropShadow
  xmlns:svg CDATA #FIXED "http://www.w3.org/Graphics/SVG/1.1/DTD/svg11.dtd"
  flood-color CDATA #IMPLIED>
]
>
<!-- Created with Vectornator (http://vectornator.io/) -->
<svg height="100%" stroke-miterlimit="10" style="fill-rule:nonzero;clip-rule:evenodd;stroke-linecap:round;stroke-linejoin:round;" version="1.1" viewBox="0 0 150 150" width="100%" xml:space="preserve" xmlns="http://www.w3.org/2000/svg" xmlns:vectornator="http://vectornator.io" xmlns:xlink="http://www.w3.org/1999/xlink">
<defs>
<clipPath id="TextBounds">
<rect height="100.613" width="122.906" x="9.22739" y="24.6937"/>
</clipPath>
</defs>
<g id="Layer-1" vectornator:layerName="Layer 1">
<path clip-path="url(#TextBounds)" d="M62.737 70.287L65.1282 70.287C65.8306 70.287 66.3237 70.1587 66.6074 69.902C66.8911 69.6453 67.0329 69.1657 67.0329 68.4633L67.0329 66.0722C67.0329 65.3697 66.8911 64.8834 66.6074 64.6132C66.3237 64.343 65.8306 64.2079 65.1282 64.2079L62.737 64.2079C62.0346 64.2079 61.5415 64.343 61.2578 64.6132C60.9741 64.8834 60.8323 65.3697 60.8323 66.0722L60.8323 68.4633C60.8323 69.1657 60.9741 69.6453 61.2578 69.902C61.5415 70.1587 62.0346 70.287 62.737 70.287ZM76.2326 70.287L78.5832 70.287C79.3127 70.287 79.8126 70.1587 80.0827 69.902C80.3529 69.6453 80.488 69.1657 80.488 68.4633L80.488 66.0722C80.488 65.3697 80.3529 64.8834 80.0827 64.6132C79.8126 64.343 79.3127 64.2079 78.5832 64.2079L76.2326 64.2079C75.5032 64.2079 75.0033 64.343 74.7331 64.6132C74.4629 64.8834 74.3279 65.3697 74.3279 66.0722L74.3279 68.4633C74.3279 69.1657 74.4629 69.6453 74.7331 69.902C75.0033 70.1587 75.5032 70.287 76.2326 70.287ZM89.6877 70.287L92.0788 70.287C92.7813 70.287 93.2676 70.1587 93.5378 69.902C93.808 69.6453 93.9431 69.1657 93.9431 68.4633L93.9431 66.0722C93.9431 65.3697 93.808 64.8834 93.5378 64.6132C93.2676 64.343 92.7813 64.2079 92.0788 64.2079L89.6877 64.2079C88.9582 64.2079 88.4584 64.343 88.1882 64.6132C87.918 64.8834 87.7829 65.3697 87.7829 66.0722L87.7829 68.4633C87.7829 69.1657 87.918 69.6453 88.1882 69.902C88.4584 70.1587 88.9582 70.287 89.6877 70.287ZM49.282 83.5394L51.6731 83.5394C52.3755 83.5394 52.8619 83.4111 53.1321 83.1544C53.4022 82.8978 53.5373 82.4182 53.5373 81.7157L53.5373 79.3246C53.5373 78.6221 53.4022 78.1426 53.1321 77.8859C52.8619 77.6292 52.3755 77.5009 51.6731 77.5009L49.282 77.5009C48.5525 77.5009 48.0526 77.6292 47.7824 77.8859C47.5123 78.1426 47.3772 78.6221 47.3772 79.3246L47.3772 81.7157C47.3772 82.4182 47.5123 82.8978 47.7824 83.1544C48.0526 83.4111 48.5525 83.5394 49.282 83.5394ZM62.737 83.5394L65.1282 83.5394C65.8306 83.5394 66.3237 83.4111 66.6074 83.1544C66.8911 82.8978 67.0329 82.4182 67.0329 81.7157L67.0329 79.3246C67.0329 78.6221 66.8911 78.1426 66.6074 77.8859C66.3237 77.6292 65.8306 77.5009 65.1282 77.5009L62.737 77.5009C62.0346 77.5009 61.5415 77.6292 61.2578 77.8859C60.9741 78.1426 60.8323 78.6221 60.8323 79.3246L60.8323 81.7157C60.8323 82.4182 60.9741 82.8978 61.2578 83.1544C61.5415 83.4111 62.0346 83.5394 62.737 83.5394ZM76.2326 83.5394L78.5832 83.5394C79.3127 83.5394 79.8126 83.4111 80.0827 83.1544C80.3529 82.8978 80.488 82.4182 80.488 81.7157L80.488 79.3246C80.488 78.6221 80.3529 78.1426 80.0827 77.8859C79.8126 77.6292 79.3127 77.5009 78.5832 77.5009L76.2326 77.5009C75.5032 77.5009 75.0033 77.6292 74.7331 77.8859C74.4629 78.1426 74.3279 78.6221 74.3279 79.3246L74.3279 81.7157C74.3279 82.4182 74.4629 82.8978 74.7331 83.1544C75.0033 83.4111 75.5032 83.5394 76.2326 83.5394ZM49.282 96.8324L51.6731 96.8324C52.3755 96.8324 52.8619 96.6973 53.1321 96.4271C53.4022 96.157 53.5373 95.6706 53.5373 94.9682L53.5373 92.577C53.5373 91.8746 53.4022 91.395 53.1321 91.1383C52.8619 90.8817 52.3755 90.7533 51.6731 90.7533L49.282 90.7533C48.5525 90.7533 48.0526 90.8817 47.7824 91.1383C47.5123 91.395 47.3772 91.8746 47.3772 92.577L47.3772 94.9682C47.3772 95.6706 47.5123 96.157 47.7824 96.4271C48.0526 96.6973 48.5525 96.8324 49.282 96.8324ZM62.737 96.8324L65.1282 96.8324C65.8306 96.8324 66.3237 96.6973 66.6074 96.4271C66.8911 96.157 67.0329 95.6706 67.0329 94.9682L67.0329 92.577C67.0329 91.8746 66.8911 91.395 66.6074 91.1383C66.3237 90.8817 65.8306 90.7533 65.1282 90.7533L62.737 90.7533C62.0346 90.7533 61.5415 90.8817 61.2578 91.1383C60.9741 91.395 60.8323 91.8746 60.8323 92.577L60.8323 94.9682C60.8323 95.6706 60.9741 96.157 61.2578 96.4271C61.5415 96.6973 62.0346 96.8324 62.737 96.8324ZM76.2326 96.8324L78.5832 96.8324C79.3127 96.8324 79.8126 96.6973 80.0827 96.4271C80.3529 96.157 80.488 95.6706 80.488 94.9682L80.488 92.577C80.488 91.8746 80.3529 91.395 80.0827 91.1383C79.8126 90.8817 79.3127 90.7533 78.5832 90.7533L76.2326 90.7533C75.5032 90.7533 75.0033 90.8817 74.7331 91.1383C74.4629 91.395 74.3279 91.8746 74.3279 92.577L74.3279 94.9682C74.3279 95.6706 74.4629 96.157 74.7331 96.4271C75.0033 96.6973 75.5032 96.8324 76.2326 96.8324ZM30.2746 99.2641C30.2746 103.452 31.3351 106.593 33.456 108.687C35.577 110.781 38.7584 111.828 43.0002 111.828L85.1892 111.828C84.5948 110.828 84.0747 109.781 83.6289 108.687C83.1831 107.592 82.8251 106.464 82.5549 105.303L42.3923 105.303C40.6091 105.303 39.2312 104.823 38.2585 103.864C37.2859 102.905 36.7995 101.493 36.7995 99.6288L36.7995 61.4115C36.7995 59.5473 37.2859 58.1356 38.2585 57.1764C39.2312 56.2173 40.6091 55.7377 42.3923 55.7377L98.8874 55.7377C100.698 55.7377 102.089 56.2173 103.062 57.1764C104.034 58.1356 104.521 59.5473 104.521 61.4115L104.521 72.9213C105.115 72.8672 105.683 72.82 106.223 72.7794C106.763 72.7389 107.304 72.7186 107.844 72.7186C108.384 72.7186 108.925 72.7322 109.465 72.7592C110.005 72.7862 110.532 72.8402 111.046 72.9213L111.046 49.7802C111.046 45.5923 109.992 42.4515 107.884 40.3576C105.777 38.2637 102.602 37.2167 98.3606 37.2167L43.0002 37.2167C38.7584 37.2167 35.577 38.2637 33.456 40.3576C31.3351 42.4515 30.2746 45.5923 30.2746 49.7802L30.2746 99.2641ZM107.844 119.447C110.627 119.447 113.261 118.906 115.747 117.826C118.232 116.745 120.428 115.259 122.332 113.368C124.237 111.476 125.73 109.288 126.811 106.802C127.891 104.316 128.432 101.669 128.432 98.8588C128.432 96.0219 127.898 93.3606 126.831 90.8749C125.764 88.3892 124.285 86.2007 122.393 84.3095C120.502 82.4182 118.314 80.9389 115.828 79.8717C113.342 78.8045 110.681 78.2709 107.844 78.2709C105.034 78.2709 102.386 78.8045 99.9006 79.8717C97.4149 80.9389 95.2265 82.4249 93.3352 84.3297C91.4439 86.2345 89.9579 88.423 88.8772 90.8952C87.7964 93.3673 87.2561 96.0219 87.2561 98.8588C87.2561 101.696 87.7964 104.357 88.8772 106.843C89.9579 109.328 91.4439 111.517 93.3352 113.408C95.2265 115.299 97.4149 116.779 99.9006 117.846C102.386 118.913 105.034 119.447 107.844 119.447ZM98.1985 102.02C97.496 102.02 96.9016 101.77 96.4153 101.27C95.9289 100.77 95.6858 100.183 95.6858 99.5072C95.6858 98.8318 95.9357 98.2509 96.4355 97.7645C96.9354 97.2782 97.523 97.0351 98.1985 97.0351L105.534 97.0351L105.534 86.8627C105.534 86.1872 105.777 85.6131 106.263 85.1403C106.75 84.6675 107.344 84.431 108.047 84.431C108.722 84.431 109.303 84.6675 109.789 85.1403C110.276 85.6131 110.519 86.1872 110.519 86.8627L110.519 99.5072C110.519 100.21 110.282 100.804 109.81 101.29C109.337 101.777 108.749 102.02 108.047 102.02L98.1985 102.02Z" fill="#245d7c" fill-rule="evenodd" opacity="1" stroke="none"/>
</g>
</svg>
