<?xml version="1.0" encoding="UTF-8" standalone="no"?>
<!DOCTYPE svg PUBLIC "-//W3C//DTD SVG 1.1//EN" "http://www.w3.org/Graphics/SVG/1.1/DTD/svg11.dtd">
<svg width="100%" height="100%" viewBox="0 0 285 285" version="1.1" xmlns="http://www.w3.org/2000/svg" xmlns:xlink="http://www.w3.org/1999/xlink" xml:space="preserve" xmlns:serif="http://www.serif.com/" style="fill-rule:evenodd;clip-rule:evenodd;stroke-linejoin:round;stroke-miterlimit:2;">
    <g transform="matrix(4.16667,0,0,4.16667,-203.751,-1351.94)">
        <g transform="matrix(1,0,0,1,80.4072,357.042)">
            <path d="M0,3.498C0,1.569 -1.569,0 -3.498,0C-5.426,0 -6.996,1.569 -6.996,3.498L-4.873,3.498C-4.873,2.74 -4.256,2.123 -3.498,2.123C-2.74,2.123 -2.123,2.74 -2.123,3.498L0,3.498Z" style="fill:rgb(0,163,172);fill-rule:nonzero;"/>
        </g>
        <g transform="matrix(1,0,0,1,89.0908,360.54)">
            <path d="M0,-3.498C-1.929,-3.498 -3.498,-1.929 -3.498,0L-1.375,0C-1.375,-0.759 -0.758,-1.375 0,-1.375C0.758,-1.375 1.375,-0.759 1.375,0L3.498,0C3.498,-1.929 1.928,-3.498 0,-3.498" style="fill:rgb(0,163,172);fill-rule:nonzero;"/>
        </g>
        <g transform="matrix(1,0,0,1,83,366.996)">
            <path d="M0,-0.245C-1.342,-0.245 -2.601,-0.965 -3.284,-2.123L-5.113,-1.044C-4.049,0.758 -2.09,1.878 0,1.878C2.09,1.878 4.049,0.758 5.112,-1.044L3.284,-2.123C2.601,-0.965 1.342,-0.245 0,-0.245" style="fill:rgb(0,163,172);fill-rule:nonzero;"/>
        </g>
        <g transform="matrix(1,0,0,1,96.4512,354.424)">
            <path d="M0,8.283L-0.797,8.298L-1.005,9.067C-2.52,14.671 -7.638,18.584 -13.451,18.584C-19.264,18.584 -24.382,14.671 -25.897,9.067L-26.105,8.298L-26.902,8.283C-28.304,8.257 -29.443,7.094 -29.443,5.691C-29.443,4.999 -29.174,4.347 -28.685,3.858C-28.208,3.382 -27.575,3.112 -26.902,3.099L-26.105,3.085L-25.897,2.315C-24.382,-3.288 -19.264,-7.201 -13.451,-7.201C-11.533,-7.201 -9.972,-5.641 -9.972,-3.722C-9.972,-1.804 -11.533,-0.242 -13.451,-0.242C-15.37,-0.242 -16.931,-1.804 -16.931,-3.722L-19.054,-3.722C-19.054,-0.633 -16.541,1.88 -13.451,1.88C-10.362,1.88 -7.849,-0.633 -7.849,-3.722C-7.849,-4.602 -8.053,-5.434 -8.416,-6.175C-4.855,-4.66 -2.059,-1.581 -1.005,2.315L-0.797,3.085L0,3.099C0.673,3.112 1.306,3.382 1.782,3.857C2.271,4.347 2.542,4.999 2.542,5.691C2.541,7.094 1.401,8.257 0,8.283M3.283,2.356C2.607,1.68 1.758,1.234 0.836,1.059C-1.154,-5.09 -6.927,-9.324 -13.451,-9.324L-14.163,-9.324C-15.872,-9.324 -17.262,-10.715 -17.262,-12.424L-19.385,-12.424C-19.385,-11.264 -19.005,-10.193 -18.363,-9.324L-19.035,-9.324C-20.744,-9.324 -22.135,-10.715 -22.135,-12.424L-24.258,-12.424C-24.258,-10.117 -22.754,-8.156 -20.676,-7.467C-23.962,-5.66 -26.539,-2.65 -27.739,1.059C-28.66,1.234 -29.509,1.68 -30.186,2.357C-31.076,3.248 -31.566,4.432 -31.566,5.691C-31.566,6.934 -31.086,8.108 -30.215,8.995C-29.535,9.688 -28.675,10.145 -27.739,10.323C-25.749,16.472 -19.976,20.707 -13.451,20.707C-6.927,20.707 -1.154,16.472 0.836,10.323C1.772,10.145 2.632,9.688 3.313,8.995C4.184,8.108 4.664,6.934 4.664,5.691C4.664,4.432 4.174,3.248 3.283,2.356" style="fill:rgb(0,163,172);fill-rule:nonzero;"/>
        </g>
    </g>
</svg>
