<?xml version="1.0" encoding="utf-8"?>
<!-- Generator: Adobe Illustrator 25.2.0, SVG Export Plug-In . SVG Version: 6.00 Build 0)  -->
<svg version="1.1" id="Layer_1" xmlns="http://www.w3.org/2000/svg" xmlns:xlink="http://www.w3.org/1999/xlink" x="0px" y="0px"
	 viewBox="0 0 36 36" style="enable-background:new 0 0 36 36;" xml:space="preserve">
<style type="text/css">
	.st0{fill:#255D7C;}
</style>
<g>
	<g id="cvbBd1_1_">
		<g>
			<g>
				<g>
					<path class="st0" d="M18.02,6.62c0.52,0.18,0.73,0.54,0.72,1.09c-0.02,1.06,0,2.12-0.01,3.18c0,0.47-0.35,0.84-0.8,0.89
						c-0.44,0.04-0.85-0.25-0.95-0.69c-0.02-0.1-0.02-0.21-0.02-0.31c0-1.02,0.01-2.04-0.01-3.07c-0.01-0.55,0.19-0.91,0.72-1.09
						C17.78,6.62,17.9,6.62,18.02,6.62z"/>
				</g>
				<g>
					<path class="st0" d="M24.46,24.21c0.59,0,1.15,0,1.71,0c0.66,0,1.01,0.35,1.01,1.02c0,1.04,0,2.09,0,3.13
						c0,0.65-0.35,1.01-1,1.01c-5.55,0-11.11,0-16.66,0c-0.65,0-1.01-0.35-1.01-1c0-1.06,0-2.12,0-3.18c0-0.62,0.36-0.98,0.98-0.98
						c0.56,0,1.11,0,1.67,0c0.01,0,0.03-0.01,0.07-0.02c0-0.08,0-0.16,0-0.25c0-1.28-0.02-2.56,0.01-3.84
						c0.03-1.87,0.71-3.49,2.1-4.76c1.85-1.69,4.03-2.23,6.43-1.5c2.39,0.73,3.9,2.39,4.51,4.82c0.13,0.52,0.17,1.08,0.18,1.63
						C24.48,21.59,24.46,22.88,24.46,24.21z M22.68,24.2c0-0.1,0-0.17,0-0.24c0-1.22,0.01-2.44,0-3.66c0-0.34-0.03-0.68-0.08-1.02
						c-0.42-2.55-3.03-4.36-5.56-3.88c-2.4,0.46-4.02,2.41-4.02,4.85c0,1.24,0,2.49,0,3.73c0,0.07,0,0.14,0,0.23
						C16.24,24.2,19.45,24.2,22.68,24.2z M10.3,27.57c5.04,0,10.06,0,15.08,0c0-0.54,0-1.06,0-1.57c-5.03,0-10.05,0-15.08,0
						C10.3,26.53,10.3,27.04,10.3,27.57z"/>
				</g>
				<g>
					<path class="st0" d="M23.9,13.25c-0.36,0-0.68-0.21-0.82-0.54c-0.15-0.37-0.07-0.7,0.2-0.98c0.62-0.63,1.24-1.25,1.87-1.87
						c0.17-0.17,0.33-0.34,0.5-0.5c0.37-0.35,0.91-0.36,1.26-0.02c0.35,0.35,0.37,0.89,0.01,1.25c-0.79,0.81-1.59,1.61-2.4,2.4
						c-0.15,0.15-0.39,0.21-0.59,0.31C23.92,13.29,23.91,13.27,23.9,13.25z"/>
				</g>
				<g>
					<path class="st0" d="M9.53,9.09c0.1,0.05,0.33,0.11,0.47,0.25c0.82,0.79,1.62,1.6,2.42,2.41c0.35,0.35,0.33,0.89-0.01,1.24
						c-0.33,0.34-0.89,0.36-1.24,0.02c-0.82-0.8-1.63-1.61-2.43-2.43C8.48,10.3,8.44,9.96,8.6,9.61C8.76,9.27,9.04,9.1,9.53,9.09z"
						/>
				</g>
			</g>
		</g>
	</g>
</g>
</svg>
