<?xml version="1.0" encoding="UTF-8" standalone="no"?>
<!DOCTYPE svg PUBLIC "-//W3C//DTD SVG 1.1//EN" "http://www.w3.org/Graphics/SVG/1.1/DTD/svg11.dtd">
<svg width="100%" height="100%" viewBox="0 0 285 285" version="1.1" xmlns="http://www.w3.org/2000/svg" xmlns:xlink="http://www.w3.org/1999/xlink" xml:space="preserve" xmlns:serif="http://www.serif.com/" style="fill-rule:evenodd;clip-rule:evenodd;stroke-linejoin:round;stroke-miterlimit:2;">
    <g transform="matrix(4.16667,0,0,4.16667,194.043,139.262)">
        <path d="M0,-0.196L-0.329,0.132C-0.366,0.091 -0.405,0.051 -0.444,0.011L-8.387,-7.931L-9.149,-7.17C-10.211,-6.107 -11.939,-6.107 -13.002,-7.17L-13.613,-7.781L-10.599,-10.795C-3.276,-17.535 6.738,-7.513 0,-0.196M-1.969,3.263C-2.424,3.737 -3.242,3.737 -3.696,3.263L-8.495,-1.536L-10.02,-0.01L-5.221,4.788C-4.745,5.264 -4.745,6.039 -5.221,6.515C-5.698,6.991 -6.472,6.991 -6.949,6.515L-11.748,1.716L-13.272,3.242L-8.474,8.04C-7.997,8.517 -7.997,9.291 -8.474,9.768C-8.95,10.243 -9.725,10.243 -10.201,9.768L-10.202,9.769C-11.078,8.921 -12.303,8.643 -13.409,8.932C-13.761,7.493 -15.207,6.404 -16.661,6.436C-16.732,4.887 -18.041,3.488 -19.588,3.321C-19.384,0.664 -22.302,-1.166 -24.604,0.143C-27.812,-2.721 -28.009,-7.751 -24.944,-10.795C-21.896,-13.864 -16.86,-13.661 -13.997,-10.447L-16.663,-7.781L-14.526,-5.644C-12.886,-4.004 -10.357,-3.777 -8.472,-4.967L-1.969,1.535C-1.493,2.012 -1.493,2.786 -1.969,3.263M-11.685,13.061L-12.606,13.982C-12.837,14.212 -13.144,14.339 -13.47,14.339C-13.796,14.339 -14.103,14.212 -14.334,13.982C-14.808,13.527 -14.808,12.709 -14.334,12.254L-13.413,11.333C-12.937,10.857 -12.162,10.857 -11.685,11.333C-11.211,11.787 -11.211,12.606 -11.685,13.061M-18.453,11.597C-18.927,11.142 -18.927,10.325 -18.453,9.869L-17.64,9.056C-17.167,8.493 -16.334,8.42 -15.805,8.948C-15.329,9.424 -15.329,10.199 -15.805,10.675L-16.726,11.597C-17.202,12.074 -17.977,12.074 -18.453,11.597M-22.172,7.589C-22.172,7.263 -22.044,6.956 -21.814,6.726L-20.892,5.804C-20.662,5.574 -20.355,5.447 -20.029,5.447C-18.947,5.445 -18.399,6.768 -19.165,7.532L-19.978,8.345C-20.227,8.626 -20.568,8.817 -20.95,8.811C-21.607,8.825 -22.185,8.246 -22.172,7.589M-24.741,3.149L-23.819,2.227C-23.582,1.989 -23.269,1.869 -22.956,1.869C-21.883,1.863 -21.323,3.189 -22.092,3.954L-23.014,4.875C-24.207,5.974 -25.839,4.341 -24.741,3.149M1.525,-12.32C-2.36,-16.227 -8.773,-16.033 -12.472,-11.971C-16.171,-16.033 -22.583,-16.227 -26.469,-12.32C-30.333,-8.472 -30.201,-2.136 -26.22,1.577C-28.257,3.523 -27.09,7.018 -24.318,7.359C-24.484,9.257 -22.868,10.997 -20.957,10.965C-20.84,13.055 -18.743,14.551 -16.732,13.998C-16.072,16.489 -12.901,17.339 -11.082,15.507C-10.048,14.48 -9.227,13.832 -9.174,12.277C-7.467,12.229 -5.99,10.732 -5.964,9.025C-4.24,8.998 -2.738,7.496 -2.711,5.773C-0.923,5.745 0.627,4.132 0.544,2.31L1.525,1.328C5.288,-2.434 5.288,-8.557 1.525,-12.32" style="fill:rgb(0,163,172);fill-rule:nonzero;"/>
    </g>
</svg>
