<?xml version="1.0" encoding="UTF-8"?>
<!-- Generator: visioncortex VTracer 0.6.3 -->
<svg version="1.1" xmlns="http://www.w3.org/2000/svg" width="1280" height="1280">
<path d="M0 0 C0.74 -0 1.48 -0 2.25 -0 C13.28 0.03 22.97 0.6 33.06 5.44 C34.21 5.97 35.36 6.5 36.54 7.05 C43.77 10.67 50.04 15.07 56.06 20.44 C56.81 21.09 57.56 21.74 58.33 22.42 C67.4 30.87 74.78 41.58 78.44 53.46 C78.89 55.42 78.89 55.42 80.06 56.44 C80.4 58.77 80.73 61.1 81.06 63.44 C81.39 63.77 81.72 64.1 82.06 64.44 C82.16 67.02 82.2 69.57 82.2 72.16 C82.2 72.93 82.2 73.7 82.2 74.5 C82.2 76.14 82.2 77.77 82.19 79.41 C82.19 81.93 82.19 84.44 82.2 86.96 C82.2 88.54 82.2 90.13 82.2 91.72 C82.2 92.85 82.2 92.85 82.2 94.01 C82.18 99.32 82.18 99.32 81.06 100.44 C80.96 101.45 80.86 102.46 80.75 103.5 C80.06 107.44 78.95 110.02 77.09 113.48 C75.93 115.61 75.93 115.61 74.81 118.69 C72.45 124.35 68.8 129.6 65.06 134.44 C64.4 134.44 63.74 134.44 63.06 134.44 C62.81 135.01 62.56 135.59 62.31 136.18 C60.88 138.76 59.25 140.46 57.14 142.52 C55.97 143.67 55.97 143.67 54.78 144.85 C53.56 146.04 53.56 146.04 52.31 147.25 C47.44 152.01 42.69 156.76 38.32 161.99 C36.73 163.82 35 165.35 33.12 166.88 C30.34 169.23 27.92 171.65 25.56 174.44 C22.6 177.93 19.4 180.89 15.91 183.85 C13.5 185.92 11.28 188.16 9.06 190.44 C8.28 191.2 7.49 191.96 6.69 192.75 C4.6 194.88 2.68 197.04 0.75 199.31 C-2.29 202.83 -5.56 205.84 -9.09 208.85 C-11.5 210.92 -13.72 213.16 -15.94 215.44 C-235.94 435.44 -235.94 435.44 -238.62 438.06 C-241.05 440.41 -241.05 440.41 -242.94 443.44 C-246.5 444.62 -249.71 444.57 -253.42 444.55 C-254.57 444.55 -254.57 444.55 -255.76 444.55 C-258.36 444.55 -260.97 444.54 -263.58 444.54 C-265.46 444.53 -267.34 444.53 -269.22 444.53 C-273.32 444.53 -277.42 444.52 -281.52 444.51 C-288.19 444.5 -294.86 444.49 -301.53 444.49 C-308.71 444.48 -315.89 444.47 -323.07 444.46 C-340.88 444.44 -358.69 444.43 -376.5 444.44 C-378.43 444.44 -378.43 444.44 -380.4 444.44 C-390.33 444.44 -400.25 444.44 -410.18 444.44 C-420.41 444.44 -430.64 444.45 -440.87 444.45 C-441.55 444.45 -442.23 444.45 -442.93 444.45 C-465 444.45 -487.08 444.42 -509.16 444.38 C-532.49 444.34 -555.83 444.34 -579.17 444.36 C-593.15 444.38 -607.12 444.37 -621.1 444.32 C-630.68 444.29 -640.26 444.29 -649.84 444.32 C-655.37 444.34 -660.9 444.34 -666.43 444.3 C-671.49 444.27 -676.55 444.27 -681.61 444.31 C-683.44 444.32 -685.27 444.31 -687.1 444.29 C-699 444.02 -699 444.02 -708.97 450.01 C-709.71 450.83 -710.45 451.66 -711.21 452.51 C-711.78 453.14 -712.35 453.78 -712.94 454.44 C-713.6 454.44 -714.26 454.44 -714.94 454.44 C-714.94 455.1 -714.94 455.76 -714.94 456.44 C-715.6 456.44 -716.26 456.44 -716.94 456.44 C-717.27 457.43 -717.6 458.42 -717.94 459.44 C-718.6 459.44 -719.26 459.44 -719.94 459.44 C-719.94 460.1 -719.94 460.76 -719.94 461.44 C-721.64 462.95 -723.4 464.4 -725.19 465.81 C-727.99 468.03 -730.67 470.17 -733.17 472.73 C-734.94 474.44 -734.94 474.44 -736.94 474.44 C-736.94 475.1 -736.94 475.76 -736.94 476.44 C-738.58 478.06 -738.58 478.06 -740.75 479.88 C-743.76 482.41 -743.76 482.41 -746.57 485.16 C-747.94 486.44 -747.94 486.44 -749.94 486.44 C-749.94 487.1 -749.94 487.76 -749.94 488.44 C-752.44 490.96 -755.22 493.16 -757.94 495.44 C-759.27 496.67 -759.27 496.67 -760.62 497.94 C-762.94 499.44 -762.94 499.44 -765.38 499.62 C-769.19 497.86 -771.61 494.9 -773.94 491.44 C-773.94 490.78 -773.94 490.12 -773.94 489.44 C-774.6 489.44 -775.26 489.44 -775.94 489.44 C-780.94 483.96 -780.94 483.96 -780.94 481.44 C-781.6 481.44 -782.26 481.44 -782.94 481.44 C-784.45 479.93 -784.45 479.93 -786.19 477.88 C-786.8 477.15 -787.42 476.42 -788.05 475.68 C-788.67 474.94 -789.3 474.2 -789.94 473.44 C-790.53 472.77 -791.12 472.1 -791.73 471.42 C-792.27 470.81 -792.82 470.19 -793.38 469.56 C-793.87 469.01 -794.36 468.45 -794.87 467.88 C-795.94 466.44 -795.94 466.44 -795.94 464.44 C-796.93 464.11 -797.92 463.78 -798.94 463.44 C-798.94 462.78 -798.94 462.12 -798.94 461.44 C-799.6 461.44 -800.26 461.44 -800.94 461.44 C-802.5 459.74 -803.99 457.98 -805.44 456.19 C-806.23 455.21 -807.03 454.24 -807.84 453.23 C-809.52 450.99 -810.82 448.99 -811.94 446.44 C-812.6 446.44 -813.26 446.44 -813.94 446.44 C-815.66 444.76 -815.66 444.76 -817.56 442.56 C-818.19 441.84 -818.83 441.12 -819.48 440.38 C-820.94 438.44 -820.94 438.44 -820.94 436.44 C-821.6 436.44 -822.26 436.44 -822.94 436.44 C-824.5 434.74 -825.99 432.98 -827.44 431.19 C-828.23 430.21 -829.03 429.24 -829.84 428.23 C-831.52 425.99 -832.82 423.99 -833.94 421.44 C-834.6 421.44 -835.26 421.44 -835.94 421.44 C-837.45 419.74 -838.9 417.98 -840.31 416.19 C-842.53 413.38 -844.67 410.7 -847.23 408.2 C-848.94 406.44 -848.94 406.44 -848.94 404.44 C-849.6 404.44 -850.26 404.44 -850.94 404.44 C-855.94 398.96 -855.94 398.96 -855.94 396.44 C-856.6 396.44 -857.26 396.44 -857.94 396.44 C-859.5 394.74 -860.99 392.98 -862.44 391.19 C-863.23 390.21 -864.03 389.24 -864.84 388.23 C-866.52 385.99 -867.82 383.99 -868.94 381.44 C-869.6 381.44 -870.26 381.44 -870.94 381.44 C-870.94 380.78 -870.94 380.12 -870.94 379.44 C-871.6 379.44 -872.26 379.44 -872.94 379.44 C-874.42 378 -874.42 378 -876.12 376 C-876.74 375.27 -877.36 374.55 -878 373.8 C-880.49 370.76 -882.9 367.66 -885.26 364.52 C-886.94 362.35 -886.94 362.35 -889.14 360.3 C-890.94 358.44 -890.94 358.44 -890.94 356.44 C-891.93 356.11 -892.92 355.78 -893.94 355.44 C-893.94 354.78 -893.94 354.12 -893.94 353.44 C-894.6 353.44 -895.26 353.44 -895.94 353.44 C-897.45 351.74 -898.9 349.98 -900.31 348.19 C-902.53 345.38 -904.67 342.7 -907.23 340.2 C-908.94 338.44 -908.94 338.44 -908.94 336.44 C-909.6 336.44 -910.26 336.44 -910.94 336.44 C-912.45 334.74 -913.9 332.98 -915.31 331.19 C-917.53 328.38 -919.67 325.7 -922.23 323.2 C-923.94 321.44 -923.94 321.44 -923.94 319.44 C-924.6 319.44 -925.26 319.44 -925.94 319.44 C-930.94 313.96 -930.94 313.96 -930.94 311.44 C-931.6 311.44 -932.26 311.44 -932.94 311.44 C-934.5 309.74 -935.99 307.98 -937.44 306.19 C-938.23 305.21 -939.03 304.24 -939.84 303.23 C-941.52 300.99 -942.82 298.99 -943.94 296.44 C-944.6 296.44 -945.26 296.44 -945.94 296.44 C-945.94 295.78 -945.94 295.12 -945.94 294.44 C-946.6 294.44 -947.26 294.44 -947.94 294.44 C-949.28 293.14 -949.28 293.14 -950.88 291.25 C-951.48 290.53 -952.09 289.81 -952.72 289.07 C-953.45 288.2 -954.18 287.33 -954.94 286.44 C-955.91 285.32 -956.87 284.2 -957.84 283.08 C-958.85 281.91 -959.86 280.74 -960.88 279.56 C-961.37 278.99 -961.87 278.42 -962.38 277.83 C-965.94 273.67 -965.94 273.67 -965.94 271.44 C-966.93 271.11 -967.92 270.78 -968.94 270.44 C-968.94 269.78 -968.94 269.12 -968.94 268.44 C-969.6 268.44 -970.26 268.44 -970.94 268.44 C-972.52 266.72 -974.03 264.94 -975.5 263.12 C-976.31 262.14 -977.11 261.15 -977.94 260.14 C-979.94 257.44 -979.94 257.44 -980.94 254.44 C-981.93 254.11 -982.92 253.78 -983.94 253.44 C-983.94 252.78 -983.94 252.12 -983.94 251.44 C-984.6 251.44 -985.26 251.44 -985.94 251.44 C-990.94 245.96 -990.94 245.96 -990.94 243.44 C-991.6 243.44 -992.26 243.44 -992.94 243.44 C-993.27 242.12 -993.6 240.8 -993.94 239.44 C-992.65 238.26 -991.36 237.1 -990.06 235.94 C-988.98 234.96 -988.98 234.96 -987.88 233.97 C-985.94 232.44 -985.94 232.44 -983.94 232.44 C-983.94 231.78 -983.94 231.12 -983.94 230.44 C-982.2 228.99 -980.4 227.63 -978.56 226.31 C-977.07 225.23 -977.07 225.23 -975.54 224.12 C-972.94 222.44 -972.94 222.44 -970.94 222.44 C-970.94 221.78 -970.94 221.12 -970.94 220.44 C-969.29 218.96 -969.29 218.96 -967 217.25 C-966.27 216.7 -965.54 216.15 -964.79 215.58 C-963.38 214.52 -963.38 214.52 -961.94 213.44 C-957.33 209.88 -952.76 206.3 -948.19 202.69 C-946.63 201.46 -945.06 200.23 -943.5 199 C-942.7 198.36 -941.9 197.73 -941.07 197.07 C-940.31 196.47 -939.54 195.87 -938.75 195.25 C-938.07 194.71 -937.38 194.17 -936.67 193.61 C-934.94 192.44 -934.94 192.44 -932.94 192.44 C-932.94 191.78 -932.94 191.12 -932.94 190.44 C-931.34 189.14 -929.68 187.93 -928 186.75 C-923.45 183.53 -919.05 180.2 -914.71 176.69 C-912.94 175.44 -912.94 175.44 -910.94 175.44 C-910.94 174.78 -910.94 174.12 -910.94 173.44 C-909.26 171.93 -909.26 171.93 -907.06 170.31 C-906.34 169.77 -905.62 169.23 -904.88 168.68 C-902.94 167.44 -902.94 167.44 -900.94 167.44 C-900.94 166.78 -900.94 166.12 -900.94 165.44 C-899.34 164.14 -897.68 162.93 -896 161.75 C-891.45 158.53 -887.05 155.2 -882.71 151.69 C-880.94 150.44 -880.94 150.44 -878.94 150.44 C-878.94 149.78 -878.94 149.12 -878.94 148.44 C-877.26 146.93 -877.26 146.93 -875.06 145.31 C-874.34 144.77 -873.62 144.23 -872.88 143.68 C-870.94 142.44 -870.94 142.44 -868.94 142.44 C-868.94 141.78 -868.94 141.12 -868.94 140.44 C-867.2 138.99 -865.4 137.63 -863.56 136.31 C-862.56 135.59 -861.57 134.86 -860.54 134.12 C-857.94 132.44 -857.94 132.44 -855.94 132.44 C-855.94 131.78 -855.94 131.12 -855.94 130.44 C-854.11 128.82 -854.11 128.82 -851.69 127 C-850.9 126.4 -850.11 125.81 -849.3 125.19 C-848.52 124.61 -847.74 124.03 -846.94 123.44 C-846.22 122.87 -845.5 122.3 -844.77 121.71 C-842.94 120.44 -842.94 120.44 -840.94 120.44 C-840.94 119.78 -840.94 119.12 -840.94 118.44 C-837.96 116.95 -834.93 117.3 -831.67 117.3 C-830.53 117.3 -830.53 117.3 -829.36 117.3 C-826.79 117.29 -824.21 117.29 -821.63 117.29 C-819.78 117.29 -817.92 117.28 -816.06 117.28 C-810.94 117.27 -805.82 117.27 -800.7 117.26 C-795.18 117.26 -789.66 117.25 -784.15 117.24 C-770.81 117.22 -757.48 117.21 -744.14 117.2 C-737.86 117.2 -731.58 117.19 -725.31 117.19 C-704.44 117.17 -683.57 117.16 -662.7 117.15 C-661.35 117.15 -660 117.15 -658.65 117.15 C-657.98 117.15 -657.31 117.15 -656.62 117.15 C-653.23 117.14 -649.83 117.14 -646.44 117.14 C-645.77 117.14 -645.09 117.14 -644.4 117.14 C-622.59 117.13 -600.78 117.11 -578.97 117.08 C-555.9 117.04 -532.84 117.02 -509.78 117.02 C-497.21 117.02 -484.64 117.01 -472.07 116.98 C-461.36 116.96 -450.65 116.95 -439.94 116.96 C-434.48 116.97 -429.02 116.97 -423.55 116.95 C-418.55 116.93 -413.54 116.93 -408.53 116.95 C-406.73 116.95 -404.92 116.94 -403.12 116.93 C-381.52 116.8 -360.98 123.27 -344.94 138.44 C-344.94 139.1 -344.94 139.76 -344.94 140.44 C-344.28 140.44 -343.62 140.44 -342.94 140.44 C-340.06 143.6 -337.53 147.04 -334.94 150.44 C-334.46 151.04 -333.97 151.65 -333.48 152.27 C-322.99 165.97 -317.99 186.39 -320.19 203.41 C-320.52 205.65 -320.87 207.89 -321.25 210.12 C-321.37 210.84 -321.49 211.55 -321.61 212.29 C-322.46 217.01 -323.92 221.05 -325.94 225.44 C-326.57 227.08 -327.19 228.73 -327.81 230.38 C-329.65 235 -331.76 239.57 -334.94 243.44 C-335.6 243.44 -336.26 243.44 -336.94 243.44 C-337.25 244.06 -337.56 244.67 -337.88 245.31 C-338.56 246.69 -339.25 248.06 -339.94 249.44 C-340.6 249.44 -341.26 249.44 -341.94 249.44 C-342.21 250.08 -342.47 250.72 -342.75 251.38 C-343.94 253.44 -343.94 253.44 -346.94 254.44 C-346.94 255.1 -346.94 255.76 -346.94 256.44 C-362.47 269.98 -381.25 276.8 -401.67 276.68 C-403.22 276.68 -403.22 276.68 -404.8 276.68 C-408.24 276.69 -411.68 276.68 -415.11 276.66 C-417.59 276.66 -420.06 276.66 -422.54 276.67 C-427.85 276.67 -433.16 276.66 -438.48 276.65 C-446.16 276.63 -453.85 276.63 -461.53 276.62 C-474 276.62 -486.46 276.61 -498.93 276.59 C-511.04 276.57 -523.14 276.56 -535.25 276.55 C-536 276.55 -536.74 276.55 -537.51 276.55 C-541.26 276.54 -545.01 276.54 -548.76 276.54 C-579.82 276.52 -610.88 276.48 -641.94 276.44 C-641.94 300.2 -641.94 323.96 -641.94 348.44 C-608.66 348.38 -575.39 348.3 -542.11 348.21 C-538.18 348.2 -534.24 348.19 -530.3 348.18 C-529.51 348.17 -528.73 348.17 -527.92 348.17 C-515.27 348.13 -502.61 348.11 -489.96 348.09 C-476.95 348.07 -463.95 348.03 -450.94 347.99 C-442.93 347.96 -434.92 347.94 -426.91 347.94 C-420.74 347.93 -414.57 347.91 -408.4 347.88 C-405.89 347.87 -403.38 347.87 -400.87 347.87 C-374.79 347.89 -351.53 345.09 -327.94 333.44 C-327.27 333.13 -326.6 332.83 -325.92 332.52 C-297.2 319.12 -270.44 291.2 -259.5 261.38 C-258.97 259.73 -258.45 258.09 -257.94 256.44 C-257.43 255.08 -256.91 253.73 -256.38 252.38 C-252.19 241.19 -249.88 230.1 -249.38 218.16 C-248.67 213.76 -246.36 210.27 -242.94 207.44 C-242.28 207.44 -241.62 207.44 -240.94 207.44 C-240.94 206.78 -240.94 206.12 -240.94 205.44 C-240.28 205.44 -239.62 205.44 -238.94 205.44 C-238.61 204.45 -238.28 203.46 -237.94 202.44 C-237.28 202.44 -236.62 202.44 -235.94 202.44 C-235.94 201.78 -235.94 201.12 -235.94 200.44 C-235.28 200.44 -234.62 200.44 -233.94 200.44 C-233.61 199.45 -233.28 198.46 -232.94 197.44 C-232.28 197.44 -231.62 197.44 -230.94 197.44 C-230.94 196.78 -230.94 196.12 -230.94 195.44 C-230.28 195.44 -229.62 195.44 -228.94 195.44 C-228.61 194.45 -228.28 193.46 -227.94 192.44 C-227.28 192.44 -226.62 192.44 -225.94 192.44 C-225.94 191.78 -225.94 191.12 -225.94 190.44 C-225.28 190.44 -224.62 190.44 -223.94 190.44 C-223.61 189.45 -223.28 188.46 -222.94 187.44 C-222.28 187.44 -221.62 187.44 -220.94 187.44 C-220.94 186.78 -220.94 186.12 -220.94 185.44 C-220.28 185.44 -219.62 185.44 -218.94 185.44 C-218.61 184.45 -218.28 183.46 -217.94 182.44 C-217.28 182.44 -216.62 182.44 -215.94 182.44 C-215.94 181.78 -215.94 181.12 -215.94 180.44 C-215.28 180.44 -214.62 180.44 -213.94 180.44 C-213.61 179.45 -213.28 178.46 -212.94 177.44 C-212.28 177.44 -211.62 177.44 -210.94 177.44 C-210.94 176.78 -210.94 176.12 -210.94 175.44 C-210.28 175.44 -209.62 175.44 -208.94 175.44 C-208.61 174.45 -208.28 173.46 -207.94 172.44 C-207.28 172.44 -206.62 172.44 -205.94 172.44 C-205.94 171.78 -205.94 171.12 -205.94 170.44 C-205.28 170.44 -204.62 170.44 -203.94 170.44 C-203.61 169.45 -203.28 168.46 -202.94 167.44 C-202.28 167.44 -201.62 167.44 -200.94 167.44 C-200.94 166.78 -200.94 166.12 -200.94 165.44 C-200.28 165.44 -199.62 165.44 -198.94 165.44 C-198.61 164.45 -198.28 163.46 -197.94 162.44 C-197.28 162.44 -196.62 162.44 -195.94 162.44 C-195.94 161.78 -195.94 161.12 -195.94 160.44 C-195.28 160.44 -194.62 160.44 -193.94 160.44 C-193.61 159.45 -193.28 158.46 -192.94 157.44 C-192.28 157.44 -191.62 157.44 -190.94 157.44 C-190.94 156.78 -190.94 156.12 -190.94 155.44 C-190.28 155.44 -189.62 155.44 -188.94 155.44 C-188.61 154.45 -188.28 153.46 -187.94 152.44 C-187.28 152.44 -186.62 152.44 -185.94 152.44 C-185.94 151.78 -185.94 151.12 -185.94 150.44 C-185.28 150.44 -184.62 150.44 -183.94 150.44 C-183.61 149.45 -183.28 148.46 -182.94 147.44 C-182.28 147.44 -181.62 147.44 -180.94 147.44 C-180.94 146.78 -180.94 146.12 -180.94 145.44 C-180.28 145.44 -179.62 145.44 -178.94 145.44 C-178.61 144.45 -178.28 143.46 -177.94 142.44 C-177.28 142.44 -176.62 142.44 -175.94 142.44 C-175.94 141.78 -175.94 141.12 -175.94 140.44 C-175.28 140.44 -174.62 140.44 -173.94 140.44 C-173.61 139.45 -173.28 138.46 -172.94 137.44 C-172.28 137.44 -171.62 137.44 -170.94 137.44 C-170.94 136.78 -170.94 136.12 -170.94 135.44 C-169.36 133.89 -169.36 133.89 -167.25 132.12 C-163.99 129.35 -160.92 126.5 -157.94 123.44 C-147.94 113.44 -147.94 113.44 -145.79 111.3 C-142.1 107.6 -138.41 103.9 -134.73 100.19 C-126.42 91.86 -118.11 83.52 -109.8 75.19 C-104.77 70.16 -99.75 65.12 -94.73 60.08 C-90.34 55.67 -85.94 51.26 -81.54 46.85 C-79.22 44.53 -76.9 42.2 -74.58 39.87 C-71.99 37.27 -69.4 34.67 -66.8 32.07 C-65.67 30.93 -65.67 30.93 -64.52 29.77 C-50.13 15.44 -50.13 15.44 -45.94 15.44 C-45.94 14.78 -45.94 14.12 -45.94 13.44 C-30.76 4.74 -17.52 -0.01 0 0 Z " fill="#000000" transform="translate(1197.9375,506.5625)"/>
<path d="M0 0 C1.93 -0.02 1.93 -0.02 3.9 -0.04 C5.32 -0.05 6.73 -0.05 8.14 -0.06 C8.85 -0.07 9.56 -0.07 10.3 -0.07 C14.05 -0.09 17.81 -0.11 21.57 -0.12 C25.45 -0.13 29.34 -0.16 33.22 -0.2 C36.21 -0.23 39.19 -0.24 42.18 -0.24 C43.61 -0.25 45.04 -0.26 46.47 -0.28 C48.47 -0.3 50.48 -0.3 52.48 -0.29 C54.19 -0.3 54.19 -0.3 55.93 -0.31 C59.51 0.28 60.64 1.38 62.87 4.18 C63.96 6.15 63.96 6.15 64.81 8.24 C65.14 9.03 65.47 9.83 65.82 10.65 C66.17 11.48 66.51 12.32 66.87 13.18 C69.7 19.63 72.75 25.95 75.93 32.24 C78.47 37.25 80.75 42.24 82.75 47.49 C84.57 51.84 86.74 56.01 88.87 60.21 C91.7 65.8 94.33 71.46 96.87 77.18 C97.7 79.01 98.53 80.84 99.37 82.68 C100.59 85.36 101.81 88.05 103.01 90.75 C105.51 96.33 108.17 101.79 110.93 107.24 C113.47 112.25 115.75 117.24 117.75 122.49 C119.57 126.84 121.74 131.01 123.87 135.21 C126.7 140.8 129.33 146.45 131.87 152.18 C132.74 154.12 133.62 156.05 134.49 157.99 C134.9 158.89 135.31 159.8 135.73 160.73 C136.66 162.72 137.66 164.67 138.68 166.61 C139.87 169.18 139.87 169.18 139.87 173.18 C140.53 172.85 141.19 172.52 141.87 172.18 C142.2 115.75 142.53 59.32 142.87 1.18 C145.82 -0.3 148.47 0.05 151.77 0.05 C152.83 0.04 152.83 0.04 153.91 0.04 C156.26 0.04 158.61 0.04 160.96 0.04 C162.59 0.04 164.22 0.04 165.85 0.04 C169.27 0.04 172.68 0.04 176.1 0.05 C180.48 0.05 184.87 0.05 189.25 0.04 C192.62 0.04 195.98 0.04 199.35 0.04 C200.97 0.04 202.58 0.04 204.2 0.04 C206.46 0.04 208.72 0.04 210.97 0.05 C212.9 0.05 212.9 0.05 214.87 0.05 C217.87 0.18 217.87 0.18 219.87 1.18 C219.92 49.04 219.95 96.91 219.97 144.78 C219.97 150.42 219.98 156.07 219.98 161.71 C219.98 162.84 219.98 163.96 219.98 165.12 C219.99 183.34 220.01 201.56 220.02 219.78 C220.04 238.47 220.05 257.15 220.06 275.83 C220.06 287.37 220.07 298.91 220.09 310.45 C220.1 318.35 220.1 326.25 220.1 334.15 C220.1 338.72 220.1 343.28 220.11 347.85 C220.12 352.02 220.12 356.19 220.11 360.37 C220.11 361.88 220.11 363.4 220.12 364.91 C220.13 366.96 220.12 369.01 220.12 371.06 C220.12 372.2 220.12 373.34 220.12 374.52 C219.87 377.18 219.87 377.18 217.87 379.18 C215.19 379.45 215.19 379.45 211.74 379.48 C210.45 379.5 209.16 379.52 207.84 379.53 C206.42 379.54 205.01 379.54 203.6 379.55 C202.15 379.56 200.71 379.57 199.26 379.58 C196.23 379.59 193.2 379.6 190.17 379.6 C186.28 379.61 182.4 379.65 178.52 379.69 C175.53 379.72 172.55 379.73 169.56 379.73 C168.13 379.73 166.7 379.75 165.27 379.77 C163.27 379.79 161.26 379.79 159.26 379.78 C157.55 379.78 157.55 379.78 155.8 379.79 C152.87 379.18 152.87 379.18 150.58 376.83 C147.76 372.46 145.87 369.47 145.87 364.18 C145.21 364.18 144.55 364.18 143.87 364.18 C143.66 363.63 143.45 363.08 143.24 362.52 C140.42 355.27 137.17 348.25 133.84 341.23 C132.52 338.43 131.2 335.63 129.88 332.82 C129.21 331.39 128.53 329.96 127.85 328.52 C126.24 325.11 124.64 321.69 123.05 318.26 C122.47 317 121.89 315.75 121.31 314.49 C121.03 313.88 120.75 313.28 120.46 312.65 C118.99 309.49 117.47 306.37 115.88 303.27 C115.55 302.64 115.23 302 114.89 301.35 C113.99 299.6 113.07 297.85 112.15 296.1 C110.87 293.18 110.87 293.18 110.87 289.18 C110.21 289.18 109.55 289.18 108.87 289.18 C108.66 288.63 108.45 288.08 108.24 287.52 C105.42 280.27 102.17 273.25 98.84 266.23 C97.52 263.43 96.2 260.63 94.88 257.82 C94.21 256.39 93.53 254.96 92.85 253.52 C91.24 250.11 89.64 246.69 88.05 243.26 C87.47 242 86.89 240.75 86.31 239.49 C86.03 238.88 85.75 238.28 85.46 237.65 C83.99 234.49 82.47 231.37 80.88 228.27 C80.55 227.64 80.23 227 79.89 226.35 C78.99 224.6 78.07 222.85 77.15 221.1 C75.87 218.18 75.87 218.18 75.87 214.18 C75.21 214.18 74.55 214.18 73.87 214.18 C72.88 211.87 71.89 209.56 70.87 207.18 C70.87 208.05 70.86 208.91 70.86 209.81 C70.8 230.91 70.73 252.02 70.63 273.13 C70.59 283.33 70.55 293.54 70.52 303.75 C70.5 312.64 70.47 321.53 70.42 330.43 C70.4 335.14 70.38 339.85 70.37 344.56 C70.37 348.99 70.35 353.42 70.32 357.86 C70.31 359.48 70.3 361.11 70.3 362.74 C70.31 364.96 70.29 367.18 70.27 369.4 C70.26 370.64 70.26 371.89 70.25 373.17 C69.87 376.18 69.87 376.18 68.54 378.08 C65.77 379.9 63.12 379.55 59.86 379.55 C59.15 379.55 58.44 379.56 57.71 379.56 C55.37 379.57 53.02 379.55 50.68 379.54 C49.05 379.54 47.42 379.54 45.8 379.54 C42.38 379.54 38.97 379.53 35.56 379.51 C31.19 379.49 26.81 379.49 22.43 379.5 C19.07 379.5 15.71 379.49 12.35 379.48 C10.74 379.48 9.12 379.48 7.51 379.48 C5.26 379.48 3 379.47 0.75 379.45 C-0.53 379.45 -1.82 379.44 -3.14 379.44 C-6.13 379.18 -6.13 379.18 -8.13 377.18 C-8.38 374.52 -8.38 374.52 -8.38 371.06 C-8.38 369.75 -8.38 368.43 -8.39 367.08 C-8.38 365.61 -8.38 364.13 -8.37 362.66 C-8.37 361.11 -8.37 359.56 -8.38 358 C-8.38 353.72 -8.37 349.44 -8.36 345.16 C-8.35 340.54 -8.36 335.93 -8.36 331.32 C-8.36 323.32 -8.35 315.33 -8.34 307.33 C-8.33 295.77 -8.32 284.21 -8.32 272.65 C-8.31 253.89 -8.3 235.14 -8.28 216.38 C-8.26 198.16 -8.25 179.93 -8.24 161.71 C-8.24 160.59 -8.24 159.47 -8.24 158.31 C-8.24 152.68 -8.23 147.05 -8.23 141.42 C-8.21 94.67 -8.18 47.92 -8.13 1.18 C-5.36 -0.21 -3.1 0.03 0 0 Z " fill="#000000" transform="translate(308.13037109375,98.822998046875)"/>
<path d="M0 0 C2.42 0.95 3.66 1.81 5.22 3.87 C5.22 4.53 5.22 5.19 5.22 5.87 C5.88 5.87 6.54 5.87 7.22 5.87 C12.22 11.35 12.22 11.35 12.22 13.87 C13.21 14.2 14.2 14.53 15.22 14.87 C15.22 15.53 15.22 16.19 15.22 16.87 C15.88 16.87 16.54 16.87 17.22 16.87 C18.81 18.58 20.32 20.37 21.79 22.18 C22.59 23.17 23.4 24.16 24.23 25.17 C26.22 27.87 26.22 27.87 27.22 30.87 C28.21 31.2 29.2 31.53 30.22 31.87 C30.22 32.53 30.22 33.19 30.22 33.87 C30.88 33.87 31.54 33.87 32.22 33.87 C37.22 39.35 37.22 39.35 37.22 41.87 C37.88 41.87 38.54 41.87 39.22 41.87 C40.73 43.33 40.73 43.33 42.35 45.25 C42.89 45.87 43.43 46.5 43.98 47.14 C45.22 48.87 45.22 48.87 45.22 50.87 C45.88 50.87 46.54 50.87 47.22 50.87 C52.22 56.35 52.22 56.35 52.22 58.87 C52.88 58.87 53.54 58.87 54.22 58.87 C55.79 60.56 57.28 62.33 58.72 64.12 C59.91 65.58 59.91 65.58 61.13 67.07 C62.81 69.32 64.1 71.32 65.22 73.87 C65.88 73.87 66.54 73.87 67.22 73.87 C68.74 75.38 68.74 75.38 70.47 77.43 C71.09 78.16 71.7 78.89 72.34 79.63 C73.27 80.74 73.27 80.74 74.22 81.87 C74.81 82.54 75.41 83.2 76.02 83.89 C76.56 84.5 77.1 85.12 77.66 85.75 C78.15 86.3 78.65 86.85 79.16 87.43 C80.22 88.87 80.22 88.87 80.22 90.87 C80.88 90.87 81.54 90.87 82.22 90.87 C87.22 96.35 87.22 96.35 87.22 98.87 C88.21 99.2 89.2 99.53 90.22 99.87 C90.22 100.53 90.22 101.19 90.22 101.87 C90.88 101.87 91.54 101.87 92.22 101.87 C93.81 103.58 95.32 105.37 96.79 107.18 C97.99 108.66 97.99 108.66 99.23 110.17 C101.22 112.87 101.22 112.87 102.22 115.87 C103.21 116.2 104.2 116.53 105.22 116.87 C105.22 117.53 105.22 118.19 105.22 118.87 C105.88 118.87 106.54 118.87 107.22 118.87 C112.22 124.35 112.22 124.35 112.22 126.87 C112.88 126.87 113.54 126.87 114.22 126.87 C115.74 128.57 117.19 130.33 118.6 132.12 C120.81 134.92 122.95 137.61 125.51 140.11 C127.22 141.87 127.22 141.87 127.22 143.87 C127.88 143.87 128.54 143.87 129.22 143.87 C130.79 145.56 132.28 147.33 133.72 149.12 C134.52 150.1 135.31 151.07 136.13 152.07 C137.81 154.32 139.1 156.32 140.22 158.87 C140.88 158.87 141.54 158.87 142.22 158.87 C143.74 160.37 143.74 160.37 145.47 162.43 C146.09 163.16 146.7 163.89 147.34 164.63 C147.96 165.37 148.58 166.11 149.22 166.87 C149.81 167.54 150.41 168.2 151.02 168.89 C151.56 169.5 152.1 170.12 152.66 170.75 C153.4 171.58 153.4 171.58 154.16 172.43 C155.22 173.87 155.22 173.87 155.22 175.87 C155.88 175.87 156.54 175.87 157.22 175.87 C162.22 181.35 162.22 181.35 162.22 183.87 C162.88 183.87 163.54 183.87 164.22 183.87 C165.74 185.37 165.74 185.37 167.47 187.43 C168.09 188.16 168.7 188.89 169.34 189.63 C169.96 190.37 170.58 191.11 171.22 191.87 C171.81 192.54 172.41 193.2 173.02 193.89 C173.56 194.5 174.1 195.12 174.66 195.75 C175.4 196.58 175.4 196.58 176.16 197.43 C177.22 198.87 177.22 198.87 177.22 200.87 C178.21 201.2 179.2 201.53 180.22 201.87 C180.22 202.53 180.22 203.19 180.22 203.87 C180.88 203.87 181.54 203.87 182.22 203.87 C183.64 205.44 184.98 207.08 186.29 208.75 C190.74 214.31 195.41 219.61 200.22 224.87 C215.22 241.28 215.22 241.28 215.22 243.87 C215.88 243.87 216.54 243.87 217.22 243.87 C218.7 245.51 220.11 247.21 221.47 248.93 C224.17 252.32 226.88 255.65 229.79 258.87 C232.22 261.87 232.22 261.87 232.22 264.87 C231.56 264.87 230.9 264.87 230.22 264.87 C230.22 265.53 230.22 266.19 230.22 266.87 C228.58 268.56 228.58 268.56 226.41 270.43 C225.7 271.05 224.99 271.67 224.27 272.31 C222.22 273.87 222.22 273.87 219.22 274.87 C219.22 275.53 219.22 276.19 219.22 276.87 C217.76 278.38 217.76 278.38 215.85 280 C215.22 280.53 214.59 281.07 213.95 281.63 C212.22 282.87 212.22 282.87 210.22 282.87 C210.22 283.53 210.22 284.19 210.22 284.87 C204.75 289.87 204.75 289.87 202.22 289.87 C201.89 290.86 201.56 291.85 201.22 292.87 C200.56 292.87 199.9 292.87 199.22 292.87 C199.22 293.53 199.22 294.19 199.22 294.87 C198.56 294.87 197.9 294.87 197.22 294.87 C197.22 295.53 197.22 296.19 197.22 296.87 C195.52 298.39 193.76 299.84 191.97 301.25 C189.17 303.46 186.49 305.6 183.99 308.16 C182.22 309.87 182.22 309.87 180.22 309.87 C179.89 310.86 179.56 311.85 179.22 312.87 C178.56 312.87 177.9 312.87 177.22 312.87 C177.22 313.53 177.22 314.19 177.22 314.87 C175.86 316.28 175.86 316.28 173.91 317.93 C173.19 318.55 172.46 319.17 171.71 319.8 C168.12 322.79 164.48 325.74 160.84 328.66 C157.34 331.62 154.18 334.86 151.04 338.18 C149.22 339.87 149.22 339.87 147.22 339.87 C147.22 340.53 147.22 341.19 147.22 341.87 C145.82 343.28 145.82 343.28 143.85 344.93 C139.56 348.56 135.44 352.33 131.32 356.15 C129.22 357.87 129.22 357.87 127.22 357.87 C127.22 358.53 127.22 359.19 127.22 359.87 C125.58 361.49 125.58 361.49 123.41 363.31 C120.4 365.84 120.4 365.84 117.59 368.59 C116.22 369.87 116.22 369.87 114.22 369.87 C114.22 370.53 114.22 371.19 114.22 371.87 C112.76 373.38 112.76 373.38 110.85 375 C110.22 375.53 109.59 376.07 108.95 376.63 C107.22 377.87 107.22 377.87 105.22 377.87 C105.22 378.53 105.22 379.19 105.22 379.87 C99.75 384.87 99.75 384.87 97.22 384.87 C97.22 385.53 97.22 386.19 97.22 386.87 C95.57 386.54 93.92 386.21 92.22 385.87 C91.89 384.88 91.56 383.89 91.22 382.87 C90.23 382.54 89.24 382.21 88.22 381.87 C88.22 381.21 88.22 380.55 88.22 379.87 C87.56 379.87 86.9 379.87 86.22 379.87 C81.22 374.39 81.22 374.39 81.22 371.87 C80.56 371.87 79.9 371.87 79.22 371.87 C77.71 370.17 76.26 368.41 74.85 366.62 C72.63 363.82 70.49 361.13 67.93 358.64 C66.22 356.87 66.22 356.87 66.22 354.87 C65.56 354.87 64.9 354.87 64.22 354.87 C62.66 353.18 61.17 351.42 59.72 349.62 C58.93 348.65 58.13 347.67 57.32 346.67 C55.64 344.42 54.34 342.42 53.22 339.87 C52.56 339.87 51.9 339.87 51.22 339.87 C49.71 338.37 49.71 338.37 47.97 336.31 C47.36 335.58 46.74 334.86 46.11 334.11 C45.49 333.37 44.86 332.63 44.22 331.87 C43.63 331.2 43.04 330.54 42.43 329.85 C41.89 329.24 41.34 328.63 40.79 328 C40.29 327.44 39.8 326.89 39.29 326.32 C38.22 324.87 38.22 324.87 38.22 322.87 C37.56 322.87 36.9 322.87 36.22 322.87 C31.22 317.39 31.22 317.39 31.22 314.87 C30.56 314.87 29.9 314.87 29.22 314.87 C27.71 313.37 27.71 313.37 25.97 311.31 C25.36 310.58 24.74 309.86 24.11 309.11 C23.49 308.37 22.86 307.63 22.22 306.87 C21.63 306.2 21.04 305.54 20.43 304.85 C19.89 304.24 19.34 303.63 18.79 303 C18.29 302.44 17.8 301.89 17.29 301.32 C16.22 299.87 16.22 299.87 16.22 297.87 C15.23 297.54 14.24 297.21 13.22 296.87 C13.22 296.21 13.22 295.55 13.22 294.87 C12.56 294.87 11.9 294.87 11.22 294.87 C9.66 293.18 8.17 291.42 6.72 289.62 C5.93 288.65 5.13 287.67 4.32 286.67 C2.64 284.42 1.34 282.42 0.22 279.87 C-0.44 279.87 -1.1 279.87 -1.78 279.87 C-3.5 278.19 -3.5 278.19 -5.4 276 C-6.03 275.28 -6.67 274.56 -7.32 273.82 C-8.78 271.87 -8.78 271.87 -8.78 269.87 C-9.44 269.87 -10.1 269.87 -10.78 269.87 C-12.34 268.18 -13.83 266.42 -15.28 264.62 C-16.07 263.65 -16.87 262.67 -17.68 261.67 C-19.36 259.42 -20.66 257.42 -21.78 254.87 C-22.44 254.87 -23.1 254.87 -23.78 254.87 C-25.29 253.17 -26.74 251.41 -28.15 249.62 C-30.37 246.82 -32.51 244.13 -35.07 241.64 C-36.78 239.87 -36.78 239.87 -36.78 237.87 C-37.44 237.87 -38.1 237.87 -38.78 237.87 C-43.78 232.39 -43.78 232.39 -43.78 229.87 C-44.44 229.87 -45.1 229.87 -45.78 229.87 C-47.34 228.18 -48.83 226.42 -50.28 224.62 C-51.07 223.65 -51.87 222.67 -52.68 221.67 C-54.36 219.42 -55.66 217.42 -56.78 214.87 C-57.44 214.87 -58.1 214.87 -58.78 214.87 C-58.78 214.21 -58.78 213.55 -58.78 212.87 C-59.44 212.87 -60.1 212.87 -60.78 212.87 C-62.26 211.44 -62.26 211.44 -63.96 209.43 C-64.58 208.71 -65.2 207.98 -65.84 207.23 C-68.33 204.19 -70.73 201.09 -73.1 197.95 C-74.78 195.78 -74.78 195.78 -76.98 193.73 C-78.78 191.87 -78.78 191.87 -78.78 189.87 C-79.77 189.54 -80.76 189.21 -81.78 188.87 C-81.78 188.21 -81.78 187.55 -81.78 186.87 C-82.44 186.87 -83.1 186.87 -83.78 186.87 C-85.36 185.16 -86.87 183.37 -88.34 181.56 C-89.15 180.57 -89.95 179.59 -90.78 178.57 C-92.78 175.87 -92.78 175.87 -93.78 172.87 C-94.77 172.54 -95.76 172.21 -96.78 171.87 C-96.78 171.21 -96.78 170.55 -96.78 169.87 C-97.44 169.87 -98.1 169.87 -98.78 169.87 C-100.29 168.17 -101.74 166.41 -103.15 164.62 C-105.37 161.82 -107.51 159.13 -110.07 156.64 C-111.78 154.87 -111.78 154.87 -111.78 152.87 C-112.44 152.87 -113.1 152.87 -113.78 152.87 C-118.78 147.39 -118.78 147.39 -118.78 144.87 C-119.44 144.87 -120.1 144.87 -120.78 144.87 C-122.34 143.18 -123.83 141.42 -125.28 139.62 C-126.07 138.65 -126.87 137.67 -127.68 136.67 C-129.36 134.42 -130.66 132.42 -131.78 129.87 C-132.44 129.87 -133.1 129.87 -133.78 129.87 C-133.78 129.21 -133.78 128.55 -133.78 127.87 C-134.44 127.87 -135.1 127.87 -135.78 127.87 C-137.47 126.23 -137.47 126.23 -139.34 124.06 C-139.96 123.35 -140.58 122.64 -141.22 121.91 C-142.78 119.87 -142.78 119.87 -143.78 116.87 C-144.44 116.87 -145.1 116.87 -145.78 116.87 C-146.04 114.6 -146.04 114.6 -145.78 111.87 C-144.08 110.02 -144.08 110.02 -141.65 108.25 C-140.74 107.56 -139.83 106.88 -138.9 106.18 C-137.87 105.42 -136.84 104.66 -135.78 103.87 C-134.02 102.5 -132.27 101.12 -130.52 99.74 C-128.73 98.32 -126.93 96.91 -125.13 95.5 C-123.06 93.88 -121.01 92.25 -118.95 90.61 C-117.75 89.66 -117.75 89.66 -116.53 88.68 C-115.84 88.13 -115.16 87.58 -114.45 87.02 C-112.78 85.87 -112.78 85.87 -110.78 85.87 C-110.78 85.21 -110.78 84.55 -110.78 83.87 C-109.18 82.58 -107.52 81.36 -105.84 80.18 C-101.29 76.97 -96.89 73.63 -92.55 70.12 C-90.78 68.87 -90.78 68.87 -88.78 68.87 C-88.78 68.21 -88.78 67.55 -88.78 66.87 C-87.1 65.36 -87.1 65.36 -84.9 63.75 C-84.18 63.21 -83.46 62.67 -82.72 62.11 C-80.78 60.87 -80.78 60.87 -78.78 60.87 C-78.78 60.21 -78.78 59.55 -78.78 58.87 C-77.18 57.58 -75.52 56.36 -73.84 55.18 C-69.29 51.97 -64.89 48.63 -60.55 45.12 C-58.78 43.87 -58.78 43.87 -56.78 43.87 C-56.78 43.21 -56.78 42.55 -56.78 41.87 C-55.1 40.36 -55.1 40.36 -52.9 38.75 C-52.18 38.21 -51.46 37.67 -50.72 37.11 C-48.78 35.87 -48.78 35.87 -46.78 35.87 C-46.78 35.21 -46.78 34.55 -46.78 33.87 C-45.04 32.43 -43.24 31.06 -41.4 29.75 C-40.4 29.02 -39.41 28.3 -38.38 27.55 C-35.78 25.87 -35.78 25.87 -33.78 25.87 C-33.78 25.21 -33.78 24.55 -33.78 23.87 C-32.12 22.39 -32.12 22.39 -29.84 20.68 C-29.01 20.06 -28.18 19.43 -27.33 18.79 C-26.49 18.15 -25.64 17.52 -24.78 16.87 C-23.36 15.77 -21.94 14.67 -20.53 13.56 C-19.8 13 -19.06 12.43 -18.31 11.85 C-16.35 10.32 -14.42 8.76 -12.5 7.17 C-11.34 6.24 -10.18 5.3 -9.03 4.37 C-8.48 3.91 -7.94 3.46 -7.38 2.98 C-4.79 0.92 -3.37 -0.16 0 0 Z " fill="#000000" transform="translate(145.77734375,793.12890625)"/>
<path d="M0 0 C1.66 0.65 3.33 1.3 5 1.94 C10.16 3.99 15.08 6.44 20 9 C20 9.66 20 10.32 20 11 C20.55 11.09 21.1 11.19 21.67 11.29 C24.62 12.19 26.73 13.66 29.25 15.44 C30.14 16.05 31.03 16.67 31.95 17.31 C32.63 17.87 33.3 18.42 34 19 C34 19.66 34 20.32 34 21 C34.56 21.24 35.12 21.47 35.7 21.72 C38.52 23.29 40.48 25.21 42.75 27.5 C43.55 28.29 44.35 29.09 45.17 29.91 C47 32 47 32 47 34 C47.66 34 48.32 34 49 34 C49.33 35.32 49.66 36.64 50 38 C50.66 38 51.32 38 52 38 C56.07 42.98 58.8 48.39 61.59 54.16 C63.01 57.15 63.01 57.15 65.12 60.38 C67.79 64.85 68.84 70 70.17 74.99 C70.87 77.89 70.87 77.89 72 80 C75.71 98.59 75.42 117.32 75.34 136.18 C75.32 140.57 75.32 144.96 75.32 149.35 C75.32 156.71 75.3 164.06 75.28 171.41 C75.25 180.83 75.24 190.24 75.24 199.65 C75.23 207.8 75.22 215.94 75.21 224.09 C75.2 226.69 75.2 229.28 75.2 231.88 C75.19 235.96 75.18 240.05 75.17 244.13 C75.16 245.62 75.16 247.11 75.16 248.6 C75.15 263.46 75 278.82 69 292.64 C68.06 294.87 67.33 297.07 66.62 299.38 C60.99 316.32 48.46 334.33 34 345 C33.34 345 32.68 345 32 345 C32 345.66 32 346.32 32 347 C29.72 348.7 27.45 350.27 25.06 351.81 C24.37 352.26 23.68 352.71 22.97 353.18 C15.13 358.26 7.85 362.3 -1.12 365.1 C-2.8 365.63 -4.48 366.18 -6.13 366.81 C-25.28 374.05 -46.33 373.31 -66 369 C-66.33 368.67 -66.66 368.34 -67 368 C-68.58 367.8 -68.58 367.8 -70.18 367.6 C-76.33 366.63 -81.45 363.72 -87 361 C-88.17 360.46 -89.33 359.92 -90.53 359.36 C-98.88 355.4 -105.82 350.79 -113 345 C-113.91 344.31 -113.91 344.31 -114.83 343.6 C-119.12 340.24 -122.53 336.16 -126 332 C-126.64 331.26 -127.28 330.52 -127.94 329.75 C-136.16 319.96 -142.07 308.76 -147 297 C-147.33 296.26 -147.67 295.52 -148.01 294.75 C-149.39 290.92 -150.15 286.99 -151 283 C-151.14 282.33 -151.29 281.67 -151.44 280.98 C-154.97 263.83 -154.44 246.34 -154.4 228.92 C-154.4 224.49 -154.4 220.07 -154.41 215.65 C-154.41 208.22 -154.41 200.8 -154.39 193.38 C-154.37 184.85 -154.38 176.32 -154.4 167.79 C-154.41 160.41 -154.41 153.03 -154.4 145.65 C-154.4 141.27 -154.4 136.89 -154.41 132.51 C-154.49 91.67 -149.51 55.82 -119.56 25.54 C-111.76 18 -111.76 18 -109 18 C-109 17.34 -109 16.68 -109 16 C-104.94 12.45 -99.44 8 -94 8 C-94 7.34 -94 6.68 -94 6 C-93.38 5.76 -92.77 5.52 -92.13 5.27 C-91.28 4.93 -90.44 4.6 -89.56 4.25 C-88.64 3.88 -87.71 3.52 -86.76 3.14 C-84.43 2.18 -82.2 1.12 -79.94 0 C-73.03 -3.13 -65.4 -4.47 -58 -6 C-57.08 -6.2 -56.16 -6.39 -55.22 -6.6 C-36.81 -8.9 -16.99 -7.77 0 0 Z M-65 80 C-65 80.66 -65 81.32 -65 82 C-65.99 82.33 -66.98 82.66 -68 83 C-74.16 90.82 -76.12 98.93 -76.14 108.76 C-76.14 109.41 -76.15 110.07 -76.15 110.74 C-76.16 112.92 -76.16 115.11 -76.16 117.29 C-76.17 118.86 -76.17 120.42 -76.18 121.99 C-76.19 126.25 -76.2 130.5 -76.2 134.76 C-76.2 137.42 -76.21 140.08 -76.21 142.74 C-76.23 151.08 -76.24 159.42 -76.24 167.76 C-76.24 177.37 -76.26 186.97 -76.29 196.58 C-76.31 204.02 -76.32 211.46 -76.32 218.89 C-76.32 223.33 -76.33 227.77 -76.35 232.2 C-76.36 236.38 -76.37 240.56 -76.36 244.73 C-76.36 246.26 -76.36 247.79 -76.37 249.31 C-76.49 265.03 -76.49 265.03 -70 279 C-69.34 279 -68.68 279 -68 279 C-67.73 279.6 -67.46 280.2 -67.19 280.81 C-66 283 -64.9 284.41 -63 286 C-62.34 286 -61.68 286 -61 286 C-61 286.66 -61 287.32 -61 288 C-52.63 293.74 -43.92 294.58 -34 294 C-30.29 293.28 -30.29 293.28 -27 292 C-25.3 291.38 -25.3 291.38 -23.56 290.75 C-13.72 285.91 -7.7 279.36 -4 269 C-3.19 264.34 -2.87 259.86 -2.87 255.13 C-2.87 254.48 -2.87 253.82 -2.87 253.15 C-2.86 250.97 -2.87 248.8 -2.87 246.63 C-2.87 245.06 -2.87 243.5 -2.87 241.93 C-2.86 237.69 -2.86 233.45 -2.87 229.21 C-2.87 224.77 -2.87 220.32 -2.86 215.88 C-2.86 208.42 -2.86 200.96 -2.87 193.5 C-2.88 184.88 -2.87 176.26 -2.87 167.64 C-2.86 160.24 -2.86 152.83 -2.87 145.42 C-2.87 141 -2.87 136.58 -2.86 132.16 C-2.86 128 -2.86 123.84 -2.87 119.69 C-2.87 118.17 -2.87 116.64 -2.87 115.12 C-2.86 113.04 -2.87 110.95 -2.87 108.87 C-2.87 107.7 -2.87 106.54 -2.87 105.34 C-3.21 96.52 -5.38 88.47 -11.62 81.94 C-13.92 79.83 -13.92 79.83 -17 79 C-17 78.34 -17 77.68 -17 77 C-33.68 66.89 -49.44 67.93 -65 80 Z " fill="#000000" transform="translate(1056,106)"/>
<path d="M0 0 C1.33 0.68 2.66 1.35 4 2 C4 2.66 4 3.32 4 4 C4.99 4.31 4.99 4.31 6 4.62 C10.07 6.49 13.69 8.98 17 12 C17 12.66 17 13.32 17 14 C17.64 14.27 18.28 14.54 18.94 14.81 C21 16 21 16 22 19 C22.66 19 23.32 19 24 19 C27.21 22.49 30.07 26.28 33 30 C33.54 30.64 34.09 31.29 34.64 31.95 C42.11 41.1 47.05 52.66 50 64 C50.66 65.67 51.33 67.34 52 69 C54.02 74.94 54.48 80.57 54.75 86.81 C54.81 87.77 54.86 88.72 54.92 89.7 C54.98 91.07 54.98 91.07 55.05 92.46 C55.09 93.28 55.13 94.11 55.17 94.96 C55 97 55 97 53 99 C50 99.25 50 99.25 46.1 99.24 C45.04 99.25 45.04 99.25 43.95 99.25 C41.61 99.25 39.26 99.24 36.91 99.23 C35.28 99.23 33.65 99.23 32.02 99.23 C28.6 99.23 25.19 99.22 21.77 99.21 C17.38 99.19 13 99.18 8.61 99.19 C5.25 99.19 1.89 99.18 -1.48 99.17 C-3.1 99.17 -4.71 99.17 -6.33 99.17 C-8.59 99.16 -10.85 99.16 -13.1 99.15 C-14.39 99.14 -15.68 99.14 -17 99.13 C-20 99 -20 99 -22 98 C-22.2 96.11 -22.4 94.22 -22.58 92.33 C-23.19 88.93 -24.63 86.06 -26.16 82.98 C-27 81 -27 81 -27 78 C-27.66 78 -28.32 78 -29 78 C-29.58 77.1 -30.17 76.2 -30.77 75.27 C-35.01 69.06 -42.3 64.33 -49.62 62.5 C-51.08 62.28 -52.54 62.12 -54 62 C-54.81 61.93 -55.62 61.86 -56.46 61.79 C-64.97 61.44 -71.53 64.17 -79 68 C-79.66 68 -80.32 68 -81 68 C-81 68.66 -81 69.32 -81 70 C-83.38 72.62 -83.38 72.62 -86 75 C-86.66 75 -87.32 75 -88 75 C-88.29 75.76 -88.58 76.53 -88.88 77.31 C-90 80 -90 80 -92 83 C-95.4 91.7 -95.43 100.49 -95.39 109.69 C-95.39 111.24 -95.4 112.79 -95.4 114.34 C-95.42 118.53 -95.41 122.71 -95.4 126.89 C-95.4 131.29 -95.4 135.68 -95.41 140.08 C-95.41 147.46 -95.41 154.83 -95.39 162.21 C-95.37 170.72 -95.38 179.23 -95.4 187.74 C-95.41 195.07 -95.41 202.4 -95.4 209.73 C-95.4 214.1 -95.4 218.47 -95.41 222.83 C-95.42 226.94 -95.41 231.05 -95.39 235.15 C-95.39 236.65 -95.39 238.15 -95.4 239.65 C-95.44 249.84 -95.12 259.53 -88.81 268 C-86 271.83 -86 271.83 -86 274 C-85.01 274.33 -84.02 274.66 -83 275 C-83 275.66 -83 276.32 -83 277 C-82.01 277.37 -82.01 277.37 -81 277.75 C-77.91 279.04 -75.01 280.52 -72.06 282.1 C-64.12 285.57 -53.98 284.86 -46 282 C-44.35 281.46 -42.71 280.91 -41.06 280.38 C-39.71 279.92 -38.35 279.46 -37 279 C-37 278.34 -37 277.68 -37 277 C-36.11 276.3 -35.23 275.6 -34.31 274.88 C-28.04 269.83 -23.63 261.63 -22.74 253.62 C-22.66 251.02 -22.66 248.42 -22.71 245.81 C-22.71 244.87 -22.72 243.93 -22.72 242.95 C-22.74 239.97 -22.77 236.98 -22.81 234 C-22.83 231.96 -22.84 229.93 -22.85 227.89 C-22.89 222.93 -22.94 217.96 -23 213 C-24.05 212.98 -25.1 212.96 -26.18 212.94 C-30.07 212.86 -33.96 212.78 -37.84 212.68 C-39.53 212.64 -41.21 212.61 -42.9 212.58 C-45.31 212.53 -47.73 212.47 -50.15 212.41 C-50.9 212.4 -51.66 212.39 -52.44 212.38 C-57.77 212.23 -57.77 212.23 -60 210 C-60.25 207 -60.25 207 -60.24 203.1 C-60.24 202.39 -60.25 201.69 -60.25 200.95 C-60.25 198.61 -60.24 196.26 -60.23 193.91 C-60.23 192.28 -60.23 190.65 -60.23 189.02 C-60.23 185.6 -60.22 182.19 -60.21 178.77 C-60.19 174.38 -60.18 170 -60.19 165.61 C-60.19 162.25 -60.18 158.89 -60.17 155.52 C-60.17 153.9 -60.17 152.29 -60.17 150.67 C-60.16 148.41 -60.16 146.15 -60.15 143.9 C-60.14 142.61 -60.14 141.32 -60.13 140 C-60 137 -60 137 -59 135 C-56.18 134.06 -54.47 133.87 -51.56 133.87 C-50.2 133.86 -50.2 133.86 -48.81 133.85 C-47.31 133.85 -47.31 133.85 -45.79 133.85 C-44.74 133.85 -43.69 133.85 -42.61 133.84 C-39.14 133.84 -35.66 133.83 -32.19 133.83 C-29.78 133.83 -27.37 133.83 -24.96 133.82 C-19.9 133.82 -14.85 133.81 -9.8 133.81 C-3.31 133.81 3.18 133.8 9.66 133.78 C14.64 133.77 19.62 133.77 24.6 133.77 C26.99 133.77 29.38 133.77 31.77 133.76 C35.11 133.75 38.45 133.75 41.79 133.76 C42.79 133.75 43.78 133.75 44.81 133.74 C45.71 133.74 46.62 133.75 47.56 133.75 C48.74 133.75 48.74 133.75 49.95 133.75 C52 134 52 134 55 136 C55.37 138.08 55.37 138.08 55.37 140.7 C55.37 141.69 55.38 142.69 55.38 143.71 C55.37 145.35 55.37 145.35 55.36 147.02 C55.36 148.17 55.36 149.32 55.36 150.5 C55.37 154.32 55.35 158.14 55.33 161.95 C55.33 164.61 55.32 167.26 55.32 169.92 C55.32 175.49 55.3 181.07 55.28 186.65 C55.25 193.77 55.24 200.89 55.24 208.02 C55.23 213.51 55.22 219 55.21 224.49 C55.21 227.11 55.2 229.73 55.2 232.36 C55.13 268 55.13 268 51.88 278.94 C51.66 279.69 51.44 280.44 51.22 281.21 C47.91 292.16 42.94 303.87 36 313 C35.34 313 34.68 313 34 313 C34 313.99 34 314.98 34 316 C33.34 316 32.68 316 32 316 C31.72 316.58 31.45 317.16 31.16 317.76 C27.48 324.85 22.12 330.01 16 335 C15.26 335.64 14.52 336.28 13.76 336.93 C8.96 340.97 3.98 344.37 -1.44 347.5 C-2.04 347.85 -2.64 348.2 -3.27 348.56 C-6.06 350.13 -7.74 351 -11 351 C-11 351.66 -11 352.32 -11 353 C-12.28 353.42 -12.28 353.42 -13.59 353.84 C-14.69 354.2 -15.8 354.56 -16.94 354.94 C-18.04 355.3 -19.14 355.66 -20.28 356.03 C-22.88 356.74 -22.88 356.74 -24 358 C-25.07 358.14 -26.14 358.29 -27.25 358.44 C-30.83 358.82 -30.83 358.82 -33.34 359.96 C-55.48 368.59 -83.89 361.71 -104.88 353.38 C-115.73 348.57 -125.22 341.7 -134.31 334.12 C-134.86 333.67 -135.4 333.22 -135.97 332.76 C-138.69 330.41 -140.7 328.39 -142 325 C-142.66 325 -143.32 325 -144 325 C-163.87 304.2 -172.3 276.15 -172.31 248.11 C-172.31 246.31 -172.32 244.5 -172.33 242.7 C-172.35 237.83 -172.36 232.96 -172.37 228.09 C-172.37 225.03 -172.38 221.98 -172.38 218.92 C-172.41 208.24 -172.42 197.56 -172.43 186.88 C-172.43 176.97 -172.46 167.06 -172.5 157.15 C-172.54 148.6 -172.55 140.06 -172.55 131.52 C-172.55 126.43 -172.56 121.34 -172.59 116.26 C-172.62 111.46 -172.62 106.67 -172.6 101.87 C-172.6 100.13 -172.61 98.38 -172.62 96.64 C-172.78 78 -168.61 61.52 -160 45 C-159 43 -158 41 -157 39 C-156.34 39 -155.68 39 -155 39 C-154.93 38.47 -154.85 37.94 -154.77 37.39 C-153.7 34.07 -151.71 31.55 -149.62 28.81 C-149.23 28.27 -148.83 27.72 -148.41 27.16 C-146.35 24.42 -145.33 23.11 -142 22 C-141.73 21.44 -141.46 20.89 -141.19 20.31 C-139.47 16.96 -136.91 14.38 -134 12 C-133.34 12 -132.68 12 -132 12 C-132 11.34 -132 10.68 -132 10 C-130.05 8.47 -128.12 7.07 -126.06 5.69 C-125.17 5.08 -125.17 5.08 -124.26 4.46 C-119.65 1.36 -114.94 -1.45 -110 -4 C-109.41 -4.33 -108.81 -4.67 -108.2 -5.01 C-73.96 -23.56 -32.76 -18.44 0 0 Z " fill="#000000" transform="translate(774,115)"/>
</svg>
