<?xml version="1.0" encoding="UTF-8" standalone="no"?>
<!DOCTYPE svg PUBLIC "-//W3C//DTD SVG 1.1//EN" "http://www.w3.org/Graphics/SVG/1.1/DTD/svg11.dtd">
<svg width="100%" height="100%" viewBox="0 0 285 285" version="1.1" xmlns="http://www.w3.org/2000/svg" xmlns:xlink="http://www.w3.org/1999/xlink" xml:space="preserve" xmlns:serif="http://www.serif.com/" style="fill-rule:evenodd;clip-rule:evenodd;stroke-linejoin:round;stroke-miterlimit:2;">
    <g transform="matrix(4.16667,0,0,4.16667,196.368,76.4771)">
        <path d="M0,31.491L-4.326,21.964C-4.466,21.654 -4.774,21.456 -5.113,21.456L-6.009,21.456C-6.371,19.704 -7.068,18.067 -8.036,16.622L-6.447,16.622C-4.437,16.622 -2.667,17.832 -1.939,19.705L1.49,28.517C1.62,28.85 1.94,29.069 2.297,29.069C3.656,29.069 4.769,30.145 4.826,31.491L0,31.491ZM-5.727,24.224C-5.727,23.875 -5.74,23.529 -5.766,23.186L-5.671,23.186L-1.9,31.491L-7.823,31.491C-6.496,29.386 -5.727,26.893 -5.727,24.224M-17.838,9.546C-18.316,9.546 -18.704,9.933 -18.704,10.411L-18.704,18.774C-18.704,19.442 -19.247,19.985 -19.915,19.985C-20.583,19.985 -21.126,19.442 -21.126,18.774L-21.126,11.802C-21.126,9.679 -20.582,7.577 -19.554,5.721C-18.839,4.433 -17.481,3.634 -16.008,3.634C-13.773,3.634 -11.956,5.452 -11.956,7.687L-11.956,12.754C-13.446,11.785 -15.142,11.096 -16.973,10.77L-16.973,10.411C-16.973,9.933 -17.36,9.546 -17.838,9.546M-11.609,24.224C-11.609,28.517 -15.103,32.011 -19.396,32.011C-23.689,32.011 -27.182,28.517 -27.182,24.224C-27.182,21.215 -25.485,18.542 -22.856,17.245L-22.856,18.774C-22.856,20.395 -21.537,21.716 -19.915,21.716C-18.293,21.716 -16.973,20.395 -16.973,18.774L-16.973,16.822C-13.812,17.851 -11.609,20.817 -11.609,24.224M-15.243,-4.671C-13.43,-4.671 -11.956,-3.197 -11.956,-1.384C-11.956,0.429 -13.43,1.904 -15.243,1.904C-17.056,1.904 -18.531,0.429 -18.531,-1.384C-18.531,-3.197 -17.056,-4.671 -15.243,-4.671M2.905,27.382L-0.327,19.077C-0.808,17.839 -1.643,16.788 -2.739,16.038C-3.836,15.288 -5.118,14.892 -6.447,14.892L-9.409,14.892C-9.669,14.612 -9.941,14.344 -10.225,14.087L-10.225,7.687C-10.225,5.725 -11.208,3.989 -12.707,2.943C-11.224,2.07 -10.225,0.458 -10.225,-1.384C-10.225,-4.151 -12.476,-6.402 -15.243,-6.402C-18.01,-6.402 -20.261,-4.151 -20.261,-1.384C-20.261,0.155 -19.564,1.533 -18.47,2.455C-19.551,2.963 -20.468,3.803 -21.066,4.883C-22.106,6.759 -22.709,8.855 -22.832,10.993C-25.056,11.569 -27.104,12.7 -28.786,14.291C-30.613,16.019 -31.927,18.209 -32.585,20.623C-32.711,21.084 -32.439,21.559 -31.978,21.684C-31.902,21.706 -31.825,21.716 -31.75,21.716C-31.37,21.716 -31.021,21.463 -30.916,21.077C-29.841,17.134 -26.733,13.977 -22.856,12.797L-22.856,15.357C-24.517,16.004 -25.95,17.094 -27.028,18.54C-28.261,20.192 -28.912,22.158 -28.912,24.224C-28.912,29.471 -24.643,33.741 -19.396,33.741C-14.148,33.741 -9.879,29.471 -9.879,24.224C-9.879,19.871 -12.824,16.107 -16.973,15.021L-16.973,12.532C-11.484,13.66 -7.457,18.523 -7.457,24.224C-7.457,30.807 -12.813,36.163 -19.396,36.163C-24.696,36.163 -29.417,32.609 -30.875,27.519C-31.006,27.059 -31.485,26.794 -31.944,26.926C-32.403,27.057 -32.669,27.536 -32.538,27.996C-31.737,30.792 -30.016,33.31 -27.693,35.088C-25.294,36.924 -22.425,37.893 -19.396,37.893C-15.301,37.893 -11.622,36.084 -9.114,33.221L5.693,33.221C6.171,33.221 6.559,32.835 6.559,32.356L6.559,31.6C6.559,29.457 4.968,27.678 2.905,27.382" style="fill:rgb(0,163,172);fill-rule:nonzero;"/>
    </g>
</svg>
