<?xml version="1.0" encoding="utf-8"?>
<!-- Generator: Adobe Illustrator 25.2.0, SVG Export Plug-In . SVG Version: 6.00 Build 0)  -->
<svg version="1.1" id="Layer_1" xmlns="http://www.w3.org/2000/svg" xmlns:xlink="http://www.w3.org/1999/xlink" x="0px" y="0px"
	 viewBox="0 0 36 36" style="enable-background:new 0 0 36 36;" xml:space="preserve">
<style type="text/css">
	.st0{fill:#255D7C;}
</style>
<g>
	<g id="GW41Vg_1_">
		<g>
			<g>
				<g>
					<path class="st0" d="M19.94,19.87c-2.23,0-4.47,0-6.7,0c-0.91,0-1.46-0.45-1.48-1.21c-0.02-0.78,0.54-1.31,1.47-1.31
						c2.66-0.02,5.32-0.01,7.98-0.01c1.83,0,3.65-0.03,5.48,0.02c0.43,0.01,0.99,0.18,1.24,0.48c0.24,0.29,0.28,0.88,0.19,1.29
						c-0.12,0.52-0.59,0.74-1.15,0.74C24.63,19.87,22.28,19.87,19.94,19.87z"/>
				</g>
				<g>
					<path class="st0" d="M19.37,14.18c-2.08,0-4.15,0-6.23,0c-0.66,0-1.13-0.3-1.32-0.95c-0.16-0.57,0.04-1.06,0.52-1.35
						c0.29-0.17,0.68-0.22,1.03-0.23c1.33-0.03,2.66-0.01,4-0.01c2.6,0,5.19,0,7.79,0c0.25,0,0.5,0,0.74,0.04
						c0.66,0.1,1.11,0.62,1.1,1.25c-0.01,0.65-0.51,1.21-1.2,1.23c-1.08,0.03-2.17,0.02-3.25,0.02
						C21.49,14.18,20.43,14.18,19.37,14.18z"/>
				</g>
				<g>
					<path class="st0" d="M17.15,25.61c-1.31,0-2.62,0-3.93,0c-0.89,0-1.46-0.49-1.47-1.24c-0.01-0.75,0.56-1.28,1.43-1.29
						c2.66-0.01,5.32-0.01,7.99,0c0.83,0,1.38,0.52,1.4,1.24c0.02,0.75-0.56,1.27-1.42,1.28C19.81,25.62,18.48,25.61,17.15,25.61z"
						/>
				</g>
			</g>
		</g>
	</g>
</g>
<circle class="st0" cx="9.21" cy="12.9" r="1.21"/>
<circle class="st0" cx="9.21" cy="18.56" r="1.21"/>
<circle class="st0" cx="9.21" cy="24.3" r="1.21"/>
</svg>
