<?xml version="1.0" encoding="utf-8"?>
<!-- Generator: Adobe Illustrator 28.1.0, SVG Export Plug-In . SVG Version: 6.00 Build 0)  -->
<svg version="1.1" id="Layer_1" xmlns="http://www.w3.org/2000/svg" xmlns:xlink="http://www.w3.org/1999/xlink" x="0px" y="0px"
	 viewBox="0 0 500 500" style="enable-background:new 0 0 500 500;" xml:space="preserve">
<style type="text/css">
	.st0{opacity:0.92;fill:#F9ED32;enable-background:new    ;}
	.st1{opacity:0.92;enable-background:new    ;}
	.st2{opacity:0.92;fill:#EFD906;enable-background:new    ;}
	.st3{clip-path:url(#SVGID_00000043432382477683988400000009230095119682631056_);}
	.st4{fill:#009393;}
	.st5{fill:#026666;}
	.st6{fill:#FFE3D4;}
	.st7{fill:#00A2AB;}
	.st8{fill:#FFD7C5;}
	.st9{fill:#FFEFE9;}
	.st10{fill:#255D7C;}
</style>
<circle class="st0" cx="250" cy="250" r="174.71"/>
<g class="st1">
	<path class="st2" d="M420.59,212.47c-9.23-41.94-32.81-77.01-64.45-101.2c10.86,16.93,18.97,36.03,23.55,56.83
		c20.73,94.24-38.86,187.43-133.1,208.16c-52.3,11.5-104.27-1.74-143.71-31.9c38.37,59.79,111.18,92.42,184.62,76.27
		C381.73,399.9,441.32,306.71,420.59,212.47z"/>
</g>
<g>
	<defs>
		<circle id="SVGID_1_" cx="250" cy="250" r="174.71"/>
	</defs>
	<clipPath id="SVGID_00000066505362866479067910000015762257717066814615_">
		<use xlink:href="#SVGID_1_"  style="overflow:visible;"/>
	</clipPath>
	<g style="clip-path:url(#SVGID_00000066505362866479067910000015762257717066814615_);">
		<g>
			<path class="st4" d="M361.65,172.2c7.23-9.08,19.87-13.32,30.67-7.99c0.6,0.3,1.18,0.62,1.73,0.96
				c-0.05-0.16-0.09-0.33-0.14-0.49c-3.13-9.72-10.35-18.32-19.89-21.97c-9.54-3.65-21.28-1.75-28.4,5.57
				c-7.38,7.59-9.62,19.75-9.54,30.34c-5.97-8.74-14.76-17.45-25.15-19.46c-10.03-1.95-20.75,3.2-26.5,11.64
				c-5.75,8.45-6.76,19.62-3.78,29.39c2.98,9.77,9.64,18.17,17.75,24.38c8.11,6.21,17.63,10.36,27.38,13.41
				c9.75,3.05,21.35,5.38,31.31,7.65c4.2-4.61,8.87-9.58,13.31-14.59C357.11,213.26,346.32,191.46,361.65,172.2z"/>
		</g>
		<g>
			<path class="st5" d="M437.33,186.15c-11.68-9.42-24.28-0.6-31.85,9.27c-1.34,1.75-4.54,1.41-4.49-1.21
				c0.15-7.25-0.94-15.55-5.33-21.15c-2.26-2.88-5.38-5.04-9.67-5.97c-12.61-2.74-23.26,7.71-25.82,19.3
				c-3.41,15.39,3.95,29.08,13.24,41.19c4.19,5.46,8.77,10.6,12.94,15.43c18.84-3.53,41.29-6.65,53.09-23.5
				C446.46,209.51,447.63,194.47,437.33,186.15z"/>
		</g>
	</g>
	<g style="clip-path:url(#SVGID_00000066505362866479067910000015762257717066814615_);">
		<path class="st6" d="M159.21,311.37c0,0-14.02,44.23,23.47,100.81c0,0,36.59,55.63,88.18,50c0,0,55.78-5.99,86.04-47.4
			c0,0,39.19-46.28-1.55-66.33c0,0-22.38-13.09-44.52-17.36C310.83,331.1,252.27,258.04,159.21,311.37z"/>
		<path class="st4" d="M355.35,348.47c0,0-22.38-13.09-44.52-17.36c0,0-21.11-26.33-58.12-35.84c0.23,1.89,0.38,3.79,0.48,5.67
			c0.16,3.14-0.05,6.29-0.49,9.4c-1.12,7.78-2.61,15.34-5.31,22.73c-2.69,7.37-5.98,14.56-9.4,21.61
			c-7.7,15.89-17.15,30.73-28.71,44.1c-6.24,7.22-13.26,13.21-21.11,18.63c-0.36,0.25-0.72,0.49-1.09,0.73
			c11.17,14.2,42.73,48.52,83.79,44.04c0,0,55.78-5.99,86.04-47.4C356.9,414.79,396.09,368.51,355.35,348.47z"/>
		<path class="st7" d="M310.83,331.1c0,0-3.95-4.93-11.42-11.28c-1.29,1.53-2.63,3-4.05,4.39c-5.32,5.17-11.57,9.6-18.01,13.26
			c-6.83,3.88-14.22,6.8-21.66,9.25c-6.12,2.01-12.42,3.49-18.81,4.32c-7.99,1.04-16.09,1.76-24.15,1.1
			c-7.63-0.62-15.5-1.8-22.73-4.44c-4.26-1.55-8.51-3.34-12.46-5.58c-3.97-2.25-7.52-5.11-10.99-8.07c-2.17-1.85-4.17-3.9-5.89-6.17
			c-1.21-1.6-2.4-3.2-3.54-4.83c-1.67,16.77-0.39,49.99,25.54,89.13c0,0,36.59,55.63,88.18,50c0,0,55.78-5.99,86.04-47.4
			c0,0,39.19-46.28-1.55-66.33C355.35,348.47,332.97,335.38,310.83,331.1z"/>
		<path class="st4" d="M355.35,348.47c0,0-16.21-9.48-34.68-14.94c0.11,1.87,0.18,3.73,0.22,5.58c0.27,12.39-0.81,24.96-3.19,37.11
			c-1.77,9.05-4.57,17.86-8.05,26.39c-4.24,10.39-8.79,20.53-15.16,29.8c-7.69,11.19-16.8,21.42-27.22,30.08
			c1.19-0.07,2.38-0.16,3.59-0.3c0,0,55.78-5.99,86.04-47.4C356.9,414.79,396.09,368.51,355.35,348.47z"/>
		<path class="st8" d="M258.04,295.9c0,0-11.32-15.78-11.37-35.08c0,0,0.86-15.75,17.58-16.28c17.31-0.55,20.82,24.64,15.55,36.19
			C275.82,289.45,267.07,294.03,258.04,295.9z"/>
		<path class="st9" d="M173.77,166.32c0,0,63.9-12.19,84.96,34.23c0,0,16.83,33.71,13.08,77.98c0,0,3.5,53.2-50.81,64.97
			c0,0-51.02,10.51-78.18-42.33C142.82,301.18,73.2,198.43,173.77,166.32z"/>
		<path class="st10" d="M147.87,287c0,0-28.2-35-5.77-67.83c0,0,20.62-29.76,49.64-22.76c0,0,14.42,4.55,10.9,15.12
			c0,0-3.39,7.38-8.79,4.55c0,0,5.45,10.49,16.27,2.86c0,0,19.86-11.84,7.56-27.72c0,0,20.49-9.43,37.37,8.89
			c0,0,13.5,17.1,16.67,51.45c0,0,6.82-56.55-40.63-84.68c0,0-62.95-37.31-111.59,15.2c0,0-8.81,8.8-21.48,5.46
			c7.86,9.32,6.62,20.14,4.41,31.12c-6.27,31.17,0.8,64.54,25.27,86.22L147.87,287z"/>
		<path class="st9" d="M157.77,316.86c0,0-1.24-19.87-13.73-35.23c0,0-10.9-11.95-24.52-1.53c-14.1,10.79-0.55,33.08,11.12,38.82
			C139.46,323.27,149.38,321.23,157.77,316.86z"/>
		<path class="st8" d="M125.14,290.8c1.96-2.8,5.47-4.78,8.9-4.72c6.53,0.12,12.33,8.65,13.36,14.51c0,0,0.96,6.72-5.4,9.02
			c0,0-6.04,2.61-9.17-3.13c0,0-3.94-5.72,1.55-9.59c0,0,4.96-2.68,7.91,0.73C142.29,297.62,137.8,282.7,125.14,290.8z"/>
		<path class="st8" d="M233.08,288.27c0,0,5.85-7.16,8.63,0.84C241.71,289.11,237.88,285.72,233.08,288.27z"/>
		<path class="st10" d="M225.32,305.49c0.01,0,0.08,0.01,0.24,0.03c0.16,0.02,0.4,0.06,0.7,0.1c0.6,0.09,1.45,0.22,2.45,0.35
			c0.5,0.07,1.03,0.13,1.58,0.18c0.55,0.05,1.13,0.11,1.72,0.13c0.3,0.02,0.59,0.03,0.89,0.04c0.3,0.01,0.6,0,0.9,0.01
			c0.3-0.01,0.6,0,0.9-0.03c0.3-0.01,0.6-0.03,0.89-0.06c0.59-0.04,1.17-0.13,1.74-0.22c0.28-0.06,0.56-0.1,0.83-0.16
			c0.27-0.07,0.55-0.11,0.81-0.17c0.53-0.12,1.05-0.26,1.55-0.39c0.25-0.07,0.49-0.15,0.73-0.21c0.24-0.08,0.46-0.16,0.69-0.22
			c0.46-0.15,0.88-0.3,1.26-0.42c0.37-0.15,0.74-0.24,1.02-0.36c0.29-0.11,0.53-0.18,0.7-0.23c0.16-0.05,0.26-0.08,0.26-0.08
			l0.08-0.02c0.5-0.11,0.99,0.2,1.1,0.7c0.04,0.16,0.03,0.33-0.02,0.48c0,0-0.03,0.1-0.11,0.27c-0.07,0.17-0.18,0.43-0.35,0.74
			c-0.16,0.32-0.4,0.66-0.68,1.07c-0.14,0.21-0.31,0.4-0.49,0.61c-0.18,0.21-0.37,0.43-0.6,0.64c-0.22,0.21-0.47,0.42-0.72,0.64
			c-0.26,0.21-0.55,0.4-0.84,0.6c-0.59,0.39-1.26,0.75-1.98,1.04c-0.36,0.15-0.74,0.27-1.12,0.39c-0.39,0.11-0.78,0.2-1.18,0.29
			c-0.8,0.14-1.63,0.24-2.44,0.24c-0.82,0.03-1.63-0.05-2.41-0.14c-0.78-0.11-1.54-0.27-2.25-0.48c-0.71-0.2-1.38-0.46-1.99-0.71
			c-0.61-0.28-1.17-0.55-1.67-0.85c-1-0.58-1.76-1.18-2.26-1.63c-0.25-0.23-0.44-0.42-0.57-0.55c-0.13-0.14-0.2-0.22-0.2-0.22
			c-0.39-0.23-0.52-0.73-0.29-1.12C224.43,305.39,224.93,305.26,225.32,305.49z"/>
		<path class="st10" d="M182.87,280.31c0,0,0.41,0.12,1.14,0.32c0.35,0.1,0.77,0.21,1.26,0.35c0.48,0.13,1.01,0.27,1.59,0.4
			c0.57,0.14,1.18,0.27,1.82,0.4c0.64,0.12,1.3,0.23,1.97,0.33c0.67,0.08,1.36,0.17,2.05,0.19c0.34,0.03,0.69,0.02,1.03,0.03
			c0.34,0,0.69-0.01,1.03-0.02c0.34-0.03,0.68-0.03,1.02-0.08l0.51-0.05l0.5-0.07c0.67-0.09,1.33-0.23,1.98-0.37
			c0.65-0.15,1.28-0.32,1.89-0.51c0.15-0.04,0.31-0.08,0.46-0.13c0.15-0.05,0.29-0.11,0.44-0.16c0.29-0.1,0.59-0.17,0.86-0.29
			c0.55-0.21,1.08-0.38,1.53-0.57c0.46-0.18,0.89-0.32,1.24-0.47c0.69-0.27,1.14-0.4,1.14-0.4l0.23,0.23c0,0-0.15,0.43-0.52,1.12
			c-0.17,0.36-0.43,0.75-0.74,1.2c-0.16,0.22-0.32,0.46-0.52,0.7c-0.2,0.23-0.42,0.47-0.64,0.73c-0.48,0.48-1.01,1-1.65,1.46
			c-0.63,0.48-1.36,0.92-2.15,1.3c-0.79,0.38-1.66,0.7-2.57,0.92c-0.23,0.05-0.46,0.11-0.69,0.16l-0.7,0.11
			c-0.47,0.08-0.95,0.09-1.43,0.12c-0.48,0.02-0.95-0.01-1.43-0.03c-0.47-0.05-0.94-0.08-1.4-0.18c-0.92-0.15-1.79-0.42-2.6-0.71
			c-0.81-0.32-1.56-0.68-2.23-1.09c-0.67-0.4-1.27-0.83-1.78-1.26c-0.52-0.43-0.96-0.86-1.32-1.27c-0.37-0.4-0.66-0.78-0.88-1.1
			c-0.23-0.32-0.38-0.59-0.48-0.78c-0.1-0.19-0.15-0.29-0.15-0.29L182.87,280.31z"/>
		<path class="st10" d="M248.75,270.1c0,0,0.38,0.03,1.04,0.07c0.65,0.05,1.54,0.11,2.55,0.16c0.25,0.01,0.51,0.02,0.78,0.03
			c0.27,0,0.54,0.01,0.82,0.01c0.55,0.01,1.12-0.01,1.7-0.03c0.57-0.04,1.15-0.06,1.72-0.14c0.29-0.02,0.57-0.08,0.86-0.12
			c0.28-0.05,0.57-0.1,0.85-0.16c0.28-0.07,0.56-0.11,0.84-0.2l0.42-0.1l0.41-0.12c0.55-0.15,1.08-0.34,1.61-0.54
			c0.52-0.2,1.04-0.41,1.54-0.63c0.26-0.1,0.5-0.22,0.73-0.33c0.24-0.11,0.49-0.2,0.7-0.33c0.45-0.23,0.89-0.42,1.27-0.63
			c0.39-0.2,0.75-0.36,1.04-0.51c0.58-0.3,0.98-0.44,0.98-0.44l0.26,0.2c0,0-0.05,0.4-0.25,1.07c-0.09,0.34-0.25,0.72-0.44,1.16
			c-0.1,0.22-0.2,0.45-0.34,0.69c-0.14,0.23-0.29,0.48-0.44,0.73c-0.16,0.26-0.36,0.49-0.55,0.75c-0.1,0.13-0.2,0.26-0.31,0.39
			c-0.11,0.13-0.23,0.25-0.35,0.38c-0.47,0.51-1.04,1-1.67,1.45c-0.64,0.44-1.34,0.85-2.11,1.17c-0.19,0.08-0.38,0.16-0.58,0.23
			c-0.2,0.07-0.4,0.13-0.6,0.19c-0.4,0.13-0.81,0.22-1.23,0.3c-0.41,0.09-0.83,0.12-1.25,0.17c-0.42,0.01-0.83,0.05-1.24,0.03
			c-0.82-0.01-1.61-0.14-2.36-0.29c-0.74-0.18-1.44-0.4-2.07-0.68c-0.63-0.27-1.2-0.58-1.7-0.91c-0.5-0.32-0.93-0.66-1.29-0.97
			c-0.36-0.32-0.65-0.62-0.88-0.88c-0.23-0.26-0.39-0.48-0.49-0.64c-0.11-0.16-0.16-0.25-0.16-0.25L248.75,270.1z"/>
		<path class="st10" d="M188.47,241.42c1.15,2.05-1.05,5.48-4.92,7.65c-3.87,2.18-7.94,2.28-9.1,0.23
			c-1.15-2.05,1.05-5.48,4.92-7.65C183.24,239.47,187.31,239.37,188.47,241.42z"/>
		<path class="st10" d="M260.65,232.77c-0.18,2.35-3.33,4.01-7.03,3.73c-3.7-0.29-6.55-2.42-6.37-4.77s3.33-4.01,7.03-3.73
			C257.98,228.29,260.83,230.43,260.65,232.77z"/>
	</g>
</g>
<g>
	<path class="st5" d="M437.33,186.15c-11.68-9.42-24.28-0.6-31.85,9.27c-1.34,1.75-4.54,1.41-4.49-1.21
		c0.15-7.25-0.94-15.55-5.33-21.15c-2.26-2.88-5.38-5.04-9.67-5.97c-12.61-2.74-23.26,7.71-25.82,19.3
		c-3.41,15.39,3.95,29.08,13.24,41.19c4.19,5.46,8.77,10.6,12.94,15.43c18.84-3.53,41.29-6.65,53.09-23.5
		C446.46,209.51,447.63,194.47,437.33,186.15z"/>
</g>
<g>
	<path class="st5" d="M115.89,335.86c-8.89,1.32-10.12,10.46-8.84,17.8c0.23,1.3-1.22,2.57-2.36,1.48
		c-3.14-3.01-7.24-5.9-11.48-6.24c-2.18-0.17-4.41,0.33-6.55,1.84c-6.33,4.45-6.04,13.38-1.98,19.22
		c5.4,7.75,14.42,10.07,23.53,10.89c4.11,0.37,8.23,0.44,12.05,0.56c6.09-9.74,13.83-20.89,11.2-32.94
		C129.89,341.32,123.74,334.69,115.89,335.86z"/>
</g>
</svg>
