<?xml version="1.0" encoding="utf-8"?>
<!-- Generator: Adobe Illustrator 28.1.0, SVG Export Plug-In . SVG Version: 6.00 Build 0)  -->
<svg version="1.1" id="Layer_1" xmlns="http://www.w3.org/2000/svg" xmlns:xlink="http://www.w3.org/1999/xlink" x="0px" y="0px"
	 viewBox="0 0 500 500" style="enable-background:new 0 0 500 500;" xml:space="preserve">
<style type="text/css">
	.st0{opacity:0.92;fill:#CFFFFF;enable-background:new    ;}
	.st1{opacity:0.92;enable-background:new    ;}
	.st2{opacity:0.92;fill:#8BE8E3;enable-background:new    ;}
	.st3{fill:#255D7C;}
	.st4{clip-path:url(#SVGID_00000065781924655894618190000015008716004237979558_);}
	.st5{fill-rule:evenodd;clip-rule:evenodd;fill:#AFB0B0;}
	.st6{fill-rule:evenodd;clip-rule:evenodd;fill:#FFEFE9;}
	.st7{fill-rule:evenodd;clip-rule:evenodd;fill:#748988;}
	.st8{fill-rule:evenodd;clip-rule:evenodd;fill:#255D7C;}
	.st9{fill-rule:evenodd;clip-rule:evenodd;fill:#EEEAE0;}
	.st10{fill-rule:evenodd;clip-rule:evenodd;fill:#9B693E;}
	.st11{fill:#026666;}
	.st12{fill:#0F7F7F;}
	.st13{fill:#00A2AB;}
</style>
<circle class="st0" cx="250" cy="250" r="174.71"/>
<g class="st1">
	<path class="st2" d="M420.59,212.47c-9.23-41.94-32.81-77.01-64.45-101.2c10.86,16.93,18.97,36.03,23.55,56.83
		c20.73,94.24-38.86,187.43-133.1,208.16c-52.3,11.5-104.27-1.74-143.71-31.9c38.37,59.79,111.18,92.42,184.62,76.27
		C381.73,399.9,441.32,306.71,420.59,212.47z"/>
</g>
<g>
	<g>
		<path class="st3" d="M429.28,180.49c-2.49,14.85-15.37,26.17-30.93,26.17c-17.34,0-31.4-14.06-31.4-31.4
			c0-15.56,11.33-28.44,26.18-30.93c-1.96-0.28-3.95-0.47-5.99-0.47c-23.53,0-42.61,19.08-42.61,42.61s19.08,42.61,42.61,42.61
			s42.61-19.08,42.61-42.61C429.75,184.44,429.56,182.45,429.28,180.49z"/>
		<path class="st3" d="M415.89,168.56c0.79-0.77,0.35-2.1-0.73-2.26l-8.36-1.22c-0.43-0.06-0.81-0.33-1-0.72l-3.74-7.58
			c-0.49-0.99-1.89-0.99-2.38,0l-3.74,7.58c-0.19,0.39-0.57,0.66-1,0.72l-8.36,1.22c-1.09,0.16-1.52,1.49-0.73,2.26l6.05,5.9
			c0.31,0.3,0.45,0.74,0.38,1.17l-1.43,8.33c-0.19,1.08,0.95,1.91,1.92,1.4l7.48-3.93c0.39-0.2,0.85-0.2,1.23,0l7.48,3.93
			c0.97,0.51,2.11-0.31,1.92-1.4l-1.43-8.33c-0.07-0.43,0.07-0.87,0.38-1.17L415.89,168.56z"/>
	</g>
</g>
<g>
	<defs>
		<circle id="SVGID_1_" cx="250" cy="250" r="174.71"/>
	</defs>
	<clipPath id="SVGID_00000020397475255499181530000018216952534045280651_">
		<use xlink:href="#SVGID_1_"  style="overflow:visible;"/>
	</clipPath>
	<g style="clip-path:url(#SVGID_00000020397475255499181530000018216952534045280651_);">
		<path class="st5" d="M243.23,313.52c-11.46,55.21,29.92,116.47,29.92,116.47l-19.71,69.11c0,0-21.41,13.09-12.72,14.35
			c8.7,1.26,20.76-3.76,20.76-3.76c7.1-17.19,19.36-43.57,31.84-71.8c20.91-47.32,42.45-99.86,41.43-123.11
			C332.82,271.27,263.15,274.62,243.23,313.52z"/>
		<path class="st5" d="M161.73,320.21c-10.43,12.11-39.44,41.26-52.9,61.08c-8.1,11.93-8.05,15.45-2,24.02
			c20.07,28.44,54.07,60.45,54.07,60.45s-2.43,18.44,7.19,17.6c9.62-0.84,3.91-25.51,3.91-25.51l-38.48-59.62l52.06-29.09
			L161.73,320.21z"/>
		<path class="st6" d="M176.58,150.39l1.47-0.04c1.64-3.86,6.29-6.64,11.76-6.64c5.17,0,9.59,2.48,11.46,6
			c66.59-1.84,56.15-1.92,66.49,12.39c19.97,27.66-0.99,42.49-20.91,30.53c-8.37-5.02-8.78-5.85-8.78-5.85s-3.77,6.69-23.42,10.46
			c-19.66,3.76-30.12-1.26-30.12-1.26s-27.61,70.27,2.93,77.38c30.53,7.11,56.05-22.59,47.26-36.39
			c-8.78-13.8,14.22-25.51,30.12-16.31c15.89,9.2,0,11.3,4.18,32.62c4.18,21.33,24.68,22.17,28.03,7.11
			c3.34-15.05-8.78-29.27-4.19-36.39c4.6-7.11,43.08-10.87,38.9,2.93c-4.18,13.8-10.04,11.71-3.76,26.35
			c6.27,14.64,30.53,17.15,39.73,52.29c5.41,20.64,8.52,35.51-11.8,57.57c-64.33,69.81-264.95,36.44-251.7-86.85
			C108.11,240.04,125.8,154.48,176.58,150.39z"/>
		<path class="st5" d="M185.39,196.33c-0.57-0.22-0.86-0.35-0.86-0.35s-27.61,70.27,2.93,77.38c2.78,0.65,5.52,0.99,8.2,1.06
			c-13.67,5.27-29.55,3.48-35.43-18.31c-6.76-25.07,11.55-75.78,11.55-75.78S172.25,186.66,185.39,196.33z"/>
		<path class="st7" d="M320.06,387.16c-52.59,21.72-130.35,13.49-176.95-22.56C200.46,381.28,251.55,352.64,320.06,387.16z"/>
		<path class="st6" d="M149.25,121.55c11.94,6.79,20.26,19.08,22.53,28.72c2.96,12.63-7.36,11.63-15.99,2.07
			C148.16,143.89,146.45,134.08,149.25,121.55z"/>
		<path class="st8" d="M162.83,158.1c-2.28-1.23-4.72-3.19-7.04-5.75c-7.36-8.15-9.22-17.57-6.82-29.46
			c9.23,9.25,14.1,22.28,14.14,31.72C163.12,155.94,163.02,157.1,162.83,158.1z"/>
		<path class="st6" d="M148.55,314.14c8.78,40.99,43.5,99.55,43.5,99.55l11.71,89.93c0,0-15.06,12.13-12.13,15.06
			c3.11,3.11,24.84-0.97,25.09-4.81c1.94-29.58,3.99-198.61,2.51-201.81C208.79,289.46,154.41,296.99,148.55,314.14z"/>
		<path class="st6" d="M266.44,316.86c-1.18,55.21,51.69,115.35,51.69,115.35l-11.64,69.11c0,0-14.26,14.22-5.33,15.48
			c8.93,1.26,20.06-3.76,20.06-3.76c10.45-46.02,45.52-157.79,36.97-194.91C348.15,274.62,279.11,277.96,266.44,316.86z"/>
		<path class="st6" d="M367.4,320.17c16.41,18.29,20.63,30.01,12.19,56.26c-8.44,26.25-2.34,28.36-2.34,28.36
			s-11.02-3.28-2.11-33.76c8.91-30.48-10.55-35.4-10.55-35.4L367.4,320.17z"/>
		<path class="st5" d="M400.83,437.05c-21.4,1.56-30.7-17.38-32.41-27.13c-2.24-12.78,8.54-18.25,16.61-8.22
			C392.16,410.57,391.67,425.92,400.83,437.05z"/>
		<path class="st5" d="M234.8,175.39c0.2-0.71,0.93-1.12,1.64-0.92c0.71,0.2,1.12,0.94,0.92,1.64l-0.08,0.29
			c-1.14,4.25-0.38,7.33,1.45,9.55c1.89,2.3,4.94,3.79,8.24,4.73l0.45,0.12c0.71,0.19,1.13,0.92,0.94,1.63
			c-0.19,0.71-0.91,1.13-1.63,0.94l-0.49-0.13c-3.76-1.07-7.28-2.82-9.56-5.61c-2.35-2.86-3.36-6.73-1.96-11.92L234.8,175.39z"/>
		<path class="st8" d="M189.18,151.17c-2.3,1.22-3.3,4.76-2.22,7.9c1.08,3.14,3.81,4.7,6.12,3.47c2.3-1.22,3.29-4.76,2.22-7.9
			C194.22,151.5,191.48,149.95,189.18,151.17z"/>
		<path class="st9" d="M188.32,153.6c-0.45,0.24-0.64,0.92-0.43,1.53c0.21,0.61,0.74,0.91,1.18,0.67c0.45-0.24,0.64-0.92,0.43-1.53
			C189.29,153.66,188.76,153.36,188.32,153.6z"/>
		<path class="st5" d="M254.47,155.89c2.04,0,4.03,2.08,4.43,4.65c0.41,2.57-0.91,4.65-2.95,4.65c-2.04,0-4.03-2.08-4.43-4.65
			C251.1,157.97,252.42,155.89,254.47,155.89z"/>
		<path class="st10" d="M258.9,160.54c-0.35-2.23-1.9-4.09-3.63-4.54c-0.26-0.07-0.53-0.11-0.8-0.11c-2.04,0-3.36,2.08-2.95,4.65
			c0.08,0.48,0.21,0.94,0.39,1.38c-0.29-2.42,0.96-4.35,2.88-4.41c0.03,0,0.07,0,0.1,0c1.66,0,3.28,1.38,4.05,3.27
			C258.92,160.7,258.91,160.62,258.9,160.54z"/>
		<path class="st5" d="M345.68,366.65c2.4,0,4.36-1.96,4.36-4.36c0-2.4-1.96-4.36-4.36-4.36c-2.4,0-4.36,1.96-4.36,4.36
			C341.32,364.69,343.28,366.65,345.68,366.65z"/>
		<path class="st5" d="M340.99,377.96c1.42,0,2.58-1.16,2.58-2.59c0-1.42-1.16-2.58-2.58-2.58c-1.43,0-2.59,1.16-2.59,2.58
			C338.41,376.8,339.57,377.96,340.99,377.96z"/>
		<path class="st5" d="M331.94,370.85c2.14,0,3.88-1.74,3.88-3.88s-1.74-3.88-3.88-3.88c-2.13,0-3.87,1.74-3.87,3.88
			S329.81,370.85,331.94,370.85z"/>
		<path class="st5" d="M250.48,230.92c1.79,0,3.25-1.46,3.25-3.25c0-1.79-1.46-3.25-3.25-3.25c-1.79,0-3.25,1.46-3.25,3.25
			C247.23,229.46,248.69,230.92,250.48,230.92z"/>
		<path class="st5" d="M246.98,239.35c1.06,0,1.93-0.86,1.93-1.93c0-1.06-0.87-1.93-1.93-1.93c-1.06,0-1.93,0.86-1.93,1.93
			C245.06,238.49,245.92,239.35,246.98,239.35z"/>
		<path class="st5" d="M240.24,234.05c1.59,0,2.89-1.3,2.89-2.89c0-1.59-1.3-2.89-2.89-2.89s-2.89,1.3-2.89,2.89
			C237.35,232.76,238.65,234.05,240.24,234.05z"/>
		<path class="st5" d="M242.31,253.74c1.79,0,3.25-1.46,3.25-3.25c0-1.79-1.46-3.25-3.25-3.25c-1.79,0-3.25,1.46-3.25,3.25
			C239.06,252.28,240.52,253.74,242.31,253.74z"/>
		<path class="st5" d="M181.75,344.34c-1.45,1.06-1.77,3.09-0.72,4.54c1.06,1.45,3.09,1.77,4.54,0.71c1.45-1.06,1.77-3.09,0.72-4.54
			C185.23,343.6,183.2,343.28,181.75,344.34z"/>
		<path class="st5" d="M185.44,355.35c0.86-0.63,2.06-0.44,2.69,0.42c0.63,0.86,0.43,2.07-0.42,2.69c-0.86,0.63-2.07,0.44-2.69-0.42
			C184.39,357.18,184.58,355.97,185.44,355.35z"/>
		<path class="st5" d="M175.74,353.47c1.29-0.94,3.1-0.65,4.04,0.64c0.94,1.29,0.65,3.1-0.64,4.04c-1.29,0.94-3.1,0.65-4.04-0.64
			C174.16,356.22,174.45,354.41,175.74,353.47z"/>
		<path class="st5" d="M188.57,367.59c-1.45,1.06-1.77,3.09-0.72,4.54c1.06,1.45,3.09,1.77,4.54,0.72c1.45-1.06,1.77-3.09,0.72-4.54
			C192.05,366.86,190.02,366.54,188.57,367.59z"/>
	</g>
	<g style="clip-path:url(#SVGID_00000020397475255499181530000018216952534045280651_);">
		<g>
			<path class="st11" d="M391.5,367.46c0.12-0.39,8.88-16.93,19.95-20.06c11.07-3.13,16.53,1.18,14.91,10.05
				C424.74,366.33,391.5,367.46,391.5,367.46z"/>
		</g>
		<g>
			<path class="st11" d="M416.26,390.46c0,0,8.44-5.54,18.85-7.21c10.42-1.67,14.31,6.91,7.24,12.23
				C435.28,400.81,416.26,390.46,416.26,390.46z"/>
		</g>
		<g>
			<path class="st11" d="M275.91,406.3c0,0-26.69-1.39-35.49,6.48c-8.8,7.87,9.68,16.33,25.26,11.9
				c14.71-4.18,30.32-8.96,30.32-8.96L275.91,406.3z"/>
		</g>
		<g>
			<path class="st11" d="M280.01,355.91c0,0-36.89-0.08-43.74,7.15c-3.87,4.09-4.71,13.38,18.63,17.83
				c23.34,4.45,39.2,0.41,39.2,0.41L280.01,355.91z"/>
		</g>
		<g>
			<path class="st12" d="M275.64,421.04c0,0-38.42-2.77-41.97-25.81s29.79-23.99,38.54-20.05c0,0-30.46-5.42-33.92-29.1
				c-3.46-23.68,38.86-30.42,60.11-5.2c0,0,0-27.99,21.11-32.97c22.25-5.26,43.74,12.84,49.69,33c0,0,10.54-9.71,20.02-10.68
				c13.07-1.33,28.48,11.06,22.73,25.31c0,0,11.54-6.2,23.07,0.15c13.56,7.47,9.51,28.67-8.12,36.35c0,0,15.99,2.92,12.31,10.89
				c-3.68,7.97-25.72,4.22-25.72,4.22s8.89,17.85-72.09,24.02C238.53,439,275.64,421.04,275.64,421.04z"/>
		</g>
		<path class="st13" d="M208.78,378.01c-5.95-0.42-13.04,1.33-13.87,3.43c-0.83,2.1,7.35,7.9,17.15,6.19
			C221.86,385.92,218.47,378.7,208.78,378.01z"/>
		<path class="st13" d="M227.59,374.64c-2.09-3.09-6.39-5.69-8.42-5.09c-2.03,0.6-3.35,7.36,2.03,11.3
			C226.58,384.79,231,379.67,227.59,374.64z"/>
		<path class="st13" d="M217.54,390.34c-4.56,2-8.57,5.88-7.84,7.59c0.73,1.72,10.31,2.44,16.31-2.45
			C232,390.59,224.97,387.08,217.54,390.34z"/>
		<path class="st13" d="M394.71,309.51c-0.37-4.64-3.64-9.58-6.41-9.66c-2.78-0.08-8.85,7.68-5.22,14.7
			C386.72,321.56,395.31,317.08,394.71,309.51z"/>
		<path class="st13" d="M401.81,322.95c3.58-2.41,6.21-6.37,5.14-7.75c-1.07-1.39-9.79-0.61-13.94,4.52S395.98,326.87,401.81,322.95
			z"/>
		<path class="st13" d="M380.5,319.44c-3.21-2.95-8.7-4.98-10.75-3.97c-2.05,1.01-1.52,8.5,5.55,11.78
			C382.37,330.52,385.72,324.24,380.5,319.44z"/>
		<path class="st13" d="M459.65,379.59c5.89,0.68,13.07-0.77,14.05-2.84c0.98-2.07-6.75-8.23-16.63-6.94
			C447.18,371.11,450.05,378.48,459.65,379.59z"/>
		<path class="st13" d="M457.12,367.78c4.68-1.81,8.95-5.52,8.34-7.27c-0.61-1.75-10.09-2.89-16.4,1.76
			C442.74,366.91,449.49,370.72,457.12,367.78z"/>
		<path class="st13" d="M304.47,296.12c-3.88-3.39-10.42-5.66-12.8-4.43c-2.38,1.23-1.49,10.01,6.95,13.71
			C307.06,309.09,310.79,301.65,304.47,296.12z"/>
		<path class="st13" d="M296.96,307.03c-4.95-0.77-11.11,0.23-12.05,1.96c-0.94,1.73,5.27,7.23,13.71,6.46
			C307.05,314.67,305.03,308.29,296.96,307.03z"/>
		<path class="st13" d="M316.9,302.73c1.13-2.55,0.87-5.76-0.53-6.28c-1.39-0.52-6.7,2.6-6.84,6.98
			C309.39,307.82,315.05,306.89,316.9,302.73z"/>
	</g>
</g>
</svg>
