<?xml version="1.0" encoding="utf-8"?>
<!-- Generator: Adobe Illustrator 28.1.0, SVG Export Plug-In . SVG Version: 6.00 Build 0)  -->
<svg version="1.1" id="Layer_1" xmlns="http://www.w3.org/2000/svg" xmlns:xlink="http://www.w3.org/1999/xlink" x="0px" y="0px"
	 viewBox="0 0 500 500" style="enable-background:new 0 0 500 500;" xml:space="preserve">
<style type="text/css">
	.st0{opacity:0.92;fill:#CFFFFF;enable-background:new    ;}
	.st1{opacity:0.92;enable-background:new    ;}
	.st2{opacity:0.92;fill:#8BE8E3;enable-background:new    ;}
	.st3{clip-path:url(#SVGID_00000116198597079705612100000018436256062163351224_);}
	.st4{fill:#255D7C;}
	.st5{fill:#FFFFFF;}
	.st6{fill:#15465B;}
	.st7{fill:#FFEFE9;}
	.st8{fill:#0F7F7F;}
	.st9{fill:#C2E4EC;}
	.st10{fill:#00A2AB;}
</style>
<circle class="st0" cx="250" cy="250" r="174.71"/>
<g class="st1">
	<path class="st2" d="M420.59,212.47c-9.23-41.94-32.81-77.01-64.45-101.2c10.86,16.93,18.97,36.03,23.55,56.83
		c20.73,94.24-38.86,187.43-133.1,208.16c-52.3,11.5-104.27-1.74-143.71-31.9c38.37,59.79,111.18,92.42,184.62,76.27
		C381.73,399.9,441.32,306.71,420.59,212.47z"/>
</g>
<g>
	<defs>
		<circle id="SVGID_1_" cx="250" cy="250" r="174.71"/>
	</defs>
	<clipPath id="SVGID_00000174592726921552431530000015543905735489346224_">
		<use xlink:href="#SVGID_1_"  style="overflow:visible;"/>
	</clipPath>
	<g style="clip-path:url(#SVGID_00000174592726921552431530000015543905735489346224_);">
		<g>
			<path class="st4" d="M125.35,223.96c6.55-23.36,27.5-44.62,55.24-48.18c17.39-2.23,34,1.51,48.98,8.26
				c5.33,2.4,10.34,5.26,15.14,8.38c4.09-9.28,11.23-16.96,20.13-23.5c9.99-7.33,21.71-12.82,34.31-14.81
				c12.86-2.03,25.68-0.94,37.02,4.1c11.1,4.93,19.82,13.37,26.29,22.58c12.91,18.38,16.1,41.79,12.8,63.74
				c-3.47,23.04-14.06,44.88-27.42,65.26c-15.61,23.81-34.34,46.17-52.13,68.8c-2.26,2.88-6.9,5.18-10.77,3.91
				c-13.57-4.46-26.79-9.77-39.52-15.71c-12.34-5.76-24.58-11.92-36.32-18.54c-12.15-6.86-23.43-14.63-34.15-23.1
				c-10.72-8.46-20.79-17.5-29.31-27.77c-9.28-11.19-16.83-23.36-20.64-37.12C121.73,248.43,121.94,236.11,125.35,223.96z"/>
			<path class="st5" d="M179.85,218.81c-1.18-1.66-2.67-3.02-4.42-4.04c-2.87-1.67-6.06-1.4-9.14-0.78
				c-3.63,0.73-6.77,2.19-9.61,4.6c-2.15,1.82-4.06,3.7-5.72,5.98c-3.79,5.24-6.68,10.88-8.02,17.28c-0.66,3.16-0.96,6.48-0.95,9.69
				c0,1.07,0.06,2.13,0.19,3.19c0.41,3.5,1.19,6.02,2.8,9.13c4.25,8.2,16.62,12.61,21.99,2.89c3.06-5.53,1.54-11.5,1.58-17.4
				c0.24-1.67,0.62-3.32,1.11-4.93c0.57-1.28,1.22-2.52,1.95-3.71c1.06-1.32,2.2-2.57,3.49-3.69c-0.85,0.72-1.7,1.44-2.56,2.16
				c1.52-1.26,2.94-2.43,4.18-3.94c0.6-0.73,1.24-1.41,1.91-2.07C182.25,229.72,182.72,222.85,179.85,218.81z"/>
			<path class="st5" d="M183.95,307.95c0.32-1.24,0.46-2.51-0.01-3.77c-0.29-0.76-0.63-1.51-0.95-2.26c-0.56-2.15-2-4.24-3.5-5.69
				c-0.91-0.89-1.84-1.75-2.77-2.63c-1.32-1.25-2.56-2.55-4.12-3.52c-1.07-0.67-2.25-1.2-3.38-1.78c-2.45-1.27-5.92-0.83-7.75,1.36
				c-1.9,2.27-2.15,5.28-0.66,7.84c0.65,1.11,1.25,2.27,1.98,3.32c1.02,1.46,2.5,2.66,3.79,3.88c2.52,2.39,5.22,5.17,8.74,5.73
				c0.73,0.27,1.45,0.58,2.19,0.8c1.21,0.35,2.42,0.14,3.58-0.23c0.03,0.01,0.06,0.02,0.1,0.03c1.72,0.53,3.36-1.42,2.77-3.03
				C183.95,307.97,183.95,307.96,183.95,307.95z"/>
			<g>
				<path class="st6" d="M362.46,180.8c-6.47-9.22-15.19-17.65-26.29-22.58c-11.33-5.04-24.15-6.13-37.02-4.1
					c-2.36,0.37-4.68,0.87-6.97,1.47c9.02,17.93,16.62,46.04,7.66,84.14c-11.51,48.92-48.07,93.79-72.12,118.47
					c5.85,2.97,11.76,5.84,17.7,8.61c12.74,5.94,25.95,11.25,39.52,15.71c3.87,1.27,8.51-1.03,10.77-3.91
					c17.79-22.63,36.51-44.99,52.13-68.8c13.36-20.38,23.95-42.21,27.42-65.26C378.56,222.59,375.37,199.18,362.46,180.8z"/>
			</g>
		</g>
		<path class="st7" d="M567.6,142.94c-6.53,4.03-190.55,69.81-195.82,70.38c-5.27,0.57-25.44,2.61-42.18-0.23
			c-16.74-2.84-26.01-1.53-34,1.78c-7.99,3.31-3.04,12.56,2.97,14.17c6.01,1.61,19.48,3.74,19.48,3.74s-51.6,12.58-59.95,16.62
			c-8.35,4.04-8,13.44,0.6,12.55c18.18-1.9,50.82-8.05,49.25-8.76c0,0-44.14,13.1-53.03,17.32c-8.89,4.22-6.11,17.85,4.07,15.62
			c10.18-2.23,56.68-15.52,54.86-15.51c-1.82,0.01-42.49,16.18-49.2,21.49c-6.71,5.3-1.21,14.37,6.6,12.34
			c7.81-2.03,52.67-16.59,52.67-16.59s-33.95,14.51-41.02,18.72c-7.08,4.21-2.49,14.2,6.42,11.79c8.9-2.4,41.96-12.36,49.59-14.94
			c7.63-2.58,31.4-14.86,41.37-23.09c9.97-8.23,219.67-67.04,219.67-67.04L567.6,142.94z"/>
		<g>
			<path class="st8" d="M576.76,225.76c-3.95,5.24-165.39,53.64-176.43,51.01c-11.04-2.63-33.69-64.33-26.58-68.97
				c7.1-4.64,161.5-63.89,165.9-64.18C544.04,143.32,580.17,221.23,576.76,225.76z"/>
		</g>
		<g>
			<path class="st9" d="M441.07,268.35c-0.57-0.8-1.13-1.55-1.58-2.22c-2.58-3.82-5.06-7.73-7.38-11.7
				c-4.7-8.06-9.14-16.22-12.63-24.89c-3.14-7.82-5.77-17.01-7.53-25.68c-0.79-3.87-1.4-7.79-1.85-11.72
				c-5.86,2.32-11.27,4.48-16.09,6.42c0.47,3.05,1,6.1,1.67,9.11c2.21,9.98,5.55,19.64,9.8,28.93c4.12,9.01,9.08,17.72,15.2,25.53
				c2.58,3.29,5.35,6.39,8.28,9.35C432.77,270.52,436.82,269.48,441.07,268.35z"/>
			<path class="st9" d="M448.1,223.91c3.85,9.66,8.55,18.94,14.14,27.71c1.99,3.12,4.18,6.18,6.48,9.12
				c3.78-1.07,7.61-2.17,11.46-3.28c-2.3-3.96-4.53-7.94-6.75-11.94c-4.72-8.52-8.95-17.43-12.29-26.58
				c-3.45-9.44-6.15-19.13-7.83-29.04c-0.8-4.72-1.3-9.34-1.78-13.95c-5.18,2-10.33,4-15.38,5.96c0.63,3.85,1.45,7.68,2.34,11.46
				C440.94,203.78,444.15,213.98,448.1,223.91z"/>
			<path class="st9" d="M503.83,198.7c-4.03-10.27-7.93-20.15-11.53-31.27c-0.68-2.11-1.29-4.24-1.82-6.4
				c-5.96,2.26-12.21,4.64-18.6,7.09c2.13,7.38,5.16,14.55,8.3,21.5c7.93,17.57,18.1,34.38,29.2,50.12
				c1.75,2.48,3.52,4.98,5.35,7.44c3.87-1.18,7.67-2.36,11.35-3.51c-2.43-4.28-4.88-8.54-7.19-12.89
				C513.35,220.36,508.15,209.69,503.83,198.7z"/>
		</g>
	</g>
	<g style="clip-path:url(#SVGID_00000174592726921552431530000015543905735489346224_);">
		<path class="st7" d="M75.29,372.71c5.23-2.02,79.94-37.62,82.6-40.44c2.66-2.82,12.76-13.66,18.51-24.67
			c5.75-11.01,10.61-15.82,16.06-19.01c5.46-3.19,8.66,3.78,6.94,7.99c-1.72,4.21-6.43,12.99-6.43,12.99s30.13-24.49,36.17-27.56
			c6.04-3.08,11.36,1.28,7.04,5.89c-9.14,9.75-27.15,26.04-26.87,24.81c0,0,27.14-19.92,33.53-23.23c6.39-3.31,13.09,4.33,7.3,9.27
			c-5.79,4.94-34.09,26.15-33.28,25.09c0.81-1.06,28.2-17.59,34.26-19.15c6.05-1.56,8.91,5.65,4.27,9.3
			c-4.64,3.65-32.94,23.34-32.94,23.34s23.46-13.36,29.04-15.61c5.58-2.26,9.37,4.83,4.03,8.95c-5.33,4.12-25.74,18.97-30.62,22.27
			c-4.87,3.3-22.53,11.72-31.73,13.89c-9.2,2.17-91.2,55.8-91.2,55.8L75.29,372.71z"/>
		<path class="st4" d="M172.34,389.33c2.77-2.21,3.71-6.59,2.34-9.8c-1.05-2.46-4.27-1.98-5.61-0.21c-0.52,0.69-0.78,1.35-0.89,2.2
			c-0.06,0.46,0.1,1.56-0.12,1.97c-0.27,0.52-0.88,0.63-1.48,0.58c-2.32-0.17-4.13-3.21-5.31-4.9c-3.97-5.69-7.48-11.69-10.4-17.99
			c-2.77-5.99-5.21-12.33-6.64-18.79c-0.33-1.5-1.05-4.77,1.14-5.19c1.68-0.33,3.66,0.96,4.58-1.26c1.13-2.71-1.69-4.79-4.12-4.89
			c-2.46-0.11-4.99,1.11-6.45,3.07c-3.97,5.29-0.51,13.57,1.28,19.04c2.35,7.15,5.31,14.1,8.97,20.68c1.86,3.35,3.89,6.61,6.1,9.74
			c1.85,2.61,3.82,5.16,6.76,6.59C165.62,391.69,169.55,391.56,172.34,389.33z"/>
		<path class="st4" d="M145.73,402.52c2.77-1.66,5.37-5.01,3.81-8.3c-0.84-1.78-3.44-2.17-4.82-0.81c-1.38,1.36-1.43,3.16-3.54,3.67
			c-2.03,0.49-3.96-1-5.28-2.38c-4.47-4.67-6.87-11.45-8.69-17.52c-1.99-6.59-3.58-13.32-5.26-19.99c-0.67-2.64-1.64-5.91-0.14-8.45
			c0.56-0.95,1.46-1.79,2.66-1.55c1.07,0.22,1.71,1.23,2.82,1.47c1.18,0.25,2.26-0.24,2.69-1.41c1.06-2.94-2.01-5.09-4.54-5.62
			c-3.11-0.65-6.15,0.63-8.08,3.1c-4.57,5.83-1.38,14.01,0.13,20.36c1.82,7.66,3.49,15.41,6.49,22.72
			c2.49,6.07,6.32,13.29,12.93,15.6C139.82,404.43,143.09,404.11,145.73,402.52z"/>
	</g>
</g>
<g>
	<path class="st10" d="M438.9,313.13c-3.71-9.89-13.58-18.33-25.74-18.84c-7.62-0.32-14.69,1.92-20.93,5.4
		c-2.22,1.24-4.29,2.67-6.25,4.2c-2.12-3.87-5.5-6.94-9.6-9.44c-4.6-2.81-9.89-4.75-15.43-5.15c-5.65-0.4-11.17,0.55-15.9,3.15
		c-4.63,2.55-8.1,6.53-10.56,10.77c-4.91,8.45-5.43,18.72-3.18,28.12c2.36,9.86,7.76,18.94,14.31,27.28
		c7.66,9.75,16.61,18.75,25.16,27.9c1.09,1.16,3.19,1.99,4.82,1.29c5.72-2.44,11.25-5.23,16.56-8.28
		c5.14-2.95,10.22-6.08,15.06-9.39c5.01-3.42,9.62-7.22,13.95-11.28c4.33-4.07,8.37-8.36,11.68-13.13
		c3.61-5.2,6.43-10.75,7.57-16.87C441.38,323.6,440.83,318.27,438.9,313.13z"/>
	<path class="st5" d="M428.1,314.7c-0.49-1.06-1.07-2.1-1.65-3.12c-0.6-1.05-1.5-1.87-2.36-2.71c-1.11-1.09-2.43-2.05-3.87-2.64
		c-1.51-0.62-3.32-1.31-5.04-1.36c-1.49-0.34-3.03-0.4-4.56-0.31c-1.94,0.12-3.98,0.78-5.43,2.12c-0.73,0.41-1.39,0.94-1.73,1.76
		c-0.1,0.33-0.2,0.66-0.31,0.99c0.09-0.28,0.15-0.46,0.19-0.61c-0.24,0.8-0.44,1.62-0.06,2.44c0.24,0.52,0.48,0.99,0.87,1.42
		c0.11,0.12,0.24,0.19,0.35,0.29c0.01,0.01,0.02,0.03,0.03,0.04c0.28,0.42,0.67,0.77,1.04,1.11c0.22,0.21,0.45,0.42,0.67,0.63
		c0.24,0.24,0.49,0.48,0.74,0.71c0.26,0.3,0.5,0.61,0.74,0.93c0.06,0.15,0.12,0.3,0.18,0.46c0.1,0.24,0.18,0.48,0.27,0.73
		c0.13,0.38,0.3,0.75,0.48,1.11c-0.08-0.15-0.16-0.31-0.24-0.46c0.2,0.39,0.39,0.79,0.55,1.2c0.21,0.53,0.45,1.03,0.71,1.53
		c-0.09-0.16-0.17-0.32-0.26-0.49c0.94,1.78,1.34,3.77,2.57,5.41c2.01,2.7,5.35,4.41,8.77,3.97c0.7-0.09,1.75-0.35,2.41-0.57
		c3.14-1.05,5.52-4.14,6.04-7.36C429.58,319.46,429.13,316.92,428.1,314.7z"/>
	<path class="st5" d="M421.29,341.71c-0.03-0.23-0.06-0.47-0.1-0.7c-0.15-0.76-0.39-1.4-0.93-1.98c-0.5-0.54-1.19-0.99-1.95-1.08
		c-0.61-0.07-1.22-0.02-1.8,0.18c-0.76,0.25-1.62,1.03-1.91,1.78c-0.05,0.14-0.12,0.27-0.18,0.41c-0.17,0.18-0.33,0.36-0.5,0.53
		c-0.32,0.34-0.61,0.72-0.81,1.16c-0.06,0.1-0.11,0.21-0.16,0.31c-0.07,0.14-0.15,0.27-0.23,0.4c-0.24,0.37-0.49,0.74-0.69,1.13
		c-0.07,0.14-0.16,0.27-0.23,0.41c-0.12,0.4-0.25,0.8-0.37,1.2c-0.08,0.4-0.08,0.78-0.03,1.17c-0.1,1.31,0.46,2.65,1.46,3.49
		c1.09,0.91,2.83,1.31,4.16,0.7c0.08-0.04,0.15-0.08,0.23-0.11c0.92-0.24,1.78-0.72,2.36-1.48c0.46-0.6,0.93-1.23,1.21-1.93
		c0.28-0.69,0.48-1.41,0.69-2.13C421.85,343.99,421.61,342.84,421.29,341.71z"/>
</g>
<g>
	<g>
		<path class="st8" d="M192.59,363.58c2.83,6.93-4.52,31.14-8.5,30.98c-3.98-0.16-9.26-26.26-5.92-31.57
			c2.73-4.35,7.21,0.3,7.21,0.3S190.64,358.82,192.59,363.58z"/>
	</g>
	<g>
		<path class="st8" d="M175.44,429.28c-2.83-6.93,4.52-31.14,8.5-30.98c3.98,0.16,9.25,26.26,5.92,31.57
			c-2.73,4.35-7.21-0.3-7.21-0.3S177.38,434.04,175.44,429.28z"/>
	</g>
	<g>
		<path class="st8" d="M213.16,379.03c-2.84,6.92-25.06,19.04-27.78,16.13c-2.72-2.91,11.82-25.21,17.92-26.66
			c5-1.19,4.93,5.27,4.93,5.27S215.11,374.27,213.16,379.03z"/>
	</g>
	<g>
		<path class="st8" d="M154.87,413.84c2.84-6.93,25.06-19.04,27.78-16.13c2.72,2.91-11.82,25.21-17.92,26.66
			c-5,1.19-4.93-5.27-4.93-5.27S152.91,418.6,154.87,413.84z"/>
	</g>
	<g>
		<path class="st8" d="M201.49,425.54c-6.93-2.82-19.1-25.01-16.2-27.74c2.9-2.73,25.24,11.76,26.71,17.85
			c1.2,5-5.25,4.94-5.25,4.94S206.25,427.48,201.49,425.54z"/>
	</g>
	<g>
		<path class="st8" d="M166.54,367.33c6.93,2.82,19.1,25.01,16.2,27.74c-2.9,2.73-25.24-11.76-26.71-17.85
			c-1.2-5,5.25-4.94,5.25-4.94S161.77,365.39,166.54,367.33z"/>
	</g>
	<g>
		<path class="st8" d="M217.32,403.01c-6.74,3.24-31.36-2.63-31.44-6.61c-0.08-3.98,25.66-10.82,31.16-7.81
			c4.51,2.47,0.14,7.21,0.14,7.21S221.95,400.78,217.32,403.01z"/>
	</g>
	<g>
		<path class="st8" d="M150.71,389.86c6.74-3.24,31.36,2.63,31.44,6.61c0.08,3.98-25.66,10.82-31.16,7.81
			c-4.51-2.47-0.14-7.21-0.14-7.21S146.07,392.08,150.71,389.86z"/>
	</g>
	<path class="st5" d="M187.87,396.52c0,2.39-1.94,4.32-4.32,4.32c-2.39,0-4.32-1.93-4.32-4.32c0-2.39,1.93-4.32,4.32-4.32
		C185.94,392.2,187.87,394.14,187.87,396.52z"/>
</g>
</svg>
