<?xml version="1.0" encoding="utf-8"?>
<!-- Generator: Adobe Illustrator 28.1.0, SVG Export Plug-In . SVG Version: 6.00 Build 0)  -->
<svg version="1.1" id="Layer_1" xmlns="http://www.w3.org/2000/svg" xmlns:xlink="http://www.w3.org/1999/xlink" x="0px" y="0px"
	 viewBox="0 0 500 500" style="enable-background:new 0 0 500 500;" xml:space="preserve">
<style type="text/css">
	.st0{opacity:0.92;fill:#F9ED32;enable-background:new    ;}
	.st1{opacity:0.92;enable-background:new    ;}
	.st2{opacity:0.92;fill:#EFD906;enable-background:new    ;}
	.st3{fill:#00706D;}
	.st4{fill:#015B59;}
	.st5{clip-path:url(#SVGID_00000137131974565740865830000013300416992083191733_);}
	.st6{fill:#009393;}
	.st7{fill:#026666;}
	.st8{fill:#15465B;}
	.st9{fill:#255D7C;}
	.st10{fill:#00A3AB;}
	.st11{fill:#FFFFFF;}
	.st12{fill:#FFEFE9;}
	.st13{fill:#FFD7C5;}
	.st14{opacity:0.22;fill:#EC8C65;}
</style>
<circle class="st0" cx="250" cy="250" r="174.71"/>
<g class="st1">
	<path class="st2" d="M420.59,212.47c-9.23-41.94-32.81-77.01-64.45-101.2c10.86,16.93,18.97,36.03,23.55,56.83
		c20.73,94.24-38.86,187.43-133.1,208.16c-52.3,11.5-104.27-1.74-143.71-31.9c38.37,59.79,111.18,92.42,184.62,76.27
		C381.73,399.9,441.32,306.71,420.59,212.47z"/>
</g>
<g>
	<g>
		<path class="st3" d="M440.11,205.04c-1.05,2.68-2.35,5.37-3.89,8.01c-3.9,6.69-9.29,13.03-15.82,17.78
			c-2.15,1.55-35.38-8.41-40.26-26.15c-2.24-8.14-0.32-13.18,3.08-16.08c3.78-3.24,9.38-3.82,13.09-3.13
			c8.07,1.52,14.64,9.5,15.13,9.07c1.47-1.28,2.03-23.1,21.42-19.13c1.45,0.29,2.74,0.78,3.87,1.41
			C444.4,181.17,444.86,192.91,440.11,205.04z"/>
		<g>
			<path class="st4" d="M436.22,213.06c-3.9,6.69-9.29,13.03-15.82,17.78c-2.15,1.55-35.38-8.41-40.26-26.15
				c-2.24-8.14-0.32-13.18,3.08-16.08c4.04,10.07,15.45,33.65,49.41,25.25C433.89,213.54,435.09,213.27,436.22,213.06z"/>
		</g>
	</g>
</g>
<g>
	<defs>
		<circle id="SVGID_1_" cx="250" cy="250" r="174.71"/>
	</defs>
	<clipPath id="SVGID_00000127003543434179339970000007268740876121677732_">
		<use xlink:href="#SVGID_1_"  style="overflow:visible;"/>
	</clipPath>
	<g style="clip-path:url(#SVGID_00000127003543434179339970000007268740876121677732_);">
		<g>
			<g>
				<path class="st3" d="M332.07,263.02c-1.26,3.84-2.87,7.7-4.81,11.52c-4.93,9.67-11.97,18.97-20.73,26.12
					c-2.88,2.34-50.16-8.98-58.39-33.42c-3.78-11.21-1.48-18.41,3.04-22.75c5.04-4.83,12.83-6.09,18.07-5.42
					c11.42,1.49,21.23,12.14,21.88,11.5c1.96-1.91,1.02-32.48,28.46-28.45c2.05,0.29,3.9,0.87,5.53,1.67
					C336.19,229.28,337.76,245.67,332.07,263.02z"/>
				<g>
					<path class="st4" d="M327.26,274.54c-4.93,9.67-11.97,18.97-20.73,26.12c-2.88,2.34-50.16-8.98-58.39-33.42
						c-3.78-11.21-1.48-18.41,3.04-22.75c6.44,13.76,24.27,45.86,71.12,31.43C324.05,275.39,325.69,274.93,327.26,274.54z"/>
				</g>
			</g>
		</g>
		<g>
			<path class="st6" d="M343.93,295.45c-1.99,1.53-4.18,2.96-6.52,4.24c-5.93,3.25-12.82,5.57-19.85,6.17
				c-2.31,0.19-22.68-22.24-18.34-37.72c1.99-7.1,5.71-10,9.55-10.65c4.29-0.72,8.75,1.37,11.21,3.56
				c5.36,4.78,6.67,13.71,7.23,13.61c1.68-0.29,11.93-16.37,24.65-4.66c0.96,0.87,1.7,1.82,2.26,2.8
				C357.9,279.52,352.95,288.52,343.93,295.45z"/>
			<g>
				<path class="st7" d="M337.4,299.7c-5.93,3.25-12.82,5.57-19.85,6.17c-2.31,0.19-22.68-22.24-18.34-37.72
					c1.99-7.1,5.71-10,9.55-10.65c-1.52,9.35-3.61,32.14,25.59,41.17C335.45,299.01,336.46,299.35,337.4,299.7z"/>
			</g>
		</g>
		<g>
			<path class="st6" d="M272.42,280.9c-1,2.74-2.25,5.49-3.74,8.21c-3.78,6.87-9.08,13.42-15.58,18.39
				c-2.13,1.62-36.02-7.64-41.39-25.48c-2.47-8.18-0.64-13.33,2.72-16.36c3.75-3.37,9.4-4.1,13.17-3.49
				c8.21,1.34,15.05,9.26,15.53,8.81c1.46-1.33,1.49-23.43,21.21-19.89c1.48,0.26,2.79,0.72,3.95,1.33
				C276.17,256.63,276.93,268.51,272.42,280.9z"/>
			<g>
				<path class="st7" d="M268.68,289.11c-3.78,6.87-9.08,13.42-15.58,18.39c-2.13,1.62-36.02-7.64-41.39-25.48
					c-2.47-8.18-0.64-13.33,2.72-16.36c4.33,10.09,16.46,33.68,50.63,24.34C266.34,289.65,267.54,289.36,268.68,289.11z"/>
			</g>
		</g>
		<rect x="243.14" y="289.24" class="st8" width="157.13" height="157.13"/>
		<rect x="194.54" y="289.24" class="st9" width="157.13" height="157.13"/>
		<g>
			<path class="st10" d="M279.03,405.78h-35.61v-35.76c0-13.12,10.63-23.75,23.75-23.75h35.61v35.76
				C302.79,395.15,292.15,405.78,279.03,405.78z"/>
			<g>
				<g>
					<g>
						<g>
							<path class="st11" d="M265.45,368.82c0-1.92,1.74-2.73,4.18-2.73c2.67,0,6.1,1.05,9.12,2.85l2.73-5.46
								c-3.08-2.09-7.32-3.31-11.39-3.31c-6.28,0-11.74,2.96-11.74,9.36c-0.06,11.04,16.16,7.9,16.16,13.66
								c0,2.03-1.98,2.91-4.59,2.91c-3.37,0-7.67-1.4-10.52-3.84l-2.62,5.29c3.25,2.85,8.14,4.36,12.84,4.36
								c6.63,0,12.26-3.08,12.26-9.41C281.9,371.32,265.45,374.05,265.45,368.82"/>
							<circle class="st11" cx="292.91" cy="387.26" r="4.17"/>
						</g>
					</g>
				</g>
			</g>
		</g>
	</g>
	<g style="clip-path:url(#SVGID_00000127003543434179339970000007268740876121677732_);">
		<g>
			<path class="st6" d="M255.64,221.05c-3.99,3.07-8.36,5.92-13.05,8.49c-11.87,6.5-25.65,11.13-39.7,12.35
				c-4.61,0.39-45.36-44.48-36.67-75.44c3.99-14.2,11.41-20.01,19.11-21.29c8.58-1.43,17.49,2.74,22.42,7.11
				c10.71,9.55,13.34,27.41,14.46,27.21c3.36-0.59,23.87-32.74,49.3-9.32c1.91,1.75,3.4,3.64,4.52,5.6
				C283.58,189.19,273.68,207.18,255.64,221.05z"/>
			<g>
				<path class="st7" d="M242.59,229.54c-11.87,6.5-25.65,11.13-39.7,12.35c-4.61,0.39-45.36-44.48-36.67-75.44
					c3.99-14.2,11.41-20.01,19.11-21.29c-3.03,18.7-7.22,64.29,51.19,82.33C238.68,228.16,240.7,228.84,242.59,229.54z"/>
			</g>
		</g>
		<g>
			<path class="st12" d="M213.5,235.87c-1.12,0.36-1.92,0.58-1.82,1.08c0.06,0.3,0.12,0.84,0.12,1.58c0.02,0.6,0.02,1.32-0.02,2.12
				v0.02c-0.18,3.54-1,8.53-3.38,11.39c-2.06,2.42-5.07,3.48-7.23,4.22c-1.64,0.58-2.76,0.98-2.62,1.68
				c0.04,0.18,0.06,0.5,0.06,0.92c-0.04,3.42-2.26,13.9-22.73,16.82c-21.82,3.12-147.43-0.56-211.54-32.38v-84.9
				c14.78,10.21,40.37,24.35,76.57,30.92c55.3,10.03,87.42,3.16,108.94-1.8c1.74-0.42,3.42-0.8,5.01-1.16
				c4.16-0.96,7.83-1.48,11.07-1.66c0,0.02,0,0.02,0,0.04c0.18,0.84,0.36,1.66,0.56,2.5c0.2,0.84,0.42,1.7,0.68,2.54
				c0.24,0.86,0.5,1.7,0.78,2.56c0.28,0.84,0.56,1.68,0.88,2.54c1.16,3.16,2.54,6.29,4.06,9.35c0.1,0.22,0.22,0.44,0.32,0.66
				c-3.08,1.02-5.07,2.24-3.9,3.8c0.74,0.98,3.62,1.96,7.63,3c13.84,3.58,41.27,7.87,42.41,14.3c0.08,0.48,0.14,0.94,0.18,1.38
				C220.09,233.69,215.98,235.09,213.5,235.87z"/>
			<g>
				<g>
					<path class="st13" d="M188.69,240.44c-11.54,0-25.14-1.53-35.55-7.29c-0.89-0.49-1.21-1.61-0.72-2.5
						c0.49-0.89,1.61-1.21,2.5-0.72c20.59,11.4,56.23,4.99,56.59,4.92c0.99-0.18,1.96,0.47,2.14,1.47c0.18,1-0.48,1.96-1.47,2.14
						C211.39,238.62,201.27,240.44,188.69,240.44z"/>
				</g>
				<g>
					<path class="st13" d="M182.26,259.9c-6.24,0-13.39-0.48-20.15-2.03c-0.99-0.23-1.61-1.21-1.38-2.2c0.23-0.99,1.2-1.6,2.2-1.38
						c16.43,3.78,36.03,0.81,36.23,0.78c1.01-0.14,1.94,0.53,2.1,1.53c0.16,1-0.53,1.94-1.53,2.1
						C199.23,258.78,191.82,259.9,182.26,259.9z"/>
				</g>
			</g>
			<path class="st14" d="M219.53,227.37c-67.15,2.87-72.06-24.58-69.69-39.85c1.75-0.4,3.42-0.79,5.02-1.16
				c4.17-0.96,7.85-1.47,11.08-1.65c1.32,6.76,3.97,13.63,7.28,20.17c-3.09,1.03-5.09,2.24-3.9,3.8c0.74,0.97,3.6,1.95,7.63,2.99
				c13.84,3.58,41.27,7.86,42.41,14.31C219.44,226.47,219.5,226.93,219.53,227.37z"/>
		</g>
	</g>
</g>
<g>
	<path class="st11" d="M224.81,309.51h8.5c6.12,0,10.31,3.69,10.31,9.35s-4.19,9.35-10.31,9.35h-8.5V309.51z M233.1,324.66
		c3.71,0,6.15-2.22,6.15-5.8s-2.43-5.8-6.15-5.8h-3.95v11.6H233.1z"/>
	<path class="st11" d="M261.37,324.74v3.47h-14.48v-18.7h14.13v3.47h-9.83v4.06h8.68v3.37h-8.68v4.33H261.37z"/>
	<path class="st11" d="M276.73,328.21l-3.61-5.21h-0.21h-3.77v5.21h-4.33v-18.7h8.1c5,0,8.12,2.59,8.12,6.79
		c0,2.8-1.42,4.86-3.85,5.9l4.19,6.01H276.73z M272.67,313.03h-3.53v6.52h3.53c2.65,0,3.98-1.23,3.98-3.26
		C276.65,314.24,275.32,313.03,272.67,313.03z"/>
	<path class="st11" d="M301.48,328.21l-0.03-11.22l-5.5,9.24H294l-5.48-9v10.98h-4.06v-18.7h3.58l7,11.62l6.89-11.62h3.55l0.05,18.7
		H301.48z"/>
	<path class="st11" d="M322.29,324.2h-8.68l-1.66,4.01h-4.44l8.34-18.7h4.27l8.36,18.7h-4.54L322.29,324.2z M320.93,320.92
		l-2.97-7.16l-2.97,7.16H320.93z"/>
</g>
</svg>
