<?xml version="1.0" encoding="utf-8"?>
<!-- Generator: Adobe Illustrator 28.1.0, SVG Export Plug-In . SVG Version: 6.00 Build 0)  -->
<svg version="1.1" id="Layer_1" xmlns="http://www.w3.org/2000/svg" xmlns:xlink="http://www.w3.org/1999/xlink" x="0px" y="0px"
	 viewBox="0 0 500 500" style="enable-background:new 0 0 500 500;" xml:space="preserve">
<style type="text/css">
	.st0{opacity:0.92;fill:#CFFFFF;enable-background:new    ;}
	.st1{opacity:0.92;enable-background:new    ;}
	.st2{opacity:0.92;fill:#8BE8E3;enable-background:new    ;}
	.st3{clip-path:url(#SVGID_00000172412145221650414680000009216949963355932833_);}
	.st4{fill:#026666;}
	.st5{fill:#FFEFE9;}
	.st6{fill:#00706D;}
	.st7{fill:#15465B;}
	.st8{fill:#23728E;}
	.st9{fill:#255D7C;}
	.st10{fill:#009393;}
	.st11{fill:#00A2AB;}
</style>
<circle class="st0" cx="250" cy="250" r="174.71"/>
<g class="st1">
	<path class="st2" d="M420.59,212.47c-9.23-41.94-32.81-77.01-64.45-101.2c10.86,16.93,18.97,36.03,23.55,56.83
		c20.73,94.24-38.86,187.43-133.1,208.16c-52.3,11.5-104.27-1.74-143.71-31.9c38.37,59.79,111.18,92.42,184.62,76.27
		C381.73,399.9,441.32,306.71,420.59,212.47z"/>
</g>
<g>
	<defs>
		<circle id="SVGID_1_" cx="250" cy="250" r="174.71"/>
	</defs>
	<clipPath id="SVGID_00000031175182931612140410000016755221157792891806_">
		<use xlink:href="#SVGID_1_"  style="overflow:visible;"/>
	</clipPath>
	<g style="clip-path:url(#SVGID_00000031175182931612140410000016755221157792891806_);">
		<g>
			<path class="st4" d="M207.39,168.47c-15.8-1.48-25.58-11.95-29.37-16.9v-19.49h-3.63v19.49c-3.8,4.95-13.58,15.42-29.37,16.9
				c-20.79,1.95-69.11,34.87-64.44,87.93h191.26C276.5,203.34,228.18,170.42,207.39,168.47z"/>
		</g>
		<path class="st5" d="M80.57,264.32v161.9h69.93v-59.23c0-15.74,11.51-28.5,25.7-28.5s25.7,12.76,25.7,28.5v59.23h69.93v-161.9
			H80.57z"/>
		<g>
			<path class="st4" d="M211.44,336.5c-26.56-15.59-35.24-41.06-35.24-41.06s-8.67,25.48-35.24,41.06
				c-28.87,16.94-14.09,94.73-14.09,94.73h23.63v-64.25c0-15.74,11.51-28.5,25.7-28.5s25.7,12.76,25.7,28.5v64.25h23.63
				C225.53,431.23,240.31,353.44,211.44,336.5z"/>
		</g>
		<polygon class="st6" points="284.94,272.22 67.47,272.22 61.74,256.41 290.66,256.41 		"/>
	</g>
</g>
<g>
	<g>
		<g>
			<path class="st7" d="M276.08,403.65c0,18.16,26.02,31.25,58.11,31.25s58.11-13.09,58.11-31.25v-11.16H276.08V403.65z"/>
			<ellipse class="st8" cx="334.2" cy="392.49" rx="58.11" ry="31.25"/>
			<path class="st8" d="M285.35,392.49c0-7.45,5.36-14.21,15.1-19.02c9.05-4.48,21.04-6.94,33.75-6.94c12.71,0,24.7,2.47,33.75,6.94
				c9.74,4.82,15.1,11.57,15.1,19.02c0,7.45-5.36,14.21-15.1,19.02c-9.05,4.48-21.04,6.94-33.75,6.94s-24.7-2.47-33.75-6.94
				C290.71,406.69,285.35,399.94,285.35,392.49z"/>
			<ellipse class="st7" cx="334.2" cy="392.49" rx="46.57" ry="23.04"/>
			<path class="st7" d="M288.24,396.25c-0.41-1.22-0.62-2.48-0.62-3.76c0-12.73,20.85-23.04,46.57-23.04
				c25.72,0,46.57,10.31,46.57,23.04c0,1.28-0.21,2.54-0.62,3.76c-3.63-10.93-22.82-19.28-45.96-19.28
				C311.07,376.97,291.87,385.31,288.24,396.25z"/>
		</g>
		<g>
			<path class="st7" d="M286.45,382.51c0,18.16,26.02,31.25,58.11,31.25s58.11-13.09,58.11-31.25v-11.16l-116.23,0V382.51z"/>
			<ellipse class="st8" cx="344.56" cy="371.35" rx="58.11" ry="31.25"/>
			<path class="st8" d="M295.71,371.35c0-7.45,5.36-14.21,15.1-19.02c9.05-4.48,21.04-6.94,33.75-6.94c12.71,0,24.7,2.47,33.75,6.94
				c9.74,4.82,15.1,11.57,15.1,19.02c0,7.45-5.36,14.21-15.1,19.02c-9.05,4.48-21.04,6.94-33.75,6.94s-24.7-2.47-33.75-6.94
				C301.08,385.56,295.71,378.8,295.71,371.35z"/>
			<ellipse class="st7" cx="344.56" cy="371.35" rx="46.57" ry="23.04"/>
			<path class="st7" d="M298.61,375.11c-0.41-1.22-0.62-2.48-0.62-3.76c0-12.73,20.85-23.04,46.57-23.04
				c25.72,0,46.57,10.31,46.57,23.04c0,1.28-0.21,2.54-0.62,3.76c-3.63-10.93-22.82-19.28-45.96-19.28
				C321.43,355.84,302.24,364.18,298.61,375.11z"/>
		</g>
		<g>
			<path class="st7" d="M278.37,362.59c0,18.16,26.02,31.25,58.11,31.25s58.11-13.09,58.11-31.25v-11.16H278.37L278.37,362.59z"/>
			<ellipse class="st8" cx="336.49" cy="351.43" rx="58.11" ry="31.25"/>
			<path class="st8" d="M287.64,351.43c0-7.45,5.36-14.21,15.1-19.02c9.05-4.48,21.04-6.94,33.75-6.94c12.71,0,24.7,2.47,33.75,6.94
				c9.74,4.82,15.1,11.57,15.1,19.02s-5.36,14.21-15.1,19.02c-9.05,4.48-21.04,6.94-33.75,6.94s-24.7-2.47-33.75-6.94
				C293,365.64,287.64,358.88,287.64,351.43z"/>
			<ellipse class="st9" cx="336.49" cy="351.43" rx="46.57" ry="23.04"/>
			<path class="st7" d="M290.53,355.2c-0.41-1.22-0.62-2.48-0.62-3.76c0-12.73,20.85-23.04,46.57-23.04
				c25.72,0,46.57,10.31,46.57,23.04c0,1.28-0.21,2.54-0.62,3.76c-3.63-10.93-22.82-19.28-45.96-19.28
				C313.36,335.92,294.16,344.26,290.53,355.2z"/>
		</g>
	</g>
	<ellipse class="st7" cx="336.49" cy="355.2" rx="11.36" ry="5.68"/>
	<g>
		<path class="st10" d="M225.46,241.97c1.48,1.21,2.84,2.56,4.03,4.01c5.71,6.97,8.57,15.77,12.31,23.97
			c5.81,12.78,14.49,24.94,27.04,31.24c12.29,6.18,27.8,5.81,39.4-1.58s18.54-21.76,16.41-35.34c-1.81-11.58-9.76-21.65-19.81-27.69
			c-10.05-6.03-21.99-8.33-33.71-8.34C254.97,228.24,238.58,232.64,225.46,241.97z"/>
	</g>
	<g>
		<path class="st10" d="M447.45,212.8c-1.48,1.21-2.84,2.56-4.03,4.01c-5.71,6.97-8.57,15.77-12.31,23.97
			c-5.81,12.78-14.49,24.94-27.04,31.24c-12.29,6.18-27.8,5.81-39.4-1.58c-11.59-7.39-18.54-21.76-16.41-35.34
			c1.81-11.58,9.76-21.65,19.81-27.69c10.05-6.03,21.99-8.33,33.71-8.34C417.94,199.07,434.33,203.47,447.45,212.8z"/>
	</g>
	<path class="st5" d="M354.8,249.3c-8.69,8.51-15.09,19.3-18.42,31.01c-1.78,6.15-2.75,12.54-3.09,18.93
		c-2.23-4.59-5.01-8.92-8.23-12.84c-14.66-17.89-38.37-28.82-60.68-33.33c19.6,5.21,39.54,15.32,53.17,30.56
		c6.7,7.53,11.71,16.61,14.01,26.43c0.97,4.15,1.51,8.41,1.62,12.68v30.6c0,1.83,1.48,3.31,3.31,3.31c1.83,0,3.31-1.48,3.31-3.31
		c0.05-18.89,0.09-37.79,0.53-56.68c0.14-6.04,0.39-11.67,1.93-17.53c2.83-10.75,8.51-20.73,16.21-28.76
		c13-13.62,31.73-22.7,50.06-26.47C389.04,226.77,368.97,235.4,354.8,249.3z"/>
</g>
<path class="st11" d="M118.08,339.9c-5.27-64.16,70.96-64.87,32.86,46.87C45.32,385.82,53.39,307.09,118.08,339.9z"/>
<g>
	<path class="st4" d="M188.17,126.91c-12.47,0-22.59-9.79-22.59-21.87c0-7.71,4.13-14.48,10.36-18.37
		c-12.54,1.69-22.19,11.98-22.19,24.47c0,13.66,11.56,24.74,25.81,24.74c10.37,0,19.29-5.87,23.39-14.33
		C199,124.88,193.83,126.91,188.17,126.91z"/>
</g>
</svg>
