<?xml version="1.0" encoding="utf-8"?>
<!-- Generator: Adobe Illustrator 28.1.0, SVG Export Plug-In . SVG Version: 6.00 Build 0)  -->
<svg version="1.1" id="Layer_1" xmlns="http://www.w3.org/2000/svg" xmlns:xlink="http://www.w3.org/1999/xlink" x="0px" y="0px"
	 viewBox="0 0 500 500" style="enable-background:new 0 0 500 500;" xml:space="preserve">
<style type="text/css">
	.st0{opacity:0.92;fill:#CFFFFF;enable-background:new    ;}
	.st1{opacity:0.92;enable-background:new    ;}
	.st2{opacity:0.92;fill:#8BE8E3;enable-background:new    ;}
	.st3{clip-path:url(#SVGID_00000170992014233376411830000001812647548496074422_);fill:#E6E7E8;}
	.st4{clip-path:url(#SVGID_00000170992014233376411830000001812647548496074422_);}
	.st5{fill:#0F7F7F;}
	.st6{fill:#00A2AB;}
	.st7{fill:#026666;}
	.st8{fill:#FFFFFF;}
	.st9{fill:#255D7C;}
	.st10{fill:#15465B;}
	.st11{fill:#093747;}
</style>
<circle class="st0" cx="250" cy="250" r="174.71"/>
<g class="st1">
	<path class="st2" d="M420.59,212.47c-9.23-41.94-32.81-77.01-64.45-101.2c10.86,16.93,18.97,36.03,23.55,56.83
		c20.73,94.24-38.86,187.43-133.1,208.16c-52.3,11.5-104.27-1.74-143.71-31.9c38.37,59.79,111.18,92.42,184.62,76.27
		C381.73,399.9,441.32,306.71,420.59,212.47z"/>
</g>
<g>
	<defs>
		<circle id="SVGID_1_" cx="250" cy="250" r="174.71"/>
	</defs>
	<clipPath id="SVGID_00000131359634187706302000000006398423579521964931_">
		<use xlink:href="#SVGID_1_"  style="overflow:visible;"/>
	</clipPath>
	<path style="clip-path:url(#SVGID_00000131359634187706302000000006398423579521964931_);fill:#E6E7E8;" d="M333.52,264.38
		c-0.52-35.58-24.45-59.07-43.11-66.23c-23.79-9.12-32.43-26.98-35.19-34.94v-11.29h-2.34v11.29c-2.77,7.96-11.41,25.82-35.19,34.94
		c-18.67,7.16-42.59,30.65-43.11,66.23h-9.46V281h75.69l-66.75,5.65v115.11h159.99V281h8.94v-16.62H333.52z M222.1,398.66h-38.44
		v-42.51c1.24-17.26,19.22-32.29,19.22-32.29s17.98,15.02,19.22,32.29V398.66z M273.26,398.66h-38.44v-42.51
		c1.24-17.26,19.22-32.29,19.22-32.29s17.98,15.02,19.22,32.29V398.66z M324.43,398.66h-38.44v-42.51
		c1.24-17.26,19.22-32.29,19.22-32.29s17.98,15.02,19.22,32.29V398.66z"/>
	<g style="clip-path:url(#SVGID_00000131359634187706302000000006398423579521964931_);">
		<path class="st5" d="M134.79,338.61v-57.45h7.58v-7.22h-9.39v-52.91h6.5v-7.22h-6.86c-0.36-15.17-8.67-32.14-8.67-32.14
			s-8.31,16.97-8.67,32.14h-6.86v7.22h6.5v52.91h-9.39v7.22h7.58v59.31l-15.89,1.36v6.14l32.2-1.22l-22.09,1.94v58.14h62.3v-71.21
			L134.79,338.61z"/>
	</g>
	<g style="clip-path:url(#SVGID_00000131359634187706302000000006398423579521964931_);">
		<path class="st5" d="M373.36,338.61v-57.45h-7.58v-7.22h9.39v-52.91h-6.5v-7.22h6.86c0.36-15.17,8.67-32.14,8.67-32.14
			s8.31,16.97,8.67,32.14h6.86v7.22h-6.5v52.91h9.39v7.22h-7.58v59.31l15.89,1.36v6.14l-32.2-1.22l22.09,1.94v58.14h-62.3v-71.21
			L373.36,338.61z"/>
	</g>
</g>
<g>
	<g>
		<g>
			<path class="st6" d="M292.87,283.1c-3.78,0.06-7.5,1.51-9.94,4.47c-28.47-6.16-55.87-21.14-80.83-35.71
				c0.3-4.19-1.4-8.48-4.01-11.68c4.42-11.13,8.9-22.24,13.44-33.32c3.8,0.96,7.91,0.14,10.88-2.47
				c24.32,14.98,49.97,28.39,75.4,41.38c0.16,3.95,2.29,7.55,5.28,10.04C299.82,264.96,296.31,274.01,292.87,283.1z"/>
			<g>
				<g>
					<path class="st7" d="M298.63,241.22c-24.62-12.99-49.6-26.16-73.42-40.55c-4.46-2.75-8.87-5.57-13.22-8.48
						c-1.65,4.22-3.3,8.43-4.95,12.65c-4.2,10.73-8.4,21.46-12.61,32.19c-1.65,4.2-3.29,8.4-4.94,12.61
						c-0.01,0.02-0.01,0.02-0.02,0.04c3.85,2.33,7.72,4.66,11.6,6.94c0.01-0.01,0.01-0.03,0.02-0.04
						c24.34,14.22,51.61,29.6,79.51,35.18c4.45,0.68,8.78,1.04,13.28,1.15c1.22-3.14,2.44-6.28,3.65-9.42
						c3.21-8.4,6.49-16.77,9.5-25.24c1.31-3.7,2.69-7.37,4.1-11.04C306.87,245.41,302.73,243.34,298.63,241.22z M292.87,283.1
						c-3.78,0.06-7.5,1.51-9.94,4.47c-28.47-6.16-55.87-21.14-80.83-35.71c0.3-4.19-1.4-8.48-4.01-11.68
						c4.42-11.13,8.9-22.24,13.44-33.32c3.8,0.96,7.91,0.14,10.88-2.47c24.32,14.98,49.97,28.39,75.4,41.38
						c0.16,3.95,2.29,7.55,5.28,10.04C299.82,264.96,296.31,274.01,292.87,283.1z"/>
				</g>
				<g>
					<path class="st8" d="M236.54,250.9l-1.06-6.44l-0.2-0.09l-3.51-1.66l-2.29,4.85l-4.03-1.91l8.23-17.41l7.54,3.56
						c4.65,2.2,6.42,5.99,4.57,9.89c-1.23,2.61-3.46,3.9-6.18,3.8l1.26,7.44L236.54,250.9z M239.44,234.98l-3.28-1.55l-2.87,6.07
						l3.28,1.55c2.46,1.16,4.25,0.61,5.14-1.28C242.62,237.86,241.91,236.15,239.44,234.98z"/>
					<path class="st8" d="M259.58,261.79l4.92-10.46l-9.19,6.18l-1.82-0.86l-1.13-10.79l-4.83,10.22l-3.78-1.79l8.23-17.41
						l3.33,1.58l1.4,13.9l11.53-7.78l3.31,1.56l-8.18,17.43L259.58,261.79z"/>
				</g>
			</g>
		</g>
	</g>
	<rect x="155.48" y="278.73" class="st9" width="201.47" height="145.42"/>
	<path class="st10" d="M356.95,293.8v130.35H208.94c1.85-3.23,5.16-5.67,8.87-6.08c31.27-3.57,37.87-32.83,75.29-13.12
		c1.9,9.38,23.45,2.51,9.61-15.81c-12.35-16.34,1.48-17.83,8.29-21.2c33.81-16.73,5.11-33.34-2.27-35.17
		c-35.12-8.73-87.68-7.04-122.8-15.78C233.07,293.12,301.06,290.78,356.95,293.8z"/>
	<g>
		<rect x="155.48" y="312.58" class="st11" width="201.47" height="8.79"/>
	</g>
	<g>
		<rect x="144.76" y="278.73" class="st9" width="220.81" height="33.85"/>
	</g>
</g>
<g>
	<path class="st8" d="M210.56,383.29v5.12h-23.72v-4.07l14.88-17.94h-14.57v-5.12h22.83v4.07l-14.84,17.94H210.56z"/>
	<path class="st8" d="M232.46,382.59h-12.6l-2.4,5.81h-6.43l12.09-27.13h6.2l12.13,27.13h-6.59L232.46,382.59z M230.48,377.82
		l-4.3-10.39l-4.3,10.39H230.48z"/>
	<path class="st8" d="M254.16,377.74l-3.64,3.8v6.86h-6.24v-27.13h6.24v12.67l12.02-12.67h6.98l-11.24,12.09l11.9,15.04h-7.33
		L254.16,377.74z"/>
	<path class="st8" d="M289.62,382.59h-12.6l-2.4,5.81h-6.43l12.09-27.13h6.2l12.13,27.13h-6.59L289.62,382.59z M287.64,377.82
		l-4.3-10.39l-4.3,10.39H287.64z"/>
	<path class="st8" d="M305.7,366.39h-8.68v-5.12h23.64v5.12h-8.68v22.01h-6.28V366.39z"/>
</g>
</svg>
