<?xml version="1.0" encoding="UTF-8" standalone="no"?>
<!DOCTYPE svg PUBLIC "-//W3C//DTD SVG 1.1//EN" "http://www.w3.org/Graphics/SVG/1.1/DTD/svg11.dtd">
<svg width="100%" height="100%" viewBox="0 0 285 285" version="1.1" xmlns="http://www.w3.org/2000/svg" xmlns:xlink="http://www.w3.org/1999/xlink" xml:space="preserve" xmlns:serif="http://www.serif.com/" style="fill-rule:evenodd;clip-rule:evenodd;stroke-linejoin:round;stroke-miterlimit:2;">
    <g transform="matrix(4.16667,0,0,4.16667,-1113.2,-1357)">
        <g transform="matrix(1,0,0,1,314.839,354.818)">
            <path d="M0,-1.171C-0.146,-1.482 -0.461,-1.682 -0.804,-1.682L-1.5,-1.682C-1.842,-1.682 -2.158,-1.482 -2.303,-1.171C-2.449,-0.86 -2.401,-0.489 -2.181,-0.226L-1.833,0.191C-1.665,0.394 -1.416,0.511 -1.151,0.511C-0.887,0.511 -0.639,0.394 -0.47,0.191L-0.122,-0.226C0.098,-0.489 0.146,-0.86 0,-1.171" style="fill:rgb(0,163,172);fill-rule:nonzero;"/>
        </g>
        <g transform="matrix(1,0,0,1,311.311,352.078)">
            <path d="M0,-1.543C-0.203,-1.543 -0.402,-1.46 -0.545,-1.317C-0.688,-1.173 -0.771,-0.975 -0.771,-0.772C-0.771,-0.568 -0.688,-0.37 -0.545,-0.228C-0.402,-0.083 -0.203,0 0,0C0.203,0 0.401,-0.083 0.545,-0.228C0.688,-0.37 0.771,-0.568 0.771,-0.772C0.771,-0.975 0.688,-1.174 0.545,-1.317C0.401,-1.46 0.203,-1.543 0,-1.543" style="fill:rgb(0,163,172);fill-rule:nonzero;"/>
        </g>
        <g transform="matrix(1,0,0,1,316.065,350.535)">
            <path d="M0,1.542C0.203,1.542 0.401,1.46 0.545,1.315C0.688,1.173 0.771,0.975 0.771,0.771C0.771,0.568 0.688,0.369 0.545,0.226C0.401,0.083 0.203,0 0,0C-0.204,0 -0.402,0.083 -0.546,0.226C-0.689,0.369 -0.771,0.568 -0.771,0.771C-0.771,0.975 -0.689,1.173 -0.546,1.315C-0.402,1.46 -0.204,1.542 0,1.542" style="fill:rgb(0,163,172);fill-rule:nonzero;"/>
        </g>
        <g transform="matrix(1,0,0,1,287.755,345.694)">
            <path d="M0,28.114C-2.579,28.114 -4.677,26.015 -4.677,23.436C-4.677,21.434 -3.391,19.667 -1.543,19.02C0.109,22.774 3.864,25.402 8.221,25.402L16.402,25.402C18.058,25.402 19.447,26.563 19.799,28.114L0,28.114ZM13.488,20.508C14.166,19.57 14.575,18.45 14.651,17.282L19.729,23.86L17.008,23.86C16.68,22.116 15.26,20.752 13.488,20.508M20.163,6.548C20.163,5.413 20.559,4.304 21.278,3.428C21.439,3.233 21.494,2.971 21.424,2.728C21.309,2.325 21.234,1.908 21.201,1.488C21.165,1.027 21.179,0.565 21.242,0.112C21.991,0.453 22.658,0.932 23.227,1.537C23.415,1.737 23.695,1.822 23.962,1.76C24.332,1.675 24.707,1.631 25.08,1.631L26.786,1.631C27.161,1.631 27.539,1.675 27.91,1.761C28.178,1.824 28.458,1.739 28.647,1.539C29.216,0.933 29.883,0.454 30.633,0.112C30.696,0.565 30.71,1.027 30.674,1.488C30.644,1.872 30.579,2.254 30.479,2.625C30.362,2.885 30.398,3.198 30.587,3.428C31.307,4.304 31.704,5.413 31.704,6.549C31.704,9.26 29.498,11.466 26.786,11.466L25.08,11.466C22.368,11.466 20.163,9.26 20.163,6.548M28.238,12.841C31.103,12.179 33.245,9.61 33.245,6.549C33.245,5.194 32.816,3.871 32.03,2.777C32.119,2.393 32.18,2.003 32.211,1.609C32.261,0.97 32.233,0.328 32.129,-0.299C32.058,-0.73 31.796,-1.098 31.413,-1.309C31.029,-1.519 30.578,-1.541 30.175,-1.37C29.301,-0.998 28.514,-0.48 27.829,0.175C27.483,0.118 27.134,0.09 26.786,0.09L25.08,0.09C24.735,0.09 24.388,0.118 24.044,0.174C23.36,-0.481 22.573,-0.998 21.699,-1.37C21.297,-1.541 20.846,-1.519 20.462,-1.309C20.079,-1.098 19.817,-0.73 19.746,-0.299C19.641,0.328 19.614,0.97 19.664,1.609C19.695,1.999 19.754,2.387 19.843,2.768C19.548,3.176 19.304,3.615 19.113,4.077L8.221,4.077C6.655,4.077 5.146,4.409 3.736,5.063C3.35,5.243 3.182,5.701 3.361,6.088C3.492,6.368 3.77,6.534 4.061,6.534C4.169,6.534 4.28,6.51 4.385,6.462C5.59,5.902 6.881,5.619 8.221,5.619L18.689,5.619C18.645,5.926 18.621,6.236 18.621,6.549C18.621,10.11 21.519,13.008 25.08,13.008L26.606,13.008C26.034,14.987 24.704,16.663 22.894,17.676L22.484,16.801C22.304,16.417 21.845,16.251 21.459,16.43C21.074,16.611 20.908,17.07 21.088,17.456L23.169,21.9C23.207,21.98 23.258,22.053 23.32,22.116L24.218,23.022C24.426,23.232 24.361,23.467 24.323,23.557C24.285,23.648 24.165,23.86 23.869,23.86L21.677,23.86C21.677,23.86 13.338,13.06 13.318,13.04C12.185,11.619 10.441,10.706 8.487,10.706C8.061,10.706 7.716,11.051 7.716,11.476C7.716,11.902 8.061,12.248 8.487,12.248C11.044,12.248 13.124,14.328 13.124,16.885C13.124,18.351 12.418,19.747 11.235,20.619C10.968,20.817 10.857,21.164 10.961,21.48C11.065,21.797 11.36,22.01 11.693,22.01L12.917,22.01C14.094,22.01 15.093,22.79 15.422,23.86L8.221,23.86C3.191,23.86 -0.9,19.768 -0.9,14.739C-0.9,13.407 -0.62,12.124 -0.066,10.925C0.112,10.538 -0.057,10.08 -0.444,9.902C-0.83,9.723 -1.288,9.892 -1.466,10.279C-2.113,11.682 -2.441,13.182 -2.441,14.739C-2.441,15.718 -2.308,16.667 -2.06,17.568C-4.512,18.43 -6.218,20.779 -6.218,23.436C-6.218,26.866 -3.429,29.655 0,29.655L20.656,29.655C21.082,29.655 21.427,29.31 21.427,28.885C21.427,27.533 20.89,26.305 20.019,25.402L23.869,25.402C24.705,25.402 25.424,24.923 25.746,24.15C26.067,23.379 25.901,22.53 25.312,21.936L24.509,21.126L23.548,19.074C25.944,17.772 27.654,15.503 28.238,12.841" style="fill:rgb(0,163,172);fill-rule:nonzero;"/>
        </g>
        <g transform="matrix(1,0,0,1,288.974,352.675)">
            <path d="M0,1.542C0.204,1.542 0.402,1.459 0.546,1.316C0.689,1.173 0.771,0.974 0.771,0.771C0.771,0.568 0.689,0.369 0.546,0.227C0.402,0.083 0.204,0 0,0C-0.203,0 -0.401,0.083 -0.545,0.227C-0.688,0.369 -0.77,0.568 -0.77,0.771C-0.77,0.974 -0.688,1.173 -0.545,1.316C-0.401,1.459 -0.203,1.542 0,1.542" style="fill:rgb(0,163,172);fill-rule:nonzero;"/>
        </g>
    </g>
</svg>
