<?xml version="1.0" encoding="UTF-8" standalone="no"?>
<!DOCTYPE svg PUBLIC "-//W3C//DTD SVG 1.1//EN" "http://www.w3.org/Graphics/SVG/1.1/DTD/svg11.dtd">
<svg width="100%" height="100%" viewBox="0 0 285 285" version="1.1" xmlns="http://www.w3.org/2000/svg" xmlns:xlink="http://www.w3.org/1999/xlink" xml:space="preserve" xmlns:serif="http://www.serif.com/" style="fill-rule:evenodd;clip-rule:evenodd;stroke-linejoin:round;stroke-miterlimit:2;">
    <g>
        <g transform="matrix(4.16667,0,0,4.16667,143.516,128.762)">
            <path d="M0,6.995L0,-0.691C0,-0.956 -0.215,-1.171 -0.48,-1.171C-0.746,-1.171 -0.961,-0.956 -0.961,-0.691L-0.961,6.995L-18.426,0.074L-11.78,-10.824L-0.802,-6.547C-0.595,-6.466 -0.366,-6.466 -0.159,-6.547L10.819,-10.824L17.464,0.074L0,6.995ZM22.91,2.469L13.903,-12.303C13.751,-12.552 13.443,-12.655 13.172,-12.55L12.095,-12.131L11.944,-12.379C11.721,-12.744 11.267,-12.899 10.868,-12.742L-0.48,-8.32L-11.829,-12.742C-12.229,-12.898 -12.682,-12.744 -12.905,-12.378L-13.057,-12.13L-14.133,-12.55C-14.404,-12.655 -14.712,-12.552 -14.864,-12.303L-23.871,2.469C-23.963,2.619 -23.984,2.804 -23.928,2.972C-23.872,3.14 -23.744,3.274 -23.58,3.339L-10.734,8.431L-12.408,19.201C-12.435,19.375 -12.385,19.551 -12.271,19.684C-12.156,19.817 -11.99,19.894 -11.814,19.894L-10.315,19.894C-10.194,19.894 -10.075,19.857 -9.975,19.789L-0.48,13.266L9.014,19.789C9.114,19.857 9.232,19.894 9.354,19.894L10.854,19.894C11.029,19.894 11.195,19.817 11.309,19.684C11.423,19.551 11.474,19.375 11.447,19.201L9.772,8.431L22.618,3.339C22.783,3.274 22.91,3.14 22.966,2.972C23.022,2.804 23.002,2.619 22.91,2.469" style="fill:rgb(0,163,172);fill-rule:nonzero;"/>
        </g>
        <g transform="matrix(4.16667,0,0,4.16667,185.937,111.912)">
            <path d="M0,-3.047C-0.096,-3.294 -0.375,-3.417 -0.622,-3.32L-7.708,-0.558C-7.955,-0.462 -8.077,-0.184 -7.98,0.064C-7.906,0.254 -7.725,0.37 -7.533,0.37C-7.475,0.37 -7.416,0.359 -7.358,0.337L-0.273,-2.425C-0.026,-2.522 0.096,-2.8 0,-3.047" style="fill:rgb(0,163,172);fill-rule:nonzero;"/>
        </g>
        <g transform="matrix(4.16667,0,0,4.16667,158.691,112.545)">
            <path d="M0,1.93C-0.247,2.027 -0.37,2.305 -0.273,2.552C-0.199,2.742 -0.018,2.858 0.175,2.858C0.232,2.858 0.292,2.848 0.349,2.826L7.435,0.063C7.682,-0.033 7.804,-0.312 7.708,-0.559C7.611,-0.806 7.333,-0.928 7.085,-0.832L0,1.93Z" style="fill:rgb(0,163,172);fill-rule:nonzero;"/>
        </g>
        <g transform="matrix(4.16667,0,0,4.16667,162.811,121.974)">
            <path d="M0,3.173C0.074,3.363 0.255,3.48 0.448,3.48C0.506,3.48 0.565,3.469 0.622,3.446L7.708,0.685C7.955,0.588 8.077,0.31 7.98,0.063C7.884,-0.185 7.605,-0.307 7.358,-0.211L0.273,2.551C0.026,2.648 -0.096,2.926 0,3.173" style="fill:rgb(0,163,172);fill-rule:nonzero;"/>
        </g>
        <g transform="matrix(4.16667,0,0,4.16667,129.203,101.547)">
            <path d="M0,1.93L-7.085,-0.833C-7.332,-0.928 -7.611,-0.806 -7.707,-0.559C-7.804,-0.312 -7.681,-0.034 -7.434,0.063L-0.349,2.825C-0.292,2.847 -0.232,2.858 -0.174,2.858C0.018,2.858 0.199,2.742 0.273,2.552C0.37,2.304 0.248,2.026 0,1.93" style="fill:rgb(0,163,172);fill-rule:nonzero;"/>
        </g>
        <g transform="matrix(4.16667,0,0,4.16667,124.337,112.545)">
            <path d="M0,1.93L-7.085,-0.832C-7.333,-0.928 -7.611,-0.806 -7.708,-0.559C-7.804,-0.312 -7.682,-0.033 -7.435,0.063L-0.349,2.826C-0.292,2.848 -0.233,2.858 -0.175,2.858C0.018,2.858 0.199,2.742 0.273,2.552C0.369,2.305 0.247,2.027 0,1.93" style="fill:rgb(0,163,172);fill-rule:nonzero;"/>
        </g>
        <g transform="matrix(4.16667,0,0,4.16667,119.077,124.565)">
            <path d="M0,1.929L-7.085,-0.833C-7.332,-0.929 -7.611,-0.807 -7.708,-0.559C-7.804,-0.312 -7.681,-0.034 -7.434,0.063L-0.349,2.825C-0.292,2.847 -0.232,2.858 -0.174,2.858C0.018,2.858 0.199,2.741 0.273,2.551C0.37,2.304 0.248,2.026 0,1.929" style="fill:rgb(0,163,172);fill-rule:nonzero;"/>
        </g>
    </g>
</svg>
