<?xml version="1.0" encoding="UTF-8" standalone="no"?>
<!DOCTYPE svg PUBLIC "-//W3C//DTD SVG 1.1//EN" "http://www.w3.org/Graphics/SVG/1.1/DTD/svg11.dtd">
<svg width="100%" height="100%" viewBox="0 0 285 285" version="1.1" xmlns="http://www.w3.org/2000/svg" xmlns:xlink="http://www.w3.org/1999/xlink" xml:space="preserve" xmlns:serif="http://www.serif.com/" style="fill-rule:evenodd;clip-rule:evenodd;stroke-linejoin:round;stroke-miterlimit:2;">
    <g transform="matrix(4.16667,0,0,4.16667,-1112.22,-2256.09)">
        <path d="M283.828,596.396L318.238,596.396L318.238,596.448L283.828,596.448L283.828,596.396ZM292.242,583.6L294.397,583.6L294.397,594.345L289.437,594.345L289.437,586.404L291.742,586.404C292.018,586.404 292.242,586.181 292.242,585.904L292.242,583.6ZM299.253,583.6L302.811,583.6L302.811,594.345L299.253,594.345L299.253,583.6ZM307.668,583.6L309.823,583.6L309.823,585.904C309.823,586.181 310.047,586.404 310.323,586.404L312.628,586.404L312.628,594.345L307.668,594.345L307.668,583.6ZM286.632,579.393L315.433,579.393L315.433,594.345L314.68,594.345L314.68,584.853C314.68,584.577 314.456,584.353 314.18,584.353L311.875,584.353L311.875,582.048C311.875,581.772 311.651,581.548 311.375,581.548L306.116,581.548C305.84,581.548 305.616,581.772 305.616,582.048L305.616,594.345L304.863,594.345L304.863,582.048C304.863,581.772 304.639,581.548 304.363,581.548L297.702,581.548C297.426,581.548 297.202,581.772 297.202,582.048L297.202,594.345L296.449,594.345L296.449,582.048C296.449,581.772 296.225,581.548 295.949,581.548L290.69,581.548C290.414,581.548 290.19,581.772 290.19,582.048L290.19,584.353L287.885,584.353C287.609,584.353 287.385,584.577 287.385,584.853L287.385,594.345L286.632,594.345L286.632,579.393ZM292.242,576.588L309.824,576.588L309.824,577.341L292.242,577.341L292.242,576.588ZM290.164,574.536C290.15,574.536 290.138,574.524 290.138,574.511L311.901,574.484L311.901,574.536L290.164,574.536ZM292.327,572.433C293.122,567.589 299.286,564.234 301.035,563.374C302.784,564.228 308.949,567.561 309.739,572.433L292.327,572.433ZM301.734,552.624L301.032,552.624C298.92,552.624 297.202,554.343 297.202,556.455C297.202,558.203 298.358,559.693 300.006,560.146L300.006,561.591C299.097,562.043 297.302,563.015 295.488,564.447C292.409,566.88 290.609,569.632 290.255,572.433L290.164,572.433C289.019,572.433 288.086,573.364 288.086,574.511C288.086,575.656 289.019,576.588 290.164,576.588L290.19,576.588L290.19,577.341L285.081,577.341C284.804,577.341 284.581,577.564 284.581,577.841L284.581,594.345L282.276,594.345C282,594.345 281.776,594.568 281.776,594.845L281.776,598C281.776,598.276 282,598.5 282.276,598.5L319.789,598.5C320.065,598.5 320.289,598.276 320.289,598L320.289,594.845C320.289,594.568 320.065,594.345 319.789,594.345L317.484,594.345L317.484,577.841C317.484,577.564 317.261,577.341 316.984,577.341L311.875,577.341L311.875,576.588L311.901,576.588C313.046,576.588 313.979,575.656 313.979,574.511C313.979,573.364 313.046,572.433 311.901,572.433L311.811,572.433C311.458,569.616 309.657,566.858 306.576,564.431C304.763,563.002 302.968,562.037 302.058,561.589L302.058,560.146C303.707,559.693 304.863,558.203 304.863,556.455L304.863,555.754C304.863,555.478 304.639,555.254 304.363,555.254L303.312,555.254C303.035,555.254 302.812,555.478 302.812,555.754C302.812,556.348 302.328,556.831 301.734,556.831C301.14,556.831 300.656,556.348 300.656,555.754C300.656,555.159 301.14,554.676 301.734,554.676C302.01,554.676 302.234,554.452 302.234,554.176L302.234,553.124C302.234,552.848 302.01,552.624 301.734,552.624M283.328,596.948L318.738,596.948L318.738,595.896L283.328,595.896L283.328,596.948ZM288.937,594.845L294.897,594.845L294.897,583.1L291.742,583.1L291.742,585.904L288.937,585.904L288.937,594.845M298.753,594.845L303.311,594.845L303.311,583.1L298.753,583.1L298.753,594.845ZM307.168,594.845L313.128,594.845L313.128,585.904L310.323,585.904L310.323,583.1L307.168,583.1L307.168,594.845M286.132,594.845L287.885,594.845L287.885,584.853L290.69,584.853L290.69,582.048L295.949,582.048L295.949,594.845L297.702,594.845L297.702,582.048L304.363,582.048L304.363,594.845L306.116,594.845L306.116,582.048L311.375,582.048L311.375,584.853L314.18,584.853L314.18,594.845L315.933,594.845L315.933,578.893L286.132,578.893L286.132,594.845M291.742,577.841L310.324,577.841L310.324,576.088L291.742,576.088L291.742,577.841ZM290.164,575.036L311.901,575.036C312.191,575.036 312.427,574.8 312.427,574.511C312.427,574.22 312.191,573.984 311.901,573.984L290.164,573.984C289.874,573.984 289.638,574.22 289.638,574.511C289.638,574.8 289.874,575.036 290.164,575.036M291.763,572.933L310.302,572.933C309.862,567.236 302.392,563.459 301.034,562.818C299.676,563.465 292.206,567.27 291.763,572.933M301.032,558.733C301.526,558.733 301.983,558.576 302.356,558.309C302.157,558.357 301.948,558.383 301.734,558.383C300.284,558.383 299.104,557.203 299.104,555.754C299.104,555.539 299.13,555.33 299.179,555.131C298.911,555.504 298.753,555.961 298.753,556.455C298.753,557.711 299.776,558.733 301.032,558.733M301.734,553.124L301.734,554.176C300.864,554.176 300.156,554.884 300.156,555.754C300.156,556.623 300.864,557.331 301.734,557.331C302.604,557.331 303.312,556.623 303.312,555.754L304.363,555.754L304.363,556.455C304.363,558.112 303.146,559.49 301.558,559.743L301.558,561.902C302.31,562.257 304.275,563.254 306.266,564.823C309.414,567.304 311.164,570.097 311.356,572.933L311.901,572.933C312.771,572.933 313.479,573.641 313.479,574.511C313.479,575.38 312.771,576.088 311.901,576.088L311.375,576.088L311.375,577.841L316.984,577.841L316.984,594.845L319.789,594.845L319.789,598L282.276,598L282.276,594.845L285.081,594.845L285.081,577.841L290.69,577.841L290.69,576.088L290.164,576.088C289.294,576.088 288.586,575.38 288.586,574.511C288.586,573.641 289.294,572.933 290.164,572.933L290.708,572.933C290.902,570.113 292.652,567.326 295.798,564.84C297.79,563.266 299.757,562.261 300.506,561.903L300.506,559.743C298.919,559.49 297.702,558.112 297.702,556.455C297.702,554.618 299.196,553.124 301.032,553.124L301.734,553.124" style="fill:rgb(0,163,172);fill-rule:nonzero;"/>
    </g>
</svg>
