<?xml version="1.0" encoding="UTF-8" standalone="no"?>
<!DOCTYPE svg PUBLIC "-//W3C//DTD SVG 1.1//EN" "http://www.w3.org/Graphics/SVG/1.1/DTD/svg11.dtd">
<svg width="100%" height="100%" viewBox="0 0 285 285" version="1.1" xmlns="http://www.w3.org/2000/svg" xmlns:xlink="http://www.w3.org/1999/xlink" xml:space="preserve" xmlns:serif="http://www.serif.com/" style="fill-rule:evenodd;clip-rule:evenodd;stroke-linejoin:round;stroke-miterlimit:2;">
    <g>
        <g transform="matrix(4.16667,0,0,4.16667,74.4504,167.188)">
            <path d="M0,-10.155C-0.395,-10.033 -0.663,-9.668 -0.663,-9.255L-0.663,-0.82C-0.663,-0.299 -0.241,0.123 0.28,0.123C0.801,0.123 1.223,-0.299 1.223,-0.82L1.223,-6.227L5.206,-0.455C5.488,-0.05 5.956,0.123 6.397,-0.015C6.848,-0.157 7.14,-0.585 7.14,-1.114L7.061,-9.282C7.056,-9.8 6.635,-10.216 6.118,-10.216L6.109,-10.216C5.588,-10.211 5.17,-9.785 5.175,-9.263L5.228,-3.744L1.057,-9.791C0.822,-10.131 0.394,-10.278 0,-10.155" style="fill:rgb(0,163,172);fill-rule:nonzero;"/>
        </g>
        <g transform="matrix(4.16667,0,0,4.16667,139.612,159.843)">
            <path d="M0,-6.567C0.654,-6.567 1.289,-6.372 1.834,-6.005C2.267,-5.713 2.853,-5.827 3.144,-6.258C3.435,-6.691 3.321,-7.277 2.889,-7.568C2.03,-8.147 1.032,-8.453 0,-8.453C-2.849,-8.453 -5.167,-6.133 -5.167,-3.282C-5.167,-0.432 -2.849,1.886 0,1.886C2.701,1.886 4.587,-0.239 4.587,-3.282C4.587,-3.802 4.165,-4.224 3.644,-4.224L1.119,-4.224C0.598,-4.224 0.176,-3.802 0.176,-3.282C0.176,-2.76 0.598,-2.338 1.119,-2.338L2.607,-2.338C2.358,-1.119 1.586,-0 0,-0C-1.809,-0 -3.281,-1.472 -3.281,-3.282C-3.281,-5.093 -1.809,-6.567 0,-6.567" style="fill:rgb(0,163,172);fill-rule:nonzero;"/>
        </g>
        <g transform="matrix(4.16667,0,0,4.16667,175.525,146.156)">
            <path d="M0,0.003C0,-1.809 1.472,-3.282 3.281,-3.282C5.088,-3.282 6.559,-1.809 6.559,0.003C6.559,1.813 5.088,3.284 3.281,3.284C1.472,3.284 0,1.813 0,0.003M8.445,0.003C8.445,-2.849 6.128,-5.168 3.281,-5.168C0.432,-5.168 -1.886,-2.849 -1.886,0.003C-1.886,2.853 0.432,5.171 3.281,5.171C6.128,5.171 8.445,2.853 8.445,0.003" style="fill:rgb(0,163,172);fill-rule:nonzero;"/>
        </g>
        <g transform="matrix(4.16667,0,0,4.16667,233.303,187.708)">
            <path d="M0,-19.946L-19.216,-19.95C-19.737,-19.95 -20.159,-19.528 -20.159,-19.007C-20.159,-18.486 -19.737,-18.064 -19.216,-18.063L-0.305,-18.06L-0.305,-1.882L-43.904,-1.882L-43.904,-18.06L-24.292,-18.063C-23.771,-18.064 -23.348,-18.486 -23.348,-19.007C-23.349,-19.528 -23.771,-19.95 -24.292,-19.95L-44.209,-19.946C-45.081,-19.946 -45.79,-19.237 -45.79,-18.365L-45.79,-1.577C-45.79,-0.705 -45.081,0.004 -44.209,0.004L0,0.004C0.872,0.004 1.581,-0.705 1.581,-1.577L1.581,-18.365C1.581,-19.237 0.872,-19.946 0,-19.946" style="fill:rgb(0,163,172);fill-rule:nonzero;"/>
        </g>
    </g>
</svg>
